<svg width="20" height="20" viewBox="0 0 20 20" fill="none" xmlns="http://www.w3.org/2000/svg">
<path d="M18.2664 9.66665C16.583 5.75831 13.4164 3.33331 9.99969 3.33331C6.58302 3.33331 3.41636 5.75831 1.73302 9.66665C1.68714 9.77178 1.66345 9.88526 1.66345 9.99998C1.66345 10.1147 1.68714 10.2282 1.73302 10.3333C3.41636 14.2416 6.58302 16.6666 9.99969 16.6666C13.4164 16.6666 16.583 14.2416 18.2664 10.3333C18.3122 10.2282 18.3359 10.1147 18.3359 9.99998C18.3359 9.88526 18.3122 9.77178 18.2664 9.66665ZM9.99969 15C7.35802 15 4.85802 13.0916 3.41636 9.99998C4.85802 6.90831 7.35802 4.99998 9.99969 4.99998C12.6414 4.99998 15.1414 6.90831 16.583 9.99998C15.1414 13.0916 12.6414 15 9.99969 15ZM9.99969 6.66665C9.34042 6.66665 8.69595 6.86214 8.14779 7.22841C7.59963 7.59469 7.17238 8.11528 6.92009 8.72437C6.6678 9.33345 6.60179 10.0037 6.7304 10.6503C6.85902 11.2969 7.17649 11.8908 7.64267 12.357C8.10884 12.8232 8.70279 13.1406 9.34939 13.2693C9.99599 13.3979 10.6662 13.3319 11.2753 13.0796C11.8844 12.8273 12.405 12.4 12.7713 11.8519C13.1375 11.3037 13.333 10.6593 13.333 9.99998C13.333 9.11592 12.9818 8.26808 12.3567 7.64296C11.7316 7.01784 10.8837 6.66665 9.99969 6.66665ZM9.99969 11.6666C9.67005 11.6666 9.34782 11.5689 9.07374 11.3858C8.79966 11.2026 8.58604 10.9423 8.45989 10.6378C8.33374 10.3332 8.30074 9.99813 8.36505 9.67483C8.42936 9.35153 8.58809 9.05456 8.82118 8.82147C9.05427 8.58838 9.35124 8.42965 9.67454 8.36534C9.99784 8.30103 10.333 8.33403 10.6375 8.46018C10.942 8.58633 11.2023 8.79995 11.3855 9.07403C11.5686 9.34811 11.6664 9.67034 11.6664 9.99998C11.6664 10.442 11.4908 10.8659 11.1782 11.1785C10.8656 11.4911 10.4417 11.6666 9.99969 11.6666Z" fill="#BAC1CE"/>
</svg>
