<svg width="59" height="59" viewBox="0 0 59 59" fill="none" xmlns="http://www.w3.org/2000/svg">
<path d="M29.5 0C13.275 0 0 13.275 0 29.5C0 45.725 13.275 59 29.5 59C45.725 59 59 45.725 59 29.5C59 13.275 45.725 0 29.5 0ZM43.365 32.45C42.775 33.335 42.185 34.22 41.3 34.515L26.55 43.07C23.6 44.84 20.06 43.66 18.585 41.005C17.995 40.12 17.7 39.235 17.7 38.055V20.945C17.7 17.7 20.355 15.045 23.6 15.045C24.78 15.045 25.665 15.34 26.55 15.93L41.3 24.485C44.25 25.96 45.135 29.5 43.365 32.45Z" fill="#0061FF"/>
</svg>
