<svg width="40" height="40" viewBox="0 0 40 40" fill="none" xmlns="http://www.w3.org/2000/svg">
<path d="M31.1841 12.0168C31.0291 11.8606 30.8448 11.7366 30.6417 11.652C30.4386 11.5674 30.2207 11.5238 30.0007 11.5238C29.7807 11.5238 29.5629 11.5674 29.3598 11.652C29.1567 11.7366 28.9723 11.8606 28.8174 12.0168L16.4007 24.4502L11.1841 19.2168C11.0232 19.0614 10.8333 18.9392 10.6252 18.8572C10.4171 18.7752 10.1949 18.735 9.97126 18.7389C9.74762 18.7428 9.52694 18.7906 9.32181 18.8798C9.11668 18.9689 8.93112 19.0976 8.77572 19.2585C8.62032 19.4194 8.49813 19.6093 8.41613 19.8174C8.33412 20.0255 8.2939 20.2477 8.29777 20.4713C8.30164 20.6949 8.34952 20.9156 8.43868 21.1207C8.52783 21.3259 8.65652 21.5114 8.81739 21.6668L15.2174 28.0668C15.3723 28.223 15.5567 28.347 15.7598 28.4317C15.9629 28.5163 16.1807 28.5598 16.4007 28.5598C16.6207 28.5598 16.8386 28.5163 17.0417 28.4317C17.2448 28.347 17.4291 28.223 17.5841 28.0668L31.1841 14.4668C31.3532 14.3108 31.4882 14.1213 31.5806 13.9105C31.6729 13.6997 31.7206 13.472 31.7206 13.2418C31.7206 13.0117 31.6729 12.784 31.5806 12.5732C31.4882 12.3623 31.3532 12.1729 31.1841 12.0168Z" fill="white"/>
</svg>
