<svg width="16" height="16" viewBox="0 0 16 16" fill="none" xmlns="http://www.w3.org/2000/svg">
<path d="M5.80667 5.13989L7.33333 3.60656V9.99989C7.33333 10.1767 7.40357 10.3463 7.52859 10.4713C7.65362 10.5963 7.82319 10.6666 8 10.6666C8.17681 10.6666 8.34638 10.5963 8.4714 10.4713C8.59643 10.3463 8.66667 10.1767 8.66667 9.99989V3.60656L10.1933 5.13989C10.2553 5.20238 10.329 5.25197 10.4103 5.28582C10.4915 5.31966 10.5787 5.33709 10.6667 5.33709C10.7547 5.33709 10.8418 5.31966 10.923 5.28582C11.0043 5.25197 11.078 5.20238 11.14 5.13989C11.2025 5.07792 11.2521 5.00418 11.2859 4.92294C11.3198 4.8417 11.3372 4.75457 11.3372 4.66656C11.3372 4.57855 11.3198 4.49141 11.2859 4.41017C11.2521 4.32893 11.2025 4.2552 11.14 4.19322L8.47333 1.52656C8.40993 1.46586 8.33517 1.41829 8.25333 1.38656C8.09102 1.31988 7.90897 1.31988 7.74667 1.38656C7.66483 1.41829 7.59007 1.46586 7.52667 1.52656L4.86 4.19322C4.79784 4.25538 4.74853 4.32918 4.71489 4.41039C4.68125 4.49161 4.66394 4.57865 4.66394 4.66656C4.66394 4.75446 4.68125 4.84151 4.71489 4.92272C4.74853 5.00394 4.79784 5.07773 4.86 5.13989C4.92216 5.20205 4.99595 5.25136 5.07717 5.285C5.15838 5.31864 5.24543 5.33595 5.33333 5.33595C5.42124 5.33595 5.50828 5.31864 5.5895 5.285C5.67071 5.25136 5.74451 5.20205 5.80667 5.13989ZM14 7.99989C13.8232 7.99989 13.6536 8.07013 13.5286 8.19515C13.4036 8.32018 13.3333 8.48975 13.3333 8.66656V12.6666C13.3333 12.8434 13.2631 13.0129 13.1381 13.138C13.013 13.263 12.8435 13.3332 12.6667 13.3332H3.33333C3.15652 13.3332 2.98695 13.263 2.86193 13.138C2.7369 13.0129 2.66667 12.8434 2.66667 12.6666V8.66656C2.66667 8.48975 2.59643 8.32018 2.4714 8.19515C2.34638 8.07013 2.17681 7.99989 2 7.99989C1.82319 7.99989 1.65362 8.07013 1.52859 8.19515C1.40357 8.32018 1.33333 8.48975 1.33333 8.66656V12.6666C1.33333 13.197 1.54405 13.7057 1.91912 14.0808C2.29419 14.4558 2.8029 14.6666 3.33333 14.6666H12.6667C13.1971 14.6666 13.7058 14.4558 14.0809 14.0808C14.456 13.7057 14.6667 13.197 14.6667 12.6666V8.66656C14.6667 8.48975 14.5964 8.32018 14.4714 8.19515C14.3464 8.07013 14.1768 7.99989 14 7.99989Z" fill="#0061FF"/>
</svg>
