<svg width="32" height="32" viewBox="0 0 32 32" fill="none" xmlns="http://www.w3.org/2000/svg">
<path d="M27.9999 18.6667C27.6463 18.6667 27.3072 18.8072 27.0571 19.0573C26.8071 19.3073 26.6666 19.6465 26.6666 20.0001L26.6666 24.7867L20.5866 18.6667C20.4622 18.5377 20.3131 18.4351 20.1481 18.365C19.9832 18.2948 19.8058 18.2587 19.6266 18.2587C19.4474 18.2587 19.27 18.2948 19.105 18.365C18.9401 18.4351 18.791 18.5377 18.6666 18.6667C18.4183 18.9166 18.2789 19.2545 18.2789 19.6067C18.2789 19.959 18.4183 20.2969 18.6666 20.5467L24.7866 26.6667L19.9999 26.6667C19.6463 26.6667 19.3072 26.8072 19.0571 27.0573C18.8071 27.3073 18.6666 27.6465 18.6666 28.0001C18.6666 28.3537 18.8071 28.6928 19.0571 28.9429C19.3072 29.1929 19.6463 29.3334 19.9999 29.3334L27.9999 29.3334C28.1742 29.3313 28.3463 29.2951 28.5066 29.2267C28.8324 29.0914 29.0913 28.8325 29.2266 28.5067C29.2949 28.3464 29.3311 28.1743 29.3333 28.0001L29.3333 20.0001C29.3333 19.6465 29.1928 19.3073 28.9427 19.0573C28.6927 18.8072 28.3535 18.6667 27.9999 18.6667ZM11.5999 13.3334C11.855 13.5518 12.1831 13.666 12.5187 13.653C12.8542 13.6401 13.1725 13.501 13.41 13.2635C13.6475 13.026 13.7866 12.7077 13.7995 12.3722C13.8125 12.0366 13.6984 11.7085 13.4799 11.4534L5.11992 3.08008C4.99533 2.95651 4.84758 2.85874 4.68513 2.79239C4.52268 2.72603 4.34873 2.6924 4.17325 2.69342C3.99777 2.6924 3.82383 2.72603 3.66138 2.79239C3.49893 2.85874 3.35117 2.95651 3.22658 3.08008C3.10161 3.20403 3.00242 3.3515 2.93473 3.51398C2.86704 3.67646 2.83219 3.85073 2.83219 4.02675C2.83219 4.20276 2.86704 4.37704 2.93473 4.53952C3.00242 4.702 3.10161 4.84946 3.22659 4.97342L11.5999 13.3334ZM19.9999 5.33341L24.7866 5.33341L3.05325 27.0534C2.80218 27.3045 2.66113 27.645 2.66113 28.0001C2.66113 28.3551 2.80218 28.6957 3.05326 28.9467C3.30433 29.1978 3.64485 29.3389 3.99992 29.3389C4.35499 29.3389 4.69551 29.1978 4.94658 28.9467L26.6666 7.21341L26.6666 12.0001C26.6666 12.3537 26.8071 12.6928 27.0571 12.9429C27.3072 13.1929 27.6463 13.3334 27.9999 13.3334C28.3535 13.3334 28.6927 13.1929 28.9427 12.9429C29.1928 12.6928 29.3333 12.3537 29.3333 12.0001L29.3332 4.00008C29.3311 3.82584 29.2949 3.65371 29.2266 3.49341C29.0913 3.16762 28.8324 2.90871 28.5066 2.77341C28.3463 2.70509 28.1742 2.66885 27.9999 2.66675L19.9999 2.66675C19.6463 2.66675 19.3072 2.80722 19.0571 3.05727C18.8071 3.30732 18.6666 3.64646 18.6666 4.00008C18.6666 4.3537 18.8071 4.69284 19.0571 4.94289C19.3072 5.19294 19.6463 5.33341 19.9999 5.33341Z" fill="#0061FF"/>
</svg>
