<svg width="24" height="24" viewBox="0 0 24 24" fill="none" xmlns="http://www.w3.org/2000/svg">
<path d="M17.2 15.8L13.4 12L17.2 8.2C17.6 7.8 17.6 7.2 17.2 6.8L12.7 2.3C12.3 1.9 11.7 1.9 11.3 2.3C11.1 2.5 11 2.7 11 3V9.6L8.2 6.8C7.8 6.4 7.2 6.4 6.8 6.8C6.4 7.2 6.4 7.8 6.8 8.2L10.6 12L6.8 15.8C6.4 16.2 6.4 16.8 6.8 17.2C7.2 17.6 7.8 17.6 8.2 17.2L11 14.4V21C11 21.6 11.4 22 12 22C12.3 22 12.5 21.9 12.7 21.7L17.2 17.2C17.6 16.8 17.6 16.2 17.2 15.8ZM13 5.4L15.1 7.5L13 9.6V5.4ZM13 18.6V14.4L15.1 16.5L13 18.6Z" fill="black"/>
</svg>
