<svg width="11" height="11" viewBox="0 0 11 11" fill="none" xmlns="http://www.w3.org/2000/svg">
<path d="M5.39 4.12506H6.30667L5.29834 8.70839H4.38167L5.39 4.12506ZM6.16 2.29173C6.06935 2.29173 5.98074 2.31861 5.90537 2.36898C5.82999 2.41934 5.77125 2.49092 5.73656 2.57467C5.70187 2.65842 5.69279 2.75057 5.71048 2.83948C5.72816 2.92839 5.77181 3.01006 5.83591 3.07415C5.90001 3.13825 5.98168 3.18191 6.07058 3.19959C6.15949 3.21728 6.25165 3.2082 6.3354 3.17351C6.41915 3.13882 6.49073 3.08007 6.54109 3.0047C6.59145 2.92933 6.61833 2.84071 6.61833 2.75006C6.61833 2.62851 6.57005 2.51193 6.48409 2.42597C6.39814 2.34002 6.28156 2.29173 6.16 2.29173Z" fill="black"/>
</svg>
