<svg width="21" height="21" viewBox="0 0 21 21" fill="none" xmlns="http://www.w3.org/2000/svg">
<path fill-rule="evenodd" clip-rule="evenodd" d="M2.76745 7.1238L1.27619 9.82994L6.83601 13.7335C9.8939 15.8804 12.4086 17.6336 12.4242 17.6294C12.4399 17.6252 13.7413 14.8495 15.3162 11.4612L18.1798 5.30069L15.5352 3.70271L12.8907 2.10473L8.57469 3.26119L4.25871 4.41766L2.76745 7.1238ZM7.55647 4.61099C7.56415 4.63966 5.86533 7.35342 5.82026 7.38448C5.78864 7.4063 5.2078 5.27237 5.23343 5.22859C5.25674 5.18871 7.54804 4.57955 7.55647 4.61099ZM12.7561 4.37252C12.9351 5.01983 13.0428 5.4564 13.023 5.45468C12.9688 5.4499 10.1385 3.94756 10.131 3.91957C10.1272 3.90548 10.6488 3.75747 11.2901 3.59068L12.4561 3.28745L12.7561 4.37252ZM12.4322 6.32354C12.4423 6.33695 11.1705 6.69087 9.606 7.11008C8.0415 7.52928 6.76323 7.85907 6.76542 7.84296C6.76758 7.82683 7.24658 7.0533 7.82987 6.12402L8.89042 4.43437L10.6521 5.36678C11.6211 5.87961 12.4221 6.31015 12.4322 6.32354ZM4.97039 8.34054C4.96557 8.34883 4.51376 8.47143 3.96637 8.613L2.97115 8.8704L3.68881 7.56419L4.4065 6.25797L4.69283 7.29174C4.85035 7.86031 4.97522 8.33229 4.97039 8.34054ZM14.6816 4.37791C15.2266 4.70779 15.8023 5.05692 15.9609 5.15382L16.2494 5.32999L15.2385 5.60085L14.2277 5.87171L13.948 4.82794C13.7942 4.25387 13.6734 3.78282 13.6795 3.78117C13.6857 3.77951 14.1366 4.04803 14.6816 4.37791ZM7.36016 11.671C8.42078 12.9875 9.34578 14.1359 9.41566 14.2229C9.48616 14.3106 9.51596 14.3649 9.48258 14.3448C9.35634 14.2686 3.1754 9.91644 3.1712 9.90075C3.16877 9.89168 3.67638 9.7477 4.29928 9.58079L5.43176 9.27735L7.36016 11.671ZM13.209 7.21965C13.2224 7.26895 11.9092 15.6174 11.8871 15.6233C11.865 15.6292 6.5535 9.05589 6.54045 9.00649C6.53691 8.99304 8.03438 8.57998 9.86819 8.08861C11.702 7.59724 13.2054 7.20623 13.209 7.21965ZM16.574 6.30947C16.5782 6.32516 13.4015 13.1848 13.3302 13.3138C13.3114 13.348 13.3101 13.286 13.3272 13.1748C13.3442 13.0645 13.5712 11.6075 13.8314 9.93704L14.3046 6.89987L15.4371 6.59642C16.06 6.42952 16.5716 6.3004 16.574 6.30947Z" fill="#359766"/>
</svg>
