<svg width="32" height="32" viewBox="0 0 32 32" fill="none" xmlns="http://www.w3.org/2000/svg">
<path d="M15.9998 2.66663C14.2489 2.66663 12.515 3.0115 10.8974 3.68157C9.2797 4.35163 7.80985 5.33375 6.57173 6.57187C4.07125 9.07235 2.66649 12.4637 2.66649 16C2.65483 19.0788 3.72088 22.0647 5.67982 24.44L3.01315 27.1066C2.82814 27.2941 2.70282 27.5322 2.65298 27.7909C2.60315 28.0495 2.63105 28.3171 2.73315 28.56C2.8439 28.7999 3.02343 29.0015 3.24895 29.1391C3.47447 29.2768 3.73582 29.3444 3.99982 29.3333H15.9998C19.536 29.3333 22.9274 27.9285 25.4279 25.4281C27.9284 22.9276 29.3332 19.5362 29.3332 16C29.3332 12.4637 27.9284 9.07235 25.4279 6.57187C22.9274 4.07138 19.536 2.66663 15.9998 2.66663ZM15.9998 26.6666H7.21315L8.45316 25.4266C8.70149 25.1768 8.84088 24.8389 8.84088 24.4866C8.84088 24.1344 8.70149 23.7964 8.45316 23.5466C6.70727 21.8027 5.62005 19.5073 5.37674 17.0517C5.13343 14.596 5.74908 12.132 7.11879 10.0793C8.4885 8.02668 10.5275 6.51244 12.8885 5.79459C15.2495 5.07674 17.7863 5.1997 20.0668 6.14251C22.3473 7.08532 24.2303 8.78966 25.3951 10.9651C26.5599 13.1406 26.9343 15.6527 26.4547 18.0733C25.975 20.4939 24.6709 22.6734 22.7645 24.2403C20.8582 25.8072 18.4675 26.6647 15.9998 26.6666ZM22.6665 14.6666H9.33315C8.97953 14.6666 8.64039 14.8071 8.39035 15.0572C8.1403 15.3072 7.99982 15.6463 7.99982 16C7.99982 16.3536 8.1403 16.6927 8.39035 16.9428C8.64039 17.1928 8.97953 17.3333 9.33315 17.3333H22.6665C23.0201 17.3333 23.3593 17.1928 23.6093 16.9428C23.8593 16.6927 23.9998 16.3536 23.9998 16C23.9998 15.6463 23.8593 15.3072 23.6093 15.0572C23.3593 14.8071 23.0201 14.6666 22.6665 14.6666ZM19.9998 20H11.9998C11.6462 20 11.3071 20.1404 11.057 20.3905C10.807 20.6405 10.6665 20.9797 10.6665 21.3333C10.6665 21.6869 10.807 22.0261 11.057 22.2761C11.3071 22.5262 11.6462 22.6666 11.9998 22.6666H19.9998C20.3534 22.6666 20.6926 22.5262 20.9426 22.2761C21.1927 22.0261 21.3332 21.6869 21.3332 21.3333C21.3332 20.9797 21.1927 20.6405 20.9426 20.3905C20.6926 20.1404 20.3534 20 19.9998 20ZM11.9998 12H19.9998C20.3534 12 20.6926 11.8595 20.9426 11.6094C21.1927 11.3594 21.3332 11.0202 21.3332 10.6666C21.3332 10.313 21.1927 9.97387 20.9426 9.72382C20.6926 9.47377 20.3534 9.33329 19.9998 9.33329H11.9998C11.6462 9.33329 11.3071 9.47377 11.057 9.72382C10.807 9.97387 10.6665 10.313 10.6665 10.6666C10.6665 11.0202 10.807 11.3594 11.057 11.6094C11.3071 11.8595 11.6462 12 11.9998 12Z" fill="#4D90FF"/>
</svg>
