<svg width="16" height="16" viewBox="0 0 16 16" fill="none" xmlns="http://www.w3.org/2000/svg">
<path d="M11.8047 5.13807C12.0651 4.87772 12.0651 4.45561 11.8047 4.19526C11.5444 3.93491 11.1223 3.93491 10.8619 4.19526L4.66666 10.3905L1.80473 7.5286C1.54438 7.26825 1.12227 7.26825 0.861919 7.5286C0.601569 7.78894 0.601569 8.21106 0.861919 8.4714L4.19525 11.8047C4.4556 12.0651 4.87771 12.0651 5.13806 11.8047L11.8047 5.13807Z" fill="#359766"/>
<path d="M15.1381 5.13807C15.3984 4.87772 15.3984 4.45561 15.1381 4.19526C14.8777 3.93491 14.4556 3.93491 14.1953 4.19526L7.99685 10.3937C7.73516 10.1862 7.35375 10.2034 7.11192 10.4453C6.85157 10.7056 6.85157 11.1277 7.11192 11.3881L7.52858 11.8047C7.78893 12.0651 8.21104 12.0651 8.47139 11.8047L15.1381 5.13807Z" fill="#359766"/>
<path d="M5.55473 7.94526L5.13806 7.5286C4.87771 7.26825 4.4556 7.26825 4.19525 7.5286C3.9349 7.78894 3.9349 8.21106 4.19525 8.4714L4.61192 8.88807C4.87227 9.14842 5.29438 9.14842 5.55473 8.88807C5.81508 8.62772 5.81508 8.20561 5.55473 7.94526Z" fill="#359766"/>
</svg>
