<svg width="104" height="104" viewBox="0 0 104 104" fill="none" xmlns="http://www.w3.org/2000/svg">
<g filter="url(#filter0_d_102_11944)">
<rect x="20" y="17" width="64" height="64" rx="32" fill="white"/>
</g>
<path d="M51.9998 35.6665C50.2489 35.6665 48.515 36.0114 46.8974 36.6814C45.2797 37.3515 43.8098 38.3336 42.5717 39.5717C40.0712 42.0722 38.6665 45.4636 38.6665 48.9998C38.6548 52.0787 39.7209 55.0646 41.6798 57.4398L39.0132 60.1065C38.8281 60.294 38.7028 60.5321 38.653 60.7908C38.6032 61.0494 38.631 61.317 38.7332 61.5598C38.8439 61.7997 39.0234 62.0013 39.249 62.139C39.4745 62.2767 39.7358 62.3443 39.9998 62.3332H51.9998C55.536 62.3332 58.9274 60.9284 61.4279 58.4279C63.9284 55.9274 65.3332 52.5361 65.3332 48.9998C65.3332 45.4636 63.9284 42.0722 61.4279 39.5717C58.9274 37.0713 55.536 35.6665 51.9998 35.6665ZM51.9998 59.6665H43.2132L44.4532 58.4265C44.7015 58.1767 44.8409 57.8388 44.8409 57.4865C44.8409 57.1343 44.7015 56.7963 44.4532 56.5465C42.7073 54.8026 41.6201 52.5072 41.3767 50.0516C41.1334 47.5959 41.7491 45.1318 43.1188 43.0792C44.4885 41.0266 46.5275 39.5123 48.8885 38.7945C51.2495 38.0766 53.7863 38.1996 56.0668 39.1424C58.3473 40.0852 60.2303 41.7895 61.3951 43.965C62.5599 46.1405 62.9343 48.6526 62.4547 51.0732C61.975 53.4938 60.6709 55.6732 58.7645 57.2402C56.8582 58.8071 54.4675 59.6646 51.9998 59.6665ZM58.6665 47.6665H45.3332C44.9795 47.6665 44.6404 47.807 44.3903 48.057C44.1403 48.3071 43.9998 48.6462 43.9998 48.9998C43.9998 49.3535 44.1403 49.6926 44.3903 49.9426C44.6404 50.1927 44.9795 50.3332 45.3332 50.3332H58.6665C59.0201 50.3332 59.3593 50.1927 59.6093 49.9426C59.8593 49.6926 59.9998 49.3535 59.9998 48.9998C59.9998 48.6462 59.8593 48.3071 59.6093 48.057C59.3593 47.807 59.0201 47.6665 58.6665 47.6665ZM55.9998 52.9998H47.9998C47.6462 52.9998 47.3071 53.1403 47.057 53.3904C46.807 53.6404 46.6665 53.9795 46.6665 54.3332C46.6665 54.6868 46.807 55.0259 47.057 55.276C47.3071 55.526 47.6462 55.6665 47.9998 55.6665H55.9998C56.3534 55.6665 56.6926 55.526 56.9426 55.276C57.1927 55.0259 57.3332 54.6868 57.3332 54.3332C57.3332 53.9795 57.1927 53.6404 56.9426 53.3904C56.6926 53.1403 56.3534 52.9998 55.9998 52.9998ZM47.9998 44.9998H55.9998C56.3534 44.9998 56.6926 44.8594 56.9426 44.6093C57.1927 44.3593 57.3332 44.0201 57.3332 43.6665C57.3332 43.3129 57.1927 42.9737 56.9426 42.7237C56.6926 42.4736 56.3534 42.3332 55.9998 42.3332H47.9998C47.6462 42.3332 47.3071 42.4736 47.057 42.7237C46.807 42.9737 46.6665 43.3129 46.6665 43.6665C46.6665 44.0201 46.807 44.3593 47.057 44.6093C47.3071 44.8594 47.6462 44.9998 47.9998 44.9998Z" fill="#4D90FF"/>
<defs>
<filter id="filter0_d_102_11944" x="0" y="0" width="104" height="104" filterUnits="userSpaceOnUse" color-interpolation-filters="sRGB">
<feFlood flood-opacity="0" result="BackgroundImageFix"/>
<feColorMatrix in="SourceAlpha" type="matrix" values="0 0 0 0 0 0 0 0 0 0 0 0 0 0 0 0 0 0 127 0" result="hardAlpha"/>
<feOffset dy="3"/>
<feGaussianBlur stdDeviation="10"/>
<feColorMatrix type="matrix" values="0 0 0 0 0 0 0 0 0 0 0 0 0 0 0 0 0 0 0.301961 0"/>
<feBlend mode="normal" in2="BackgroundImageFix" result="effect1_dropShadow_102_11944"/>
<feBlend mode="normal" in="SourceGraphic" in2="effect1_dropShadow_102_11944" result="shape"/>
</filter>
</defs>
</svg>
