<svg width="20" height="20" viewBox="0 0 20 20" fill="none" xmlns="http://www.w3.org/2000/svg">
<path d="M11.9667 11.8583C11.4096 12.3074 10.7156 12.5524 10 12.5524C9.28445 12.5524 8.59043 12.3074 8.03336 11.8583C7.86318 11.7168 7.64378 11.6488 7.42342 11.6691C7.20307 11.6894 6.99981 11.7964 6.85836 11.9666C6.71691 12.1368 6.64886 12.3562 6.66917 12.5766C6.68949 12.7969 6.79651 13.0002 6.96669 13.1416C7.81781 13.8521 8.89133 14.2413 10 14.2413C11.1087 14.2413 12.1822 13.8521 13.0334 13.1416C13.2035 13.0002 13.3106 12.7969 13.3309 12.5766C13.3512 12.3562 13.2831 12.1368 13.1417 11.9666C13.0717 11.8824 12.9857 11.8127 12.8887 11.7617C12.7918 11.7106 12.6857 11.6792 12.5766 11.6691C12.3563 11.6488 12.1369 11.7168 11.9667 11.8583ZM7.50002 9.16663C7.66484 9.16663 7.82596 9.11775 7.963 9.02618C8.10004 8.93462 8.20685 8.80447 8.26992 8.6522C8.333 8.49992 8.3495 8.33237 8.31735 8.17072C8.28519 8.00907 8.20582 7.86058 8.08928 7.74404C7.97274 7.62749 7.82425 7.54813 7.6626 7.51597C7.50095 7.48382 7.33339 7.50032 7.18112 7.56339C7.02885 7.62647 6.8987 7.73328 6.80713 7.87032C6.71556 8.00736 6.66669 8.16848 6.66669 8.33329C6.66669 8.55431 6.75449 8.76627 6.91077 8.92255C7.06705 9.07883 7.27901 9.16663 7.50002 9.16663ZM12.5 7.49996C12.3352 7.49996 12.1741 7.54883 12.037 7.6404C11.9 7.73197 11.7932 7.86212 11.7301 8.01439C11.6671 8.16666 11.6505 8.33422 11.6827 8.49587C11.7149 8.65752 11.7942 8.806 11.9108 8.92255C12.0273 9.03909 12.1758 9.11846 12.3374 9.15061C12.4991 9.18277 12.6667 9.16627 12.8189 9.10319C12.9712 9.04012 13.1013 8.93331 13.1929 8.79627C13.2845 8.65923 13.3334 8.49811 13.3334 8.33329C13.3334 8.11228 13.2456 7.90032 13.0893 7.74404C12.933 7.58776 12.721 7.49996 12.5 7.49996ZM10 1.66663C8.35185 1.66663 6.74068 2.15537 5.37027 3.07105C3.99986 3.98672 2.93176 5.28821 2.30103 6.81093C1.6703 8.33365 1.50527 10.0092 1.82681 11.6257C2.14836 13.2422 2.94203 14.7271 4.10747 15.8925C5.27291 17.058 6.75776 17.8516 8.37427 18.1732C9.99078 18.4947 11.6663 18.3297 13.1891 17.699C14.7118 17.0682 16.0133 16.0001 16.9289 14.6297C17.8446 13.2593 18.3334 11.6481 18.3334 9.99996C18.3334 8.90561 18.1178 7.82198 17.699 6.81093C17.2802 5.79988 16.6664 4.88122 15.8926 4.1074C15.1188 3.33358 14.2001 2.71975 13.1891 2.30096C12.178 1.88217 11.0944 1.66663 10 1.66663ZM10 16.6666C8.68148 16.6666 7.39255 16.2756 6.29622 15.5431C5.19989 14.8105 4.34541 13.7694 3.84083 12.5512C3.33624 11.333 3.20422 9.99256 3.46146 8.69936C3.71869 7.40615 4.35363 6.21826 5.28598 5.28591C6.21833 4.35356 7.40622 3.71863 8.69942 3.46139C9.99263 3.20416 11.3331 3.33618 12.5512 3.84076C13.7694 4.34535 14.8106 5.19983 15.5432 6.29616C16.2757 7.39249 16.6667 8.68142 16.6667 9.99996C16.6667 11.7681 15.9643 13.4638 14.7141 14.714C13.4638 15.9642 11.7681 16.6666 10 16.6666Z" fill="#75839D"/>
</svg>
