<svg width="11" height="11" viewBox="0 0 11 11" fill="none" xmlns="http://www.w3.org/2000/svg">
<path d="M1.37504 5.59298H9.62502V6.28048H7.62404C7.73261 6.50838 7.7874 6.75815 7.7842 7.01056C7.79062 7.25004 7.73922 7.48753 7.63436 7.70292C7.52951 7.91832 7.37428 8.10526 7.18182 8.24792C6.71824 8.57411 6.159 8.73614 5.59285 8.7083C5.17918 8.71109 4.76954 8.62692 4.39048 8.46126C4.04431 8.31765 3.74424 8.08171 3.52302 7.77918C3.31934 7.49035 3.21186 7.14467 3.21587 6.79127V6.7393H3.34751V6.7388H3.50403V6.7393H4.1342V6.79125C4.12702 6.9523 4.15887 7.1127 4.22703 7.2588C4.29519 7.40489 4.39765 7.53235 4.52568 7.63031C4.83616 7.85137 5.2122 7.96108 5.59284 7.94164C5.92886 7.96361 6.26291 7.87575 6.54464 7.6913C6.64908 7.61407 6.73299 7.51241 6.78903 7.39523C6.84507 7.27805 6.87152 7.14891 6.86607 7.01913C6.87337 6.89375 6.85022 6.76847 6.79858 6.65398C6.74694 6.5395 6.66835 6.43921 6.56953 6.3617C6.52903 6.33236 6.48697 6.30524 6.44353 6.28046H1.37504V5.59298ZM7.49136 3.23572C7.29816 2.93552 7.02494 2.69525 6.70251 2.54198C6.34307 2.37076 5.94887 2.28507 5.55078 2.29164C4.99568 2.26782 4.44991 2.44016 4.00916 2.77845C3.81995 2.92459 3.66732 3.11274 3.56334 3.32802C3.45936 3.54331 3.40689 3.77983 3.41006 4.01889C3.40846 4.24544 3.45889 4.46934 3.55746 4.67333H4.74761C4.70939 4.64874 4.66264 4.62485 4.63179 4.5997C4.53853 4.53091 4.46283 4.44108 4.41084 4.33752C4.35885 4.23395 4.33203 4.11958 4.33258 4.0037C4.32566 3.87142 4.35073 3.73943 4.40565 3.61889C4.46058 3.49835 4.54374 3.39283 4.6481 3.31125C4.91214 3.12813 5.23002 3.03897 5.55078 3.05806C5.89954 3.03588 6.24394 3.14524 6.51603 3.36454C6.62981 3.4717 6.71893 3.60233 6.77718 3.74737C6.83543 3.89241 6.86142 4.04838 6.85336 4.20448V4.25645H7.77148V4.20448C7.77301 3.86137 7.67577 3.52506 7.49136 3.23572Z" fill="black"/>
</svg>
