<svg width="11" height="11" viewBox="0 0 11 11" fill="none" xmlns="http://www.w3.org/2000/svg">
<path d="M5.49589 1.37505C4.68022 1.37586 3.8831 1.61848 3.20529 2.07224C2.52748 2.526 1.99941 3.17052 1.68783 3.92434C1.37625 4.67815 1.29515 5.50743 1.45478 6.30733C1.61441 7.10723 2.0076 7.84185 2.58466 8.41833C3.16171 8.99481 3.89673 9.38726 4.69679 9.54609C5.49684 9.70493 6.32603 9.623 7.07954 9.31066C7.83304 8.99833 8.47704 8.46962 8.93012 7.79135C9.3832 7.11309 9.62502 6.31573 9.62502 5.50005C9.62529 4.95793 9.51864 4.42107 9.31117 3.92021C9.10371 3.41935 8.79951 2.96433 8.41597 2.58118C8.03244 2.19803 7.57711 1.89428 7.07605 1.68732C6.57498 1.48035 6.03802 1.37424 5.49589 1.37505ZM5.50002 8.70839C4.86547 8.70839 4.24517 8.52022 3.71756 8.16769C3.18995 7.81515 2.77873 7.31408 2.5359 6.72783C2.29307 6.14158 2.22953 5.49649 2.35333 4.87414C2.47712 4.25178 2.78269 3.68011 3.23138 3.23142C3.68007 2.78272 4.25175 2.47716 4.8741 2.35336C5.49646 2.22957 6.14155 2.2931 6.7278 2.53594C7.31404 2.77877 7.81512 3.18999 8.16765 3.7176C8.52019 4.2452 8.70835 4.8655 8.70835 5.50005C8.70847 5.92141 8.62556 6.33866 8.46437 6.72797C8.30318 7.11727 8.06686 7.471 7.76891 7.76895C7.47097 8.06689 7.11724 8.30321 6.72793 8.4644C6.33863 8.6256 5.92137 8.7085 5.50002 8.70839ZM6.92314 6.32505H7.61202C7.4463 6.75038 7.15602 7.11577 6.77918 7.37338C6.40233 7.63098 5.95649 7.76881 5.50002 7.76881C5.04354 7.76881 4.5977 7.63098 4.22086 7.37338C3.84402 7.11577 3.55374 6.75038 3.38802 6.32505H4.07689C4.22043 6.57572 4.42764 6.78402 4.67754 6.92888C4.92744 7.07375 5.21116 7.15005 5.50002 7.15005C5.78887 7.15005 6.0726 7.07375 6.3225 6.92888C6.5724 6.78402 6.7796 6.57572 6.92314 6.32505ZM3.43752 4.4688C3.43752 4.34642 3.4738 4.22679 3.54179 4.12504C3.60978 4.02329 3.70642 3.94398 3.81948 3.89715C3.93254 3.85032 4.05695 3.83806 4.17698 3.86194C4.297 3.88581 4.40726 3.94474 4.49379 4.03128C4.58032 4.11781 4.63925 4.22806 4.66313 4.34809C4.687 4.46811 4.67475 4.59252 4.62792 4.70559C4.58109 4.81865 4.50178 4.91528 4.40003 4.98327C4.29827 5.05126 4.17864 5.08755 4.05627 5.08755C3.89216 5.08755 3.73478 5.02236 3.61874 4.90632C3.50271 4.79029 3.43752 4.6329 3.43752 4.4688ZM6.32502 4.4688C6.32502 4.34642 6.36131 4.22679 6.4293 4.12504C6.49729 4.02329 6.59392 3.94398 6.70698 3.89715C6.82005 3.85032 6.94446 3.83806 7.06448 3.86194C7.18451 3.88581 7.29476 3.94474 7.38129 4.03128C7.46783 4.11781 7.52676 4.22806 7.55063 4.34809C7.5745 4.46811 7.56225 4.59252 7.51542 4.70559C7.46859 4.81865 7.38928 4.91528 7.28753 4.98327C7.18577 5.05126 7.06615 5.08755 6.94377 5.08755C6.77967 5.08755 6.62228 5.02236 6.50625 4.90632C6.39021 4.79029 6.32502 4.6329 6.32502 4.4688Z" fill="black"/>
</svg>
