<svg width="31" height="32" viewBox="0 0 31 32" fill="none" xmlns="http://www.w3.org/2000/svg">
<path d="M27.1913 26.3423C14.0056 32.628 5.82245 27.3689 0.584153 24.1746C0.260009 23.9733 -0.290922 24.2217 0.187086 24.7717C1.93223 26.8912 7.65142 32 15.1166 32C22.587 32 27.0311 27.917 27.5871 27.2047C28.1393 26.4985 27.7493 26.1089 27.1913 26.3423ZM30.8944 24.2937C30.5403 23.8319 28.7413 23.7458 27.6091 23.8851C26.4752 24.0204 24.7731 24.7146 24.9211 25.1314C24.9971 25.2875 25.152 25.2175 25.931 25.1473C26.7121 25.0692 28.9003 24.7926 29.3563 25.3897C29.8144 25.9908 28.6584 28.8547 28.4472 29.3165C28.2433 29.7784 28.5252 29.8975 28.9083 29.5899C29.2862 29.2824 29.9704 28.4861 30.4294 27.3591C30.8854 26.226 31.1636 24.6454 30.8944 24.2937Z" fill="#FF9900"/>
<path fill-rule="evenodd" clip-rule="evenodd" d="M18.3254 13.5161C18.3254 15.1654 18.3669 16.5409 17.5347 18.0056C16.863 19.1965 15.799 19.9288 14.6102 19.9288C12.9873 19.9288 12.0422 18.6903 12.0422 16.8624C12.0422 13.2541 15.2699 12.5992 18.3254 12.5992V13.5161ZM22.5873 23.8349C22.3079 24.0849 21.9037 24.1028 21.5887 23.936C20.1859 22.7691 19.9362 22.2272 19.1635 21.1137C16.8452 23.4836 15.2046 24.1921 12.1968 24.1921C8.64214 24.1921 5.87207 21.9949 5.87207 17.5948C5.87207 14.1592 7.73273 11.8192 10.3778 10.676C12.6723 9.6637 15.8763 9.4851 18.3254 9.20534V8.6575C18.3254 7.65119 18.4025 6.46037 17.8141 5.59111C17.2969 4.81108 16.3102 4.48953 15.4423 4.48953C13.8314 4.48953 12.3929 5.31712 12.0422 7.03193C11.9708 7.4131 11.6915 7.78824 11.3111 7.80606L7.20949 7.36553C6.8648 7.28797 6.4844 7.00821 6.5795 6.47819C7.52461 1.50057 12.0124 0 16.0307 0C18.0874 0 20.7742 0.54784 22.397 2.1079C24.4538 4.03105 24.2575 6.5973 24.2575 9.38984V15.9871C24.2575 17.9699 25.0779 18.8392 25.8506 19.911C26.124 20.292 26.1835 20.7507 25.8387 21.0363C24.9767 21.7567 23.4431 23.0965 22.5991 23.8468L22.5873 23.8349Z" fill="black"/>
</svg>
