<svg width="47" height="8" viewBox="0 0 47 8" fill="none" xmlns="http://www.w3.org/2000/svg">
<path fill-rule="evenodd" clip-rule="evenodd" d="M44.499 4.67486C44.8481 4.54025 46.032 3.98799 46.032 2.41426C46.032 1.27582 45.1747 0 43.324 0H40.927V7.99971H42.5778V4.83982H42.6621L45.0276 7.99971H47L44.499 4.67486ZM43.4962 3.31022H42.5113V1.65511H43.4962C44.0171 1.65511 44.3596 2.01813 44.3596 2.48267C44.3596 2.88845 44.0702 3.31022 43.4962 3.31022ZM37.0979 6.48252V5.37911H38.8142V3.99985H37.0979V2.89645H39.3423V1.37926H35.6457V7.99971H39.3423V6.48252H37.0979ZM32.6092 7.99971V2.89645H34.0614V1.37926H29.5727V2.89645H31.0249L31.0197 7.99971H32.6092ZM26.0631 7.99971C24.632 7.99971 23.8882 7.17574 23.7638 7.05078L24.5675 5.88006C24.6932 5.99399 25.263 6.51204 26.0145 6.51204C26.5249 6.51204 26.6727 6.26101 26.6727 6.05964C26.6727 5.8511 26.5201 5.66572 25.9815 5.45939L25.507 5.2776C24.633 4.94299 24.0772 4.31653 24.0772 3.38636C24.0772 2.24544 24.9668 1.37926 26.2299 1.37926C27.3685 1.37926 28.0062 1.94145 28.0767 2.00489L27.3241 3.21037C27.1699 3.10196 26.7448 2.8639 26.274 2.8639C25.8331 2.8639 25.6324 3.05699 25.6324 3.28871C25.6324 3.59021 25.8936 3.71849 26.358 3.89641L26.7873 4.06082C27.6867 4.40563 28.2525 5.11292 28.2525 5.95978C28.2525 7.1225 27.3582 7.99971 26.0631 7.99971ZM22.1795 1.37926H20.5953V4.68948L16.8987 1.37926V7.99971H18.483V4.82741L22.1795 7.99971V1.37926Z" fill="#6E46AE"/>
<path fill-rule="evenodd" clip-rule="evenodd" d="M12.1459 1.37926C10.3747 1.37926 8.97743 2.86141 8.97743 4.68949C8.97743 6.51783 10.3747 7.99971 12.1459 7.99971C13.9171 7.99971 15.3145 6.51783 15.3145 4.68949C15.3145 2.86141 13.9171 1.37926 12.1459 1.37926ZM12.1459 6.44998C11.2126 6.44998 10.4941 5.66187 10.4941 4.68949C10.4941 3.71711 11.2123 2.92872 12.1459 2.92872C13.0796 2.92872 13.7978 3.71711 13.7978 4.68949C13.7978 5.66187 13.0796 6.44998 12.1459 6.44998Z" fill="#00B6B4"/>
<path fill-rule="evenodd" clip-rule="evenodd" d="M1.64498 7.99972V3.97283L3.69659 6.03786L5.74846 3.97283V7.99972H7.39318V0L3.69685 3.71877L0 0.000275853V8L1.64498 7.99972Z" fill="#6E46AE"/>
</svg>
