<svg width="16" height="16" viewBox="0 0 16 16" fill="none" xmlns="http://www.w3.org/2000/svg">
<path d="M10.1767 5.82334C9.44708 5.09375 8.26008 5.09375 7.5305 5.82334L2.17011 11.1837C1.9433 11.4105 1.9433 11.778 2.17011 12.0048L3.99521 13.8299C4.10862 13.9433 4.25718 14 4.40575 14C4.55431 14 4.70287 13.9433 4.81628 13.8299L10.1767 8.46951C10.9062 7.73992 10.9062 6.55292 10.1767 5.82334ZM4.40575 12.5983L3.40171 11.5943L6.96913 8.02684L7.97316 9.03087L4.40575 12.5983ZM9.35559 7.64844L8.79423 8.20981L7.79019 7.20577L8.35156 6.64441C8.61996 6.37676 9.0872 6.37676 9.35559 6.64441C9.48941 6.7786 9.56351 6.95665 9.56351 7.14642C9.56351 7.33619 9.48942 7.51424 9.35559 7.64844ZM11.2143 5.36631C11.3629 5.36631 11.5115 5.3096 11.6249 5.1962L12.4837 4.33733C12.7106 4.11051 12.7106 3.74307 12.4837 3.51626C12.2569 3.28945 11.8895 3.28944 11.6627 3.51626L10.8038 4.37513C10.577 4.60194 10.577 4.96938 10.8038 5.1962C10.9172 5.3096 11.0658 5.36631 11.2143 5.36631ZM9.40436 3.79561V2.58065C9.40436 2.26008 9.14428 2 8.82372 2C8.50315 2 8.24307 2.26008 8.24307 2.58065V3.79561C8.24307 4.11618 8.50315 4.37626 8.82372 4.37626C9.14428 4.37626 9.40436 4.11618 9.40436 3.79561ZM6.43347 5.36631C6.58203 5.36631 6.7306 5.3096 6.84401 5.1962C7.07082 4.96938 7.07082 4.60157 6.84401 4.37513L5.98476 3.51626C5.75794 3.28944 5.3905 3.28944 5.16369 3.51626C4.93688 3.74307 4.93687 4.11089 5.16369 4.33733L6.02294 5.1962C6.13634 5.3096 6.28491 5.36631 6.43347 5.36631ZM11.6249 9.156C11.3981 8.92918 11.0306 8.92918 10.8038 9.156C10.577 9.38243 10.577 9.75025 10.8038 9.97707L11.6627 10.8363C11.7761 10.9497 11.9247 11.0064 12.0732 11.0064C12.2218 11.0064 12.3703 10.9497 12.4837 10.8363C12.7106 10.6099 12.7106 10.2421 12.4837 10.0152L11.6249 9.156ZM13.4194 6.59564H12.2044C11.8838 6.59564 11.6237 6.85572 11.6237 7.17629C11.6237 7.49685 11.8838 7.75693 12.2044 7.75693H13.4194C13.7399 7.75693 14 7.49685 14 7.17629C14 6.85572 13.7399 6.59564 13.4194 6.59564Z" fill="white"/>
</svg>
