<svg width="24" height="24" viewBox="0 0 24 24" fill="none" xmlns="http://www.w3.org/2000/svg">
<path d="M12.3517 21.3587L12.3381 21.3689L12.325 21.38C12.2344 21.4575 12.1192 21.5001 12 21.5001C11.8812 21.5001 11.7662 21.4577 11.6758 21.3807C11.5218 21.2472 9.71734 19.6835 7.95174 17.4937C6.15938 15.2706 4.5 12.5141 4.5 10C4.5 8.01088 5.29018 6.10322 6.6967 4.6967C8.10322 3.29018 10.0109 2.5 12 2.5C13.9891 2.5 15.8968 3.29018 17.3033 4.6967C18.7098 6.10322 19.5 8.01088 19.5 10C19.5 12.5152 17.8519 15.2722 16.0665 17.4943C15.1848 18.5917 14.291 19.5327 13.5958 20.2154C13.2484 20.5566 12.9516 20.8323 12.732 21.0297C12.6222 21.1285 12.5322 21.2072 12.4653 21.2644C12.4318 21.293 12.4047 21.3157 12.3843 21.3325L12.36 21.3522C12.355 21.3562 12.3525 21.3581 12.3519 21.3586C12.3518 21.3587 12.3517 21.3587 12.3517 21.3587ZM11.6577 20.0145L11.9991 20.3351L12.3413 20.0154C13.4234 19.0044 14.9484 17.4014 16.2071 15.6198C17.4513 13.8587 18.5 11.8344 18.5 10C18.5 8.27609 17.8152 6.62279 16.5962 5.40381C15.3772 4.18482 13.7239 3.5 12 3.5C10.2761 3.5 8.62279 4.18482 7.40381 5.40381C6.18482 6.62279 5.5 8.27609 5.5 10C5.5 11.8345 6.54879 13.8564 7.79298 15.6162C9.05171 17.3965 10.5765 18.9992 11.6577 20.0145ZM10.0555 7.08986C10.6311 6.70527 11.3078 6.5 12 6.5C12.9283 6.5 13.8185 6.86875 14.4749 7.52513C15.1313 8.1815 15.5 9.07174 15.5 10C15.5 10.6922 15.2947 11.3689 14.9101 11.9445C14.5256 12.5201 13.9789 12.9687 13.3394 13.2336C12.6999 13.4985 11.9961 13.5678 11.3172 13.4327C10.6383 13.2977 10.0146 12.9644 9.52513 12.4749C9.03564 11.9854 8.7023 11.3617 8.56725 10.6828C8.4322 10.0039 8.50151 9.30015 8.76642 8.66061C9.03133 8.02107 9.47993 7.47444 10.0555 7.08986ZM10.6111 12.0787C11.0222 12.3534 11.5055 12.5 12 12.5C12.663 12.5 13.2989 12.2366 13.7678 11.7678C14.2366 11.2989 14.5 10.663 14.5 10C14.5 9.50555 14.3534 9.0222 14.0787 8.61107C13.804 8.19995 13.4135 7.87952 12.9567 7.6903C12.4999 7.50108 11.9972 7.45157 11.5123 7.54804C11.0273 7.6445 10.5819 7.8826 10.2322 8.23223C9.8826 8.58186 9.6445 9.02732 9.54804 9.51227C9.45157 9.99723 9.50108 10.4999 9.6903 10.9567C9.87952 11.4135 10.2 11.804 10.6111 12.0787Z" fill="#75839D" stroke="#75839D"/>
</svg>
