<svg width="21" height="21" viewBox="0 0 21 21" fill="none" xmlns="http://www.w3.org/2000/svg">
<path fill-rule="evenodd" clip-rule="evenodd" d="M2.76747 7.12383L1.2762 9.82998L6.83604 13.7335C9.89394 15.8805 12.4087 17.6336 12.4243 17.6295C12.4399 17.6253 13.7413 14.8496 15.3163 11.4613L18.1799 5.30071L15.5353 3.70273L12.8907 2.10474L8.57473 3.26121L4.25873 4.41768L2.76747 7.12383ZM7.5565 4.61101C7.56418 4.63968 5.86535 7.35345 5.82028 7.38451C5.78866 7.40634 5.20782 5.2724 5.23345 5.22861C5.25677 5.18873 7.54808 4.57957 7.5565 4.61101ZM12.7562 4.37254C12.9352 5.01985 13.0429 5.45642 13.0231 5.4547C12.9689 5.44992 10.1385 3.94758 10.131 3.91959C10.1273 3.9055 10.6489 3.75748 11.2901 3.59069L12.4561 3.28746L12.7562 4.37254ZM12.4322 6.32357C12.4424 6.33698 11.1705 6.6909 9.60604 7.11011C8.04153 7.52932 6.76326 7.8591 6.76545 7.84299C6.76761 7.82686 7.24661 7.05333 7.82991 6.12405L8.89046 4.43439L10.6522 5.3668C11.6212 5.87964 12.4222 6.31018 12.4322 6.32357ZM4.97042 8.34058C4.96559 8.34886 4.51378 8.47147 3.96638 8.61303L2.97116 8.87044L3.68882 7.56422L4.40652 6.258L4.69285 7.29177C4.85037 7.86034 4.97525 8.33233 4.97042 8.34058ZM14.6817 4.37792C15.2267 4.70781 15.8023 5.05694 15.961 5.15384L16.2495 5.33001L15.2386 5.60087L14.2277 5.87173L13.9481 4.82796C13.7942 4.25389 13.6734 3.78284 13.6796 3.78119C13.6858 3.77953 14.1367 4.04805 14.6817 4.37792ZM7.36019 11.6711C8.42081 12.9876 9.34582 14.1359 9.4157 14.223C9.4862 14.3107 9.516 14.365 9.48262 14.3449C9.35638 14.2687 3.17542 9.91648 3.17121 9.9008C3.16878 9.89173 3.6764 9.74774 4.2993 9.58084L5.43178 9.27739L7.36019 11.6711ZM13.2091 7.21968C13.2225 7.26899 11.9092 15.6174 11.8872 15.6234C11.8651 15.6293 6.55353 9.05593 6.54047 9.00653C6.53694 8.99308 8.03442 8.58001 9.86824 8.08864C11.7021 7.59727 13.2054 7.20626 13.2091 7.21968ZM16.5741 6.3095C16.5783 6.32519 13.4015 13.1848 13.3303 13.3139C13.3115 13.348 13.3101 13.2861 13.3273 13.1748C13.3443 13.0645 13.5712 11.6076 13.8315 9.93709L14.3047 6.8999L15.4372 6.59645C16.0601 6.42954 16.5717 6.30043 16.5741 6.3095Z" fill="#0061FF"/>
</svg>
