<svg width="32" height="32" viewBox="0 0 32 32" fill="none" xmlns="http://www.w3.org/2000/svg">
<path d="M12 10.3335C12 6.6668 8.56004 4.32014 8.41337 4.2268C8.19288 4.07777 7.93284 3.99813 7.66671 3.99813C7.40057 3.99813 7.14053 4.07777 6.92004 4.2268C6.77337 4.33347 3.33337 6.6668 3.33337 10.3335C3.33337 11.4827 3.78992 12.5849 4.60258 13.3976C5.41524 14.2103 6.51744 14.6668 7.66671 14.6668C8.81598 14.6668 9.91818 14.2103 10.7308 13.3976C11.5435 12.5849 12 11.4827 12 10.3335ZM7.66671 12.0001C7.22468 12.0001 6.80076 11.8245 6.4882 11.512C6.17564 11.1994 6.00004 10.7755 6.00004 10.3335C6.10976 9.06931 6.70758 7.89759 7.66671 7.0668C8.63156 7.8931 9.23065 9.06731 9.33337 10.3335C9.33337 10.7755 9.15778 11.1994 8.84522 11.512C8.53266 11.8245 8.10873 12.0001 7.66671 12.0001ZM15.7467 13.5601C15.5262 13.4111 15.2662 13.3315 15 13.3315C14.7339 13.3315 14.4739 13.4111 14.2534 13.5601C14.0267 13.7201 8.66671 17.4268 8.66671 23.0001C8.66671 24.6798 9.33397 26.2907 10.5217 27.4785C11.7094 28.6662 13.3203 29.3335 15 29.3335C16.6797 29.3335 18.2907 28.6662 19.4784 27.4785C20.6661 26.2907 21.3334 24.6798 21.3334 23.0001C21.3334 17.3335 16 13.7068 15.7467 13.5601ZM15 26.6668C14.5185 26.6668 14.0417 26.572 13.5969 26.3877C13.152 26.2034 12.7478 25.9333 12.4073 25.5929C12.0668 25.2524 11.7967 24.8482 11.6125 24.4033C11.4282 23.9584 11.3334 23.4817 11.3334 23.0001C11.3334 19.9201 13.7467 17.4401 15.0134 16.3335C16.2667 17.3868 18.6667 19.8401 18.6667 23.0001C18.6667 23.4817 18.5719 23.9584 18.3876 24.4033C18.2033 24.8482 17.9332 25.2524 17.5928 25.5929C17.2523 25.9333 16.8481 26.2034 16.4032 26.3877C15.9584 26.572 15.4816 26.6668 15 26.6668ZM24.08 2.89347C23.8595 2.74444 23.5995 2.66479 23.3334 2.66479C23.0672 2.66479 22.8072 2.74444 22.5867 2.89347C22.4 3.0268 18 6.0668 18 10.6668C18 12.0813 18.5619 13.4378 19.5621 14.438C20.5623 15.4382 21.9189 16.0001 23.3334 16.0001C24.7479 16.0001 26.1044 15.4382 27.1046 14.438C28.1048 13.4378 28.6667 12.0813 28.6667 10.6668C28.6667 6.01347 24.2667 3.01347 24.08 2.89347ZM23.3334 13.3335C22.6261 13.3335 21.9479 13.0525 21.4478 12.5524C20.9477 12.0523 20.6667 11.374 20.6667 10.6668C20.7581 9.70403 21.0411 8.76925 21.499 7.91745C21.957 7.06565 22.5807 6.31403 23.3334 5.7068C24.0889 6.31144 24.7145 7.06243 25.1728 7.91473C25.631 8.76704 25.9124 9.70311 26 10.6668C26 11.374 25.7191 12.0523 25.219 12.5524C24.7189 13.0525 24.0406 13.3335 23.3334 13.3335Z" fill="#75839D"/>
</svg>
