<svg width="11" height="11" viewBox="0 0 11 11" fill="none" xmlns="http://www.w3.org/2000/svg">
<path d="M6.50829 5.04171L8.24995 7.33338H2.74996L4.12496 5.54588L5.08746 6.78338L6.41662 5.04171H6.50829ZM3.89579 5.04171C4.26246 5.04171 4.58329 4.72088 4.58329 4.35421C4.58329 3.98755 4.26246 3.66672 3.89579 3.66672C3.52913 3.66672 3.20829 3.98755 3.20829 4.35421C3.20829 4.72088 3.52913 5.04171 3.89579 5.04171ZM10.0833 2.75005V8.25004C10.0833 8.75421 9.67078 9.16671 9.16662 9.16671H1.83329C1.32913 9.16671 0.91663 8.75421 0.91663 8.25004V2.75005C0.91663 2.24589 1.32913 1.83339 1.83329 1.83339H9.16662C9.67078 1.83339 10.0833 2.24589 10.0833 2.75005ZM9.16662 4.03338V2.75005H1.83329V8.25004H9.16662V4.03338Z" fill="black"/>
</svg>
