<svg width="14" height="13" viewBox="0 0 14 13" fill="none" xmlns="http://www.w3.org/2000/svg">
<path d="M6.31492 0.357946C6.46999 -0.119329 7.14521 -0.119327 7.30028 0.357947L8.5522 4.21096C8.62156 4.4244 8.82046 4.56891 9.04489 4.56891H13.0962C13.598 4.56891 13.8067 5.21108 13.4007 5.50605L10.1231 7.88735C9.94155 8.01926 9.86557 8.25309 9.93492 8.46653L11.1868 12.3195C11.3419 12.7968 10.7957 13.1937 10.3897 12.8987L7.1121 10.5174C6.93053 10.3855 6.68467 10.3855 6.50311 10.5174L3.22554 12.8987C2.81954 13.1937 2.27328 12.7968 2.42836 12.3195L3.68028 8.46653C3.74963 8.25309 3.67366 8.01926 3.49209 7.88735L0.214522 5.50605C-0.191472 5.21108 0.0171828 4.56891 0.519019 4.56891H4.57031C4.79474 4.56891 4.99365 4.4244 5.063 4.21096L6.31492 0.357946Z" fill="#0061FF"/>
</svg>
