<svg width="17" height="26" viewBox="0 0 17 26" fill="none" xmlns="http://www.w3.org/2000/svg">
<g clip-path="url(#clip0_0_411)">
<path d="M4.25086 26C6.59639 26 8.50001 24.0586 8.50001 21.6666V17.3333H4.25086C1.90533 17.3333 0.00170898 19.2746 0.00170898 21.6666C0.00170898 24.0586 1.90533 26 4.25086 26Z" fill="#0ACF83"/>
<path d="M0.00170898 13C0.00170898 10.608 1.90533 8.66669 4.25086 8.66669H8.50001V17.3333H4.25086C1.90533 17.3333 0.00170898 15.392 0.00170898 13Z" fill="#A259FF"/>
<path d="M0.00170898 4.33333C0.00170898 1.94133 1.90533 0 4.25086 0H8.50001V8.66667H4.25086C1.90533 8.66667 0.00170898 6.72533 0.00170898 4.33333Z" fill="#F24E1E"/>
<path d="M8.5 0H12.7492C15.0947 0 16.9983 1.94133 16.9983 4.33333C16.9983 6.72533 15.0947 8.66667 12.7492 8.66667H8.5V0Z" fill="#FF7262"/>
<path d="M16.9983 13C16.9983 15.392 15.0947 17.3333 12.7492 17.3333C10.4036 17.3333 8.5 15.392 8.5 13C8.5 10.608 10.4036 8.66669 12.7492 8.66669C15.0947 8.66669 16.9983 10.608 16.9983 13Z" fill="#1ABCFE"/>
</g>
<defs>
<clipPath id="clip0_0_411">
<rect width="17" height="26" fill="white"/>
</clipPath>
</defs>
</svg>
