<svg width="24" height="24" viewBox="0 0 24 24" fill="none" xmlns="http://www.w3.org/2000/svg">
<path d="M21 11.85C21 13.05 20.0625 13.6875 18.75 13.6875H14.9625C15.225 14.7 15.375 15.675 15.375 16.5C15.375 19.7625 14.475 20.4375 13.6875 20.4375C13.1625 20.4375 12.7875 20.4 12.2625 20.0625C12.1125 19.9875 12.0375 19.8375 12 19.6875L11.4375 16.65C10.8375 15.0375 9.3 13.65 8.0625 12.7125V4.6875C8.475 4.6875 9 4.4625 9.4875 4.2C10.0875 3.90001 10.725 3.6 11.4375 3.6H16.8C17.925 3.6 18.75 4.5 18.75 5.2875C18.75 5.4375 18.75 5.5875 18.7125 5.7C19.425 5.9625 19.875 6.5625 19.875 7.2375C19.875 7.575 19.8 7.875 19.6875 8.1C20.1 8.4 20.55 8.8875 20.55 9.4875C20.55 9.7875 20.4 10.1625 20.175 10.425C20.6625 10.8 21 11.325 21 11.85ZM19.8375 11.85C19.8375 11.1375 19.0875 11.0625 18.975 10.725C18.8625 10.35 19.425 10.2 19.425 9.525C19.425 8.8125 18.5625 8.8125 18.45 8.475C18.3 8.0625 18.7125 7.9125 18.7125 7.2375C18.7125 7.2 18.7125 7.1625 18.7125 7.125C18.6 6.5625 17.7375 6.525 17.5875 6.3C17.4375 6.0375 17.625 5.8875 17.625 5.2875C17.625 4.95 17.25 4.725 16.8 4.725H11.4375C11.025 4.725 10.5 4.95 10.0125 5.2125C9.5625 5.4375 9.1125 5.6625 8.625 5.775V11.7375C10.0125 12.7875 11.8125 14.4 12.525 16.35C12.525 16.3875 12.525 16.425 12.5625 16.425L13.0875 19.2375C13.275 19.3125 13.425 19.3125 13.725 19.3125C13.8375 19.3125 14.2875 18.6375 14.2875 16.5C14.2875 15.675 14.1375 14.7375 13.8375 13.6875H13.6875C13.3875 13.6875 13.125 13.425 13.125 13.125C13.125 12.825 13.3875 12.5625 13.6875 12.5625H18.75C19.3125 12.5625 19.8375 12.3 19.8375 11.85Z" fill="#75839D" stroke="#75839D" stroke-width="0.5"/>
<path d="M7.5 3.5625H4.125C3.4875 3.5625 3 4.05 3 4.6875V12.5625C3 13.2 3.4875 13.6875 4.125 13.6875H7.5C8.1375 13.6875 8.625 13.2 8.625 12.5625V4.6875C8.625 4.05 8.1375 3.5625 7.5 3.5625ZM4.125 12.5625V4.6875H7.5V12.5625H4.125Z" fill="#75839D" stroke="#75839D" stroke-width="0.5"/>
</svg>
