<svg width="36" height="24" viewBox="0 0 36 24" fill="none" xmlns="http://www.w3.org/2000/svg">
<path fill-rule="evenodd" clip-rule="evenodd" d="M10.1829 15.241H8.58281C8.47332 15.241 8.38019 15.3183 8.36312 15.4234L7.71597 19.4125C7.70311 19.4912 7.76581 19.5621 7.84793 19.5621H8.61182C8.72131 19.5621 8.81444 19.4848 8.83151 19.3795L9.00605 18.3036C9.02289 18.1982 9.11624 18.121 9.22551 18.121H9.73203C10.786 18.121 11.3943 17.6251 11.5533 16.6424C11.6248 16.2125 11.5563 15.8748 11.3492 15.6381C11.1218 15.3784 10.7184 15.241 10.1829 15.241ZM10.3675 16.6979C10.28 17.2561 9.8413 17.2561 9.41713 17.2561H9.17567L9.34506 16.2136C9.35512 16.1507 9.41127 16.1042 9.47678 16.1042H9.58745C9.87639 16.1042 10.149 16.1042 10.2898 16.2643C10.3738 16.3599 10.3995 16.5018 10.3675 16.6979ZM14.9658 16.68H14.1996C14.1343 16.68 14.0779 16.7264 14.0679 16.7895L14.034 16.9978L13.9804 16.9223C13.8145 16.6882 13.4446 16.61 13.0754 16.61C12.2287 16.61 11.5055 17.2335 11.3646 18.1081C11.2915 18.5443 11.3955 18.9615 11.6501 19.2524C11.8836 19.5199 12.2177 19.6314 12.6152 19.6314C13.2974 19.6314 13.6758 19.2049 13.6758 19.2049L13.6416 19.4119C13.6287 19.4911 13.6914 19.562 13.773 19.562H14.4633C14.573 19.562 14.6656 19.4847 14.6829 19.3794L15.0971 16.8297C15.1102 16.7513 15.0477 16.68 14.9658 16.68ZM13.8978 18.1299C13.8238 18.5555 13.4764 18.8412 13.0333 18.8412C12.8108 18.8412 12.6329 18.7718 12.5188 18.6403C12.4056 18.5098 12.3625 18.3239 12.3985 18.117C12.4676 17.695 12.8209 17.4 13.2572 17.4C13.4747 17.4 13.6517 17.4702 13.7682 17.6029C13.8849 17.7369 13.9312 17.9238 13.8978 18.1299ZM18.2767 16.6799H19.0467C19.1545 16.6799 19.2174 16.7975 19.1562 16.8835L16.5952 20.4774C16.5538 20.5356 16.4854 20.5702 16.4125 20.5702H15.6434C15.5351 20.5702 15.4719 20.4517 15.5346 20.3655L16.332 19.2712L15.4839 16.8514C15.4546 16.7673 15.5185 16.6799 15.6105 16.6799H16.3671C16.4654 16.6799 16.5521 16.7427 16.5805 16.8341L17.0306 18.2956L18.0926 16.7748C18.1342 16.7154 18.2033 16.6799 18.2767 16.6799Z" fill="#253B80"/>
<path fill-rule="evenodd" clip-rule="evenodd" d="M26.625 19.4124L27.2817 15.3504C27.2918 15.2874 27.348 15.2409 27.4132 15.2407H28.1525C28.2342 15.2407 28.2968 15.3119 28.284 15.3906L27.6364 19.3795C27.6195 19.4847 27.5264 19.5621 27.4167 19.5621H26.7565C26.6748 19.5621 26.6122 19.4912 26.625 19.4124ZM21.596 15.2409H19.9956C19.8864 15.2409 19.7932 15.3183 19.7761 15.4234L19.129 19.4124C19.1161 19.4912 19.1788 19.5621 19.2606 19.5621H20.0817C20.158 19.5621 20.2233 19.508 20.2352 19.4343L20.4188 18.3036C20.4357 18.1982 20.5291 18.1209 20.6383 18.1209H21.1446C22.1988 18.1209 22.807 17.625 22.966 16.6424C23.0378 16.2125 22.9688 15.8747 22.7618 15.6381C22.5346 15.3784 22.1315 15.2409 21.596 15.2409ZM21.7806 16.6979C21.6933 17.2561 21.2546 17.2561 20.8302 17.2561H20.5889L20.7586 16.2136C20.7687 16.1506 20.8243 16.1042 20.89 16.1042H21.0007C21.2894 16.1042 21.5623 16.1042 21.703 16.2643C21.7871 16.3599 21.8126 16.5018 21.7806 16.6979ZM26.3785 16.68H25.6128C25.547 16.68 25.4911 16.7264 25.4813 16.7895L25.4474 16.9978L25.3936 16.9223C25.2277 16.6882 24.8581 16.61 24.4888 16.61C23.6421 16.61 22.9191 17.2335 22.7783 18.1081C22.7053 18.5443 22.8089 18.9615 23.0635 19.2524C23.2974 19.5199 23.6311 19.6314 24.0286 19.6314C24.7108 19.6314 25.0891 19.2048 25.0891 19.2048L25.055 19.4119C25.0421 19.491 25.1048 19.562 25.187 19.562H25.8769C25.9861 19.562 26.0792 19.4846 26.0963 19.3794L26.5107 16.8297C26.5234 16.7513 26.4607 16.68 26.3785 16.68ZM25.3105 18.1299C25.237 18.5555 24.8891 18.8412 24.446 18.8412C24.2239 18.8412 24.0457 18.7718 23.9315 18.6403C23.8182 18.5098 23.7757 18.3239 23.8113 18.1169C23.8807 17.6949 24.2335 17.4 24.6699 17.4C24.8875 17.4 25.0643 17.4702 25.1809 17.6028C25.2981 17.7368 25.3444 17.9238 25.3105 18.1299Z" fill="#179BD7"/>
<path d="M16.1044 13.8139L16.3011 12.5992L15.8629 12.5893H13.7706L15.2247 3.62547C15.2291 3.5984 15.2438 3.57317 15.2653 3.55526C15.2867 3.53734 15.3142 3.52747 15.3428 3.52747H18.8708C20.0421 3.52747 20.8503 3.76442 21.2724 4.23212C21.4702 4.45153 21.5962 4.68081 21.6572 4.93312C21.721 5.19788 21.7222 5.51419 21.6598 5.89998L21.6552 5.92813V6.17532L21.8531 6.2843C22.0198 6.37023 22.1521 6.4686 22.2536 6.58123C22.423 6.76882 22.5324 7.00724 22.5787 7.28991C22.6264 7.58062 22.6106 7.92655 22.5324 8.31819C22.4421 8.76871 22.2962 9.16108 22.0991 9.48214C21.9178 9.77798 21.6868 10.0233 21.4127 10.2135C21.1509 10.3941 20.8398 10.5313 20.4882 10.6191C20.1473 10.7053 19.7588 10.7489 19.3327 10.7489H19.0581C18.8618 10.7489 18.671 10.8176 18.5214 10.9409C18.3714 11.0667 18.272 11.2385 18.2415 11.4265L18.2209 11.5358L17.8733 13.6768L17.8575 13.7554C17.8534 13.7804 17.8462 13.7928 17.8357 13.8012C17.8263 13.8088 17.8128 13.8139 17.7996 13.8139H16.1044Z" fill="#253B80"/>
<path d="M22.0404 5.95679C22.0299 6.02224 22.0179 6.08916 22.0044 6.1579C21.539 8.48032 19.9473 9.28262 17.9143 9.28262H16.8793C16.6307 9.28262 16.4212 9.45813 16.3824 9.69655L15.8524 12.9643L15.7024 13.8905C15.6771 14.047 15.8013 14.1882 15.9637 14.1882H17.7997C18.0171 14.1882 18.2017 14.0346 18.2359 13.8262L18.254 13.7354L18.5997 11.6028L18.6219 11.4859C18.6557 11.2767 18.8407 11.1231 19.0581 11.1231H19.3327C21.1114 11.1231 22.5038 10.421 22.9108 8.38927C23.0808 7.54053 22.9928 6.83185 22.5429 6.33343C22.4068 6.18313 22.2379 6.05844 22.0404 5.95679Z" fill="#179BD7"/>
<path d="M21.5535 5.76819C21.4825 5.74808 21.4091 5.72979 21.3339 5.71334C21.2583 5.69726 21.1808 5.68299 21.1011 5.67056C20.822 5.62668 20.5162 5.60583 20.1886 5.60583H17.4233C17.3552 5.60583 17.2906 5.62082 17.2327 5.64789C17.1051 5.70749 17.0104 5.82488 16.9874 5.96858L16.3991 9.59098L16.3822 9.69665C16.421 9.45823 16.6305 9.28271 16.8791 9.28271H17.9141C19.9471 9.28271 21.5389 8.48005 22.0042 6.158C22.018 6.08926 22.0297 6.02234 22.0402 5.95689C21.9225 5.89618 21.795 5.84426 21.6577 5.8C21.6239 5.78904 21.589 5.77844 21.5535 5.76819Z" fill="#222D65"/>
<path d="M16.9874 5.96854C17.0104 5.82483 17.1052 5.70745 17.2327 5.6482C17.291 5.62114 17.3553 5.60615 17.4233 5.60615H20.1887C20.5163 5.60615 20.8221 5.62699 21.1011 5.67088C21.1809 5.68331 21.2584 5.69757 21.334 5.71366C21.4092 5.73012 21.4825 5.7484 21.5537 5.76851C21.589 5.77875 21.6239 5.78935 21.6581 5.79996C21.7954 5.84421 21.923 5.8965 22.0407 5.95684C22.1791 5.09859 22.0396 4.51424 21.5623 3.98511C21.0361 3.40259 20.0864 3.1532 18.8711 3.1532H15.343C15.0948 3.1532 14.8831 3.32871 14.8447 3.5675L13.3752 12.6235C13.3462 12.8026 13.4883 12.9643 13.6741 12.9643H15.8523L16.3992 9.59093L16.9874 5.96854Z" fill="#253B80"/>
</svg>
