<svg width="9" height="6" viewBox="0 0 9 6" fill="none" xmlns="http://www.w3.org/2000/svg">
<path d="M8.56324 0.576763C8.69519 0.44481 8.69519 0.230872 8.56324 0.0989183C8.43129 -0.0330347 8.21735 -0.0330347 8.0854 0.0989184L8.56324 0.576763ZM5.39596 3.2662L5.20853 3.54734C5.34255 3.63668 5.52099 3.61901 5.63488 3.50512L5.39596 3.2662ZM3.79867 2.20134L3.9861 1.9202C3.85209 1.83086 3.67364 1.84853 3.55975 1.96242L3.79867 2.20134ZM9.72954e-07 5.66213C9.90368e-07 5.84874 0.151279 6.00002 0.337889 6.00002L3.37888 6.00002C3.56549 6.00002 3.71676 5.84874 3.71676 5.66213C3.71676 5.47552 3.56549 5.32424 3.37888 5.32424L0.675776 5.32424L0.675775 2.62114C0.675775 2.43453 0.524498 2.28325 0.337888 2.28325C0.151278 2.28325 6.71779e-07 2.43453 6.89192e-07 2.62114L9.72954e-07 5.66213ZM8.0854 0.0989184L5.15704 3.02728L5.63488 3.50512L8.56324 0.576763L8.0854 0.0989184ZM5.58339 2.98506L3.9861 1.9202L3.61125 2.48248L5.20853 3.54734L5.58339 2.98506ZM3.55975 1.96242L0.098966 5.42321L0.576811 5.90105L4.0376 2.44026L3.55975 1.96242Z" fill="#E24949"/>
</svg>
