<svg width="32" height="32" viewBox="0 0 32 32" fill="none" xmlns="http://www.w3.org/2000/svg">
<path d="M21.3333 5.33326H20.5467L20.9467 4.94659C21.071 4.82227 21.1696 4.67468 21.2369 4.51225C21.3042 4.34982 21.3388 4.17573 21.3388 3.99992C21.3388 3.82411 21.3042 3.65002 21.2369 3.48759C21.1696 3.32516 21.071 3.17757 20.9467 3.05325C20.8223 2.92894 20.6748 2.83032 20.5123 2.76304C20.3499 2.69576 20.1758 2.66113 20 2.66113C19.6449 2.66113 19.3044 2.80218 19.0533 3.05325L16.3867 5.71992C16.2617 5.84387 16.1625 5.99134 16.0948 6.15382C16.0271 6.3163 15.9923 6.49057 15.9923 6.66659C15.9923 6.8426 16.0271 7.01688 16.0948 7.17936C16.1625 7.34184 16.2617 7.4893 16.3867 7.61326L19.0533 10.2799C19.1773 10.4049 19.3248 10.5041 19.4872 10.5718C19.6497 10.6395 19.824 10.6743 20 10.6743C20.176 10.6743 20.3503 10.6395 20.5128 10.5718C20.6752 10.5041 20.8227 10.4049 20.9467 10.2799C21.0716 10.156 21.1708 10.0085 21.2385 9.84602C21.3062 9.68354 21.3411 9.50927 21.3411 9.33325C21.3411 9.15724 21.3062 8.98296 21.2385 8.82049C21.1708 8.65801 21.0716 8.51054 20.9467 8.38659L20.5467 7.99992H21.3333C22.3942 7.99992 23.4116 8.42135 24.1618 9.17149C24.9119 9.92164 25.3333 10.9391 25.3333 11.9999V14.6666C25.3333 15.0202 25.4738 15.3593 25.7239 15.6094C25.9739 15.8594 26.313 15.9999 26.6667 15.9999C27.0203 15.9999 27.3594 15.8594 27.6095 15.6094C27.8595 15.3593 28 15.0202 28 14.6666V11.9999C28 10.2318 27.2976 8.53612 26.0474 7.28588C24.7971 6.03563 23.1014 5.33326 21.3333 5.33326ZM21.3333 23.9999H20V14.6666C20 14.313 19.8595 13.9738 19.6095 13.7238C19.3594 13.4737 19.0203 13.3333 18.6667 13.3333H9.33333V11.9999C9.33333 11.6463 9.19286 11.3072 8.94281 11.0571C8.69276 10.8071 8.35362 10.6666 8 10.6666C7.64638 10.6666 7.30724 10.8071 7.05719 11.0571C6.80714 11.3072 6.66667 11.6463 6.66667 11.9999V13.3333H5.33333C4.97971 13.3333 4.64057 13.4737 4.39052 13.7238C4.14048 13.9738 4 14.313 4 14.6666C4 15.0202 4.14048 15.3593 4.39052 15.6094C4.64057 15.8594 4.97971 15.9999 5.33333 15.9999H6.66667V25.3333C6.66667 25.6869 6.80714 26.026 7.05719 26.2761C7.30724 26.5261 7.64638 26.6666 8 26.6666H17.3333V27.9999C17.3333 28.3535 17.4738 28.6927 17.7239 28.9427C17.9739 29.1928 18.313 29.3333 18.6667 29.3333C19.0203 29.3333 19.3594 29.1928 19.6095 28.9427C19.8595 28.6927 20 28.3535 20 27.9999V26.6666H21.3333C21.687 26.6666 22.0261 26.5261 22.2761 26.2761C22.5262 26.026 22.6667 25.6869 22.6667 25.3333C22.6667 24.9796 22.5262 24.6405 22.2761 24.3904C22.0261 24.1404 21.687 23.9999 21.3333 23.9999ZM17.3333 23.9999H9.33333V15.9999H17.3333V23.9999Z" fill="#75839D"/>
</svg>
