<svg width="16" height="16" viewBox="0 0 16 16" fill="none" xmlns="http://www.w3.org/2000/svg">
<path d="M8.28683 2.73315C8.17857 2.68631 8.05981 2.66904 7.94269 2.68309C7.82557 2.69715 7.71427 2.74203 7.62016 2.81315L4.4335 5.33315H2.00016C1.82335 5.33315 1.65378 5.40339 1.52876 5.52841C1.40373 5.65344 1.3335 5.82301 1.3335 5.99982V9.99982C1.3335 10.1766 1.40373 10.3462 1.52876 10.4712C1.65378 10.5962 1.82335 10.6665 2.00016 10.6665H4.4335L7.58683 13.1865C7.70412 13.2806 7.84979 13.3323 8.00016 13.3332C8.09974 13.3348 8.19819 13.3119 8.28683 13.2665C8.40028 13.2125 8.49614 13.1275 8.56338 13.0213C8.63061 12.9151 8.66647 12.7921 8.66683 12.6665V3.33315C8.66647 3.20749 8.63061 3.0845 8.56338 2.97834C8.49614 2.87218 8.40028 2.78718 8.28683 2.73315ZM7.3335 11.2798L5.08016 9.47982C4.96287 9.38571 4.81721 9.33402 4.66683 9.33315H2.66683V6.66648H4.66683C4.81721 6.66561 4.96287 6.61392 5.08016 6.51982L7.3335 4.71982V11.2798ZM13.2735 7.99982L14.4735 6.80648C14.5357 6.74433 14.585 6.67053 14.6186 6.58932C14.6522 6.5081 14.6696 6.42106 14.6696 6.33315C14.6696 6.24524 14.6522 6.1582 14.6186 6.07698C14.585 5.99577 14.5357 5.92198 14.4735 5.85982C14.4113 5.79766 14.3375 5.74835 14.2563 5.71471C14.1751 5.68107 14.0881 5.66376 14.0002 5.66376C13.9123 5.66376 13.8252 5.68107 13.744 5.71471C13.6628 5.74835 13.589 5.79766 13.5268 5.85982L12.3335 7.05982L11.1402 5.85982C11.0146 5.73428 10.8444 5.66376 10.6668 5.66376C10.4893 5.66376 10.319 5.73428 10.1935 5.85982C10.068 5.98535 9.99744 6.15562 9.99744 6.33315C9.99744 6.51069 10.068 6.68095 10.1935 6.80648L11.3935 7.99982L10.1935 9.19315C10.131 9.25513 10.0814 9.32886 10.0476 9.4101C10.0137 9.49134 9.9963 9.57848 9.9963 9.66648C9.9963 9.75449 10.0137 9.84163 10.0476 9.92287C10.0814 10.0041 10.131 10.0778 10.1935 10.1398C10.2555 10.2023 10.3292 10.2519 10.4104 10.2857C10.4917 10.3196 10.5788 10.337 10.6668 10.337C10.7548 10.337 10.842 10.3196 10.9232 10.2857C11.0045 10.2519 11.0782 10.2023 11.1402 10.1398L12.3335 8.93982L13.5268 10.1398C13.5888 10.2023 13.6625 10.2519 13.7438 10.2857C13.825 10.3196 13.9122 10.337 14.0002 10.337C14.0882 10.337 14.1753 10.3196 14.2565 10.2857C14.3378 10.2519 14.4115 10.2023 14.4735 10.1398C14.536 10.0778 14.5856 10.0041 14.6194 9.92287C14.6533 9.84163 14.6707 9.75449 14.6707 9.66648C14.6707 9.57848 14.6533 9.49134 14.6194 9.4101C14.5856 9.32886 14.536 9.25513 14.4735 9.19315L13.2735 7.99982Z" fill="#75839D"/>
</svg>
