<svg width="24" height="24" viewBox="0 0 24 24" fill="none" xmlns="http://www.w3.org/2000/svg">
<path d="M22.5 11.25H16.5V12.75H22.5V11.25Z" fill="#231F20"/>
<path d="M20.7153 6.09766L15.5191 9.09766L16.2691 10.3967L21.4653 7.39669L20.7153 6.09766Z" fill="white"/>
<path d="M16.5976 2.53456L13.5976 7.73071L14.8966 8.48071L17.8966 3.28456L16.5976 2.53456Z" fill="#F1F2F2"/>
<path d="M12.75 1.5H11.25V7.5H12.75V1.5Z" fill="#E6E7E8"/>
<path d="M7.39685 2.52954L6.09781 3.27954L9.09781 8.47569L10.3968 7.72569L7.39685 2.52954Z" fill="#D1D3D4"/>
<path d="M3.27905 6.10306L2.52905 7.4021L7.72521 10.4021L8.47521 9.10306L3.27905 6.10306Z" fill="#BCBEC0"/>
<path d="M7.5 11.25H1.5V12.75H7.5V11.25Z" fill="#A7A9AC"/>
<path d="M7.75934 13.6575L2.53934 16.6575L3.28934 17.9625L8.50934 14.9625L7.75934 13.6575Z" fill="#939598"/>
<path d="M9.0976 15.5246L6.0976 20.7207L7.39663 21.4707L10.3966 16.2746L9.0976 15.5246Z" fill="#808285"/>
<path d="M12.75 16.5H11.25V22.5H12.75V16.5Z" fill="#6D6E71"/>
<path d="M14.8967 15.519L13.5977 16.269L16.5977 21.4652L17.8967 20.7152L14.8967 15.519Z" fill="#58595B"/>
<path d="M16.2694 13.6035L15.5194 14.9026L20.7156 17.9026L21.4656 16.6035L16.2694 13.6035Z" fill="#414042"/>
</svg>
