<svg width="32" height="32" viewBox="0 0 32 32" fill="none" xmlns="http://www.w3.org/2000/svg">
<path d="M28 14H26.6666V12.6666C26.6666 12.313 26.5262 11.9739 26.2761 11.7238C26.0261 11.4738 25.6869 11.3333 25.3333 11.3333C24.9797 11.3333 24.6405 11.4738 24.3905 11.7238C24.1404 11.9739 24 12.313 24 12.6666V14H22.6666C22.313 14 21.9739 14.1404 21.7238 14.3905C21.4738 14.6405 21.3333 14.9797 21.3333 15.3333C21.3333 15.6869 21.4738 16.0261 21.7238 16.2761C21.9739 16.5262 22.313 16.6666 22.6666 16.6666H24V18C24 18.3536 24.1404 18.6927 24.3905 18.9428C24.6405 19.1928 24.9797 19.3333 25.3333 19.3333C25.6869 19.3333 26.0261 19.1928 26.2761 18.9428C26.5262 18.6927 26.6666 18.3536 26.6666 18V16.6666H28C28.3536 16.6666 28.6927 16.5262 28.9428 16.2761C29.1928 16.0261 29.3333 15.6869 29.3333 15.3333C29.3333 14.9797 29.1928 14.6405 28.9428 14.3905C28.6927 14.1404 28.3536 14 28 14ZM17.7333 16.2933C18.4447 15.6775 19.0154 14.9158 19.4065 14.06C19.7976 13.2042 20 12.2742 20 11.3333C20 9.56518 19.2976 7.86949 18.0473 6.61925C16.7971 5.369 15.1014 4.66663 13.3333 4.66663C11.5652 4.66663 9.86949 5.369 8.61925 6.61925C7.36901 7.86949 6.66663 9.56518 6.66663 11.3333C6.66662 12.2742 6.86903 13.2042 7.26013 14.06C7.65123 14.9158 8.22186 15.6775 8.93329 16.2933C7.06681 17.1385 5.48325 18.5033 4.37193 20.2247C3.26062 21.946 2.66859 23.951 2.66663 26C2.66663 26.3536 2.8071 26.6927 3.05715 26.9428C3.3072 27.1928 3.64634 27.3333 3.99996 27.3333C4.35358 27.3333 4.69272 27.1928 4.94277 26.9428C5.19282 26.6927 5.33329 26.3536 5.33329 26C5.33329 23.8782 6.17615 21.8434 7.67644 20.3431C9.17673 18.8428 11.2116 18 13.3333 18C15.455 18 17.4899 18.8428 18.9901 20.3431C20.4904 21.8434 21.3333 23.8782 21.3333 26C21.3333 26.3536 21.4738 26.6927 21.7238 26.9428C21.9739 27.1928 22.313 27.3333 22.6666 27.3333C23.0202 27.3333 23.3594 27.1928 23.6094 26.9428C23.8595 26.6927 24 26.3536 24 26C23.998 23.951 23.406 21.946 22.2947 20.2247C21.1833 18.5033 19.5998 17.1385 17.7333 16.2933ZM13.3333 15.3333C12.5422 15.3333 11.7688 15.0987 11.111 14.6592C10.4532 14.2196 9.94053 13.5949 9.63777 12.864C9.33502 12.1331 9.25581 11.3289 9.41015 10.5529C9.56449 9.77701 9.94546 9.06428 10.5049 8.50487C11.0643 7.94546 11.777 7.56449 12.5529 7.41015C13.3289 7.25581 14.1331 7.33502 14.864 7.63777C15.5949 7.94053 16.2196 8.45321 16.6592 9.11101C17.0987 9.76881 17.3333 10.5422 17.3333 11.3333C17.3333 12.3942 16.9119 13.4116 16.1617 14.1617C15.4116 14.9119 14.3942 15.3333 13.3333 15.3333Z" fill="#4D90FF"/>
</svg>
