<svg width="11" height="11" viewBox="0 0 11 11" fill="none" xmlns="http://www.w3.org/2000/svg">
<path d="M6.98958 5.40839C7.214 5.27174 7.40338 5.08454 7.54263 4.86173C7.68189 4.63893 7.76717 4.38666 7.79166 4.12506C7.79591 3.88851 7.75352 3.65344 7.66691 3.43327C7.58029 3.2131 7.45115 3.01216 7.28686 2.84191C7.12257 2.67166 6.92635 2.53545 6.70941 2.44105C6.49247 2.34665 6.25905 2.29591 6.0225 2.29173H3.04792V8.70839H6.25625C6.48136 8.70599 6.70379 8.65928 6.91085 8.57091C7.11791 8.48255 7.30553 8.35426 7.46301 8.19338C7.62048 8.0325 7.74472 7.84218 7.82864 7.63328C7.91256 7.42438 7.9545 7.201 7.95208 6.97589V6.92089C7.95224 6.60332 7.86175 6.2923 7.69126 6.02437C7.52076 5.75645 7.27733 5.54275 6.98958 5.40839ZM3.96459 3.2084H5.88958C6.08491 3.20235 6.27742 3.25619 6.44127 3.3627C6.60512 3.4692 6.73247 3.62327 6.80625 3.80423C6.8809 4.04613 6.85676 4.30775 6.7391 4.5319C6.62144 4.75606 6.41983 4.92452 6.17833 5.00048C6.08455 5.02796 5.98731 5.04185 5.88958 5.04173H3.96459V3.2084ZM6.07292 7.79172H3.96459V5.95839H6.07292C6.26824 5.95235 6.46075 6.00619 6.6246 6.11269C6.78845 6.21919 6.91581 6.37326 6.98958 6.55422C7.06423 6.79613 7.04009 7.05774 6.92243 7.2819C6.80477 7.50605 6.60316 7.67452 6.36167 7.75047C6.26788 7.77796 6.17064 7.79185 6.07292 7.79172Z" fill="black"/>
</svg>
