<svg width="22" height="29" viewBox="0 0 22 29" fill="none" xmlns="http://www.w3.org/2000/svg">
<path d="M12.1385 2.49716C13.9116 0.0121151 16.3767 0 16.3767 0C16.3767 0 16.7434 2.33637 14.9819 4.58703C13.101 6.99024 10.9632 6.597 10.9632 6.597C10.9632 6.597 10.5618 4.70696 12.1385 2.49716ZM11.1887 8.23362C12.1009 8.23362 13.7939 6.9003 15.9975 6.9003C19.7906 6.9003 21.2828 9.77034 21.2828 9.77034C21.2828 9.77034 18.3643 11.357 18.3643 15.2071C18.3643 19.5503 22 21.0471 22 21.0471C22 21.0471 19.4585 28.6535 16.0257 28.6535C14.449 28.6535 13.2233 27.5237 11.562 27.5237C9.86906 27.5237 8.18905 28.6956 7.09485 28.6956C3.96018 28.6957 0 21.4802 0 15.6802C0 9.97375 3.35203 6.98025 6.4961 6.98025C8.54003 6.98025 10.1261 8.23362 11.1887 8.23362Z" fill="#555555"/>
</svg>
