<svg width="96" height="171" viewBox="0 0 96 171" fill="none" xmlns="http://www.w3.org/2000/svg">
<g clip-path="url(#clip0_614_5921)">
<path fill-rule="evenodd" clip-rule="evenodd" d="M85.3334 32.0625C85.3334 32.0625 81.4667 31.5335 80.0001 26.7188L75.2587 5.34375C75.2587 2.38866 72.8321 0 69.8401 0H26.4961C23.5041 0 21.0774 2.38866 21.0774 5.34375L16.0001 26.7188C14.5761 32.8694 10.6667 32.0625 10.6667 32.0625V37.4062H85.3334V32.0625C85.3334 32.0625 84.4107 31.977 85.3334 32.0625ZM10.6667 138.938C10.6667 138.938 11.5894 139.023 10.6667 138.938C10.6667 138.938 14.5334 139.461 16.0001 144.281L20.7414 165.656C20.7414 168.606 23.1681 171 26.1601 171H69.5041C72.5014 171 74.9281 168.606 74.9281 165.656L80.0001 144.281C81.4241 138.131 85.3334 138.938 85.3334 138.938V133.594H10.6667V138.938Z" fill="#D6DAE2"/>
<path d="M80 32.0625H16C7.16267 32.0625 0 39.2392 0 48.0938V122.906C0 131.756 7.16267 138.938 16 138.938H80C88.832 138.938 96 131.756 96 122.906V48.0938C96 39.2392 88.832 32.0625 80 32.0625Z" fill="#333333"/>
<path d="M85.296 48.1045H10.72V122.89H85.296V48.1045Z" fill="#4D4D4D"/>
<path d="M47.9999 96.1875C53.891 96.1875 58.6666 91.4025 58.6666 85.5C58.6666 79.5975 53.891 74.8125 47.9999 74.8125C42.1089 74.8125 37.3333 79.5975 37.3333 85.5C37.3333 91.4025 42.1089 96.1875 47.9999 96.1875Z" fill="#EAF1F6"/>
<path d="M58.6666 69.4688C61.6121 69.4688 63.9999 67.0763 63.9999 64.125C63.9999 61.1737 61.6121 58.7812 58.6666 58.7812C55.7211 58.7812 53.3333 61.1737 53.3333 64.125C53.3333 67.0763 55.7211 69.4688 58.6666 69.4688Z" fill="#48A0DC"/>
<path d="M58.6666 112.219C61.6121 112.219 63.9999 109.826 63.9999 106.875C63.9999 103.924 61.6121 101.531 58.6666 101.531C55.7211 101.531 53.3333 103.924 53.3333 106.875C53.3333 109.826 55.7211 112.219 58.6666 112.219Z" fill="#FFCC66"/>
<path d="M69.3333 90.8438C72.2789 90.8438 74.6667 88.4513 74.6667 85.5C74.6667 82.5487 72.2789 80.1562 69.3333 80.1562C66.3878 80.1562 64 82.5487 64 85.5C64 88.4513 66.3878 90.8438 69.3333 90.8438Z" fill="#88C057"/>
<path d="M26.6666 90.8438C29.6121 90.8438 31.9999 88.4513 31.9999 85.5C31.9999 82.5487 29.6121 80.1562 26.6666 80.1562C23.7211 80.1562 21.3333 82.5487 21.3333 85.5C21.3333 88.4513 23.7211 90.8438 26.6666 90.8438Z" fill="#9B7CAB"/>
<path d="M37.3333 69.4688C40.2789 69.4688 42.6667 67.0763 42.6667 64.125C42.6667 61.1737 40.2789 58.7812 37.3333 58.7812C34.3878 58.7812 32 61.1737 32 64.125C32 67.0763 34.3878 69.4688 37.3333 69.4688Z" fill="#FF8833"/>
<path d="M37.3333 112.219C40.2789 112.219 42.6667 109.826 42.6667 106.875C42.6667 103.924 40.2789 101.531 37.3333 101.531C34.3878 101.531 32 103.924 32 106.875C32 109.826 34.3878 112.219 37.3333 112.219Z" fill="#F06EAA"/>
</g>
<defs>
<clipPath id="clip0_614_5921">
<rect width="96" height="171" fill="white"/>
</clipPath>
</defs>
</svg>
