<svg width="15" height="14" viewBox="0 0 15 14" fill="none" xmlns="http://www.w3.org/2000/svg">
<g clip-path="url(#clip0_0_484)">
<path d="M7.26888 10.5355L10.6677 12.3238L10.0197 8.53945L12.7704 5.85977L8.96966 5.30742L7.26888 1.86211V0C7.5806 0 7.89232 0.161328 8.05365 0.486719L9.8392 4.10703L13.8341 4.68672C14.5505 4.79063 14.8376 5.67383 14.3181 6.17969L11.4279 8.99609L12.1115 12.9746C12.2345 13.6883 11.4826 14.2324 10.8427 13.8961L7.26888 12.0203V10.5355Z" fill="#FFC403"/>
</g>
<path d="M7.31447 0C7.00275 0 6.69103 0.161328 6.5297 0.486719L4.74415 4.10703L0.749232 4.68672C0.0328255 4.79063 -0.254284 5.67383 0.265247 6.17969L3.15548 8.99609L2.47189 12.9746C2.34884 13.6883 3.10079 14.2324 3.74064 13.8961L7.31447 12.0203V0Z" fill="#FFC403"/>
<defs>
<clipPath id="clip0_0_484">
<rect width="7.315" height="14" fill="white" transform="translate(7.29167)"/>
</clipPath>
</defs>
</svg>
