<svg width="24" height="24" viewBox="0 0 24 24" fill="none" xmlns="http://www.w3.org/2000/svg">
<path d="M17.5681 14.412C17.3284 14.2921 15.7704 13.573 15.5307 13.4532C15.291 13.3333 15.0513 13.3333 14.8116 13.573C14.5719 13.8127 14.0925 14.5318 13.8528 14.7715C13.7329 15.0112 13.4932 15.0112 13.2535 14.8914C12.4146 14.5318 11.5756 14.0524 10.8565 13.4532C10.2573 12.8539 9.65802 12.1348 9.17862 11.4157C9.05877 11.176 9.17862 10.9363 9.29847 10.8165C9.41832 10.6966 9.53817 10.4569 9.77787 10.3371C9.89772 10.2172 10.0176 9.97753 10.0176 9.85768C10.1374 9.73783 10.1374 9.49813 10.0176 9.37828C9.89772 9.25843 9.29847 7.82023 9.05877 7.22097C8.93892 6.38202 8.69922 6.38202 8.45952 6.38202C8.33967 6.38202 8.09997 6.38202 7.86027 6.38202C7.62057 6.38202 7.26102 6.62172 7.14117 6.74157C6.42207 7.46067 6.06252 8.29963 6.06252 9.25843C6.18237 10.3371 6.54192 11.4157 7.26102 12.3745C8.57937 14.2921 10.2573 15.8502 12.2947 16.809C12.894 17.0487 13.3734 17.2884 13.9726 17.4082C14.5719 17.6479 15.1711 17.6479 15.8902 17.5281C16.7292 17.4082 17.4483 16.809 17.9277 16.0899C18.1674 15.6105 18.1674 15.1311 18.0475 14.6517C18.0475 14.6517 17.8078 14.5318 17.5681 14.412ZM20.5644 3.50562C15.8902 -1.16854 8.33967 -1.16854 3.66551 3.50562C-0.169693 7.34082 -0.888794 13.2135 1.74791 17.8876L0.0700073 24L6.42207 22.3221C8.21982 23.2809 10.1374 23.7603 12.055 23.7603C18.6468 23.7603 23.9202 18.4869 23.9202 11.8951C24.04 8.77903 22.7217 5.78277 20.5644 3.50562ZM17.3284 20.2846C15.7704 21.2434 13.9726 21.8427 12.055 21.8427C10.2573 21.8427 8.57937 21.3633 7.02132 20.5243L6.66177 20.2846L2.94641 21.2434L3.90521 17.6479L3.66551 17.2884C0.789108 12.4944 2.22731 6.50187 6.90147 3.50562C11.5756 0.509364 17.5681 2.06742 20.4445 6.62172C23.3209 11.2959 22.0026 17.4082 17.3284 20.2846Z" fill="#80B0FF"/>
</svg>
