<svg width="32" height="32" viewBox="0 0 32 32" fill="none" xmlns="http://www.w3.org/2000/svg">
<path d="M7.33342 23.3334H5.33341V8.66671H15.7334L14.6667 9.72004C14.4157 9.96934 14.2739 10.3082 14.2727 10.662C14.2714 11.0158 14.4108 11.3556 14.6601 11.6067C14.9094 11.8578 15.2482 11.9995 15.602 12.0008C15.9559 12.002 16.2957 11.8627 16.5467 11.6134L19.8801 8.28004C20.0051 8.15609 20.1042 8.00862 20.1719 7.84614C20.2396 7.68366 20.2745 7.50939 20.2745 7.33337C20.2745 7.15736 20.2396 6.98308 20.1719 6.8206C20.1042 6.65813 20.0051 6.51066 19.8801 6.38671L16.5467 3.05337C16.2969 2.80504 15.959 2.66565 15.6067 2.66565C15.2545 2.66565 14.9166 2.80504 14.6667 3.05337C14.5418 3.17732 14.4426 3.32479 14.3749 3.48727C14.3072 3.64975 14.2724 3.82402 14.2724 4.00004C14.2724 4.17606 14.3072 4.35033 14.3749 4.51281C14.4426 4.67529 14.5418 4.82276 14.6667 4.94671L15.7201 6.00004H4.00008C3.64646 6.00004 3.30732 6.14052 3.05727 6.39056C2.80722 6.64061 2.66675 6.97975 2.66675 7.33337V24.6667C2.66675 25.0203 2.80722 25.3595 3.05727 25.6095C3.30732 25.8596 3.64646 26 4.00008 26H7.33342C7.68704 26 8.02618 25.8596 8.27622 25.6095C8.52627 25.3595 8.66675 25.0203 8.66675 24.6667C8.66675 24.3131 8.52627 23.9739 8.27622 23.7239C8.02618 23.4738 7.68704 23.3334 7.33342 23.3334ZM28.0001 6.00004H24.6667C24.3131 6.00004 23.974 6.14052 23.7239 6.39056C23.4739 6.64061 23.3334 6.97975 23.3334 7.33337C23.3334 7.687 23.4739 8.02613 23.7239 8.27618C23.974 8.52623 24.3131 8.66671 24.6667 8.66671H26.6667V23.3334H15.5067L16.5601 22.28C16.6851 22.1561 16.7842 22.0086 16.8519 21.8461C16.9196 21.6837 16.9545 21.5094 16.9545 21.3334C16.9545 21.1574 16.9196 20.9831 16.8519 20.8206C16.7842 20.6581 16.6851 20.5107 16.5601 20.3867C16.3103 20.1384 15.9723 19.999 15.6201 19.999C15.2678 19.999 14.9299 20.1384 14.6801 20.3867L11.3467 23.72C11.2218 23.844 11.1226 23.9915 11.0549 24.1539C10.9872 24.3164 10.9524 24.4907 10.9524 24.6667C10.9524 24.8427 10.9872 25.017 11.0549 25.1795C11.1226 25.342 11.2218 25.4894 11.3467 25.6134L14.6801 28.9467C14.9312 29.196 15.271 29.3354 15.6248 29.3341C15.9786 29.3329 16.3174 29.1911 16.5667 28.94C16.8161 28.689 16.9554 28.3491 16.9542 27.9953C16.9529 27.6415 16.8112 27.3027 16.5601 27.0534L15.5067 26H28.0001C28.3537 26 28.6928 25.8596 28.9429 25.6095C29.1929 25.3595 29.3334 25.0203 29.3334 24.6667V7.33337C29.3334 6.97975 29.1929 6.64061 28.9429 6.39056C28.6928 6.14052 28.3537 6.00004 28.0001 6.00004Z" fill="#0061FF"/>
</svg>
