<svg width="32" height="32" viewBox="0 0 32 32" fill="none" xmlns="http://www.w3.org/2000/svg">
<path d="M27.0401 4.57302C26.376 4.18001 25.6184 3.97266 24.8467 3.97266C24.0751 3.97266 23.3175 4.18001 22.6534 4.57302L10.6667 11.7864V7.99969C10.6667 6.93882 10.2453 5.92141 9.49518 5.17126C8.74503 4.42112 7.72761 3.99969 6.66675 3.99969C5.60588 3.99969 4.58847 4.42112 3.83832 5.17126C3.08818 5.92141 2.66675 6.93882 2.66675 7.99969V23.9997C2.66675 25.0606 3.08818 26.078 3.83832 26.8281C4.58847 27.5783 5.60588 27.9997 6.66675 27.9997C7.72761 27.9997 8.74503 27.5783 9.49518 26.8281C10.2453 26.078 10.6667 25.0606 10.6667 23.9997V20.213L22.6667 27.373C23.3432 27.7803 24.1172 27.9968 24.9067 27.9997C25.6601 27.999 26.4001 27.8014 27.0534 27.4264C27.7604 27.0279 28.3467 26.4459 28.7504 25.7418C29.154 25.0378 29.3601 24.2378 29.3467 23.4264V8.55969C29.3563 7.74915 29.1471 6.95104 28.7412 6.24942C28.3352 5.54781 27.7476 4.96867 27.0401 4.57302ZM8.00008 23.9997C8.00008 24.3533 7.85961 24.6925 7.60956 24.9425C7.35951 25.1925 7.02037 25.333 6.66675 25.333C6.31313 25.333 5.97399 25.1925 5.72394 24.9425C5.47389 24.6925 5.33341 24.3533 5.33341 23.9997V7.99969C5.33341 7.64607 5.47389 7.30693 5.72394 7.05688C5.97399 6.80683 6.31313 6.66636 6.66675 6.66636C7.02037 6.66636 7.35951 6.80683 7.60956 7.05688C7.85961 7.30693 8.00008 7.64607 8.00008 7.99969V23.9997ZM26.6667 23.4397C26.6744 23.7771 26.5904 24.1103 26.4237 24.4038C26.257 24.6973 26.0138 24.9401 25.7201 25.1064C25.463 25.263 25.1678 25.3458 24.8667 25.3458C24.5657 25.3458 24.2705 25.263 24.0134 25.1064L11.5734 17.6397C11.2951 17.466 11.0656 17.2243 10.9065 16.9374C10.7474 16.6504 10.6639 16.3278 10.6639 15.9997C10.6639 15.6716 10.7474 15.3489 10.9065 15.062C11.0656 14.7751 11.2951 14.5334 11.5734 14.3597L24.0001 6.91969C24.2672 6.75095 24.5774 6.66298 24.8934 6.66636C25.1837 6.67094 25.4681 6.74891 25.7201 6.89302C26.0138 7.05929 26.257 7.30208 26.4237 7.59557C26.5904 7.88906 26.6744 8.22225 26.6667 8.55969V23.4397Z" fill="#0061FF"/>
</svg>
