<svg width="24" height="24" viewBox="0 0 24 24" fill="none" xmlns="http://www.w3.org/2000/svg">
<path d="M19.4396 13.0001C19.2196 13.0001 18.9896 12.9301 18.7696 12.8801C18.3241 12.7819 17.8863 12.6516 17.4596 12.4901C16.9957 12.3213 16.4858 12.3301 16.0279 12.5147C15.5701 12.6993 15.1967 13.0467 14.9796 13.4901L14.7596 13.9401C13.7856 13.3983 12.8906 12.7253 12.0996 11.9401C11.3144 11.1491 10.6414 10.2541 10.0996 9.28011L10.5196 9.00011C10.963 8.78303 11.3104 8.40964 11.495 7.9518C11.6796 7.49396 11.6884 6.98402 11.5196 6.52011C11.3608 6.09253 11.2305 5.65491 11.1296 5.21011C11.0796 4.99011 11.0396 4.76011 11.0096 4.53011C10.8882 3.82573 10.5192 3.18785 9.96923 2.73135C9.41923 2.27485 8.72431 2.02972 8.00961 2.04011H5.00961C4.57864 2.03607 4.15186 2.12493 3.75832 2.30064C3.36478 2.47636 3.01372 2.73481 2.72904 3.05839C2.44436 3.38198 2.23275 3.76311 2.1086 4.17583C1.98445 4.58855 1.95069 5.02317 2.00961 5.45011C2.54235 9.63949 4.45564 13.532 7.44726 16.5127C10.4389 19.4935 14.3383 21.3926 18.5296 21.9101H18.9096C19.647 21.9112 20.359 21.6406 20.9096 21.1501C21.226 20.8672 21.4787 20.5203 21.6511 20.1324C21.8235 19.7446 21.9116 19.3245 21.9096 18.9001V15.9001C21.8974 15.2055 21.6444 14.5367 21.194 14.0078C20.7435 13.4789 20.1234 13.1227 19.4396 13.0001ZM19.9396 19.0001C19.9394 19.1421 19.909 19.2824 19.8504 19.4117C19.7918 19.5411 19.7063 19.6564 19.5996 19.7501C19.4879 19.8466 19.3572 19.9187 19.216 19.9617C19.0748 20.0048 18.9262 20.0178 18.7796 20.0001C15.0345 19.5199 11.5558 17.8066 8.89233 15.1304C6.22881 12.4542 4.53202 8.96745 4.06961 5.22011C4.0537 5.07363 4.06765 4.92544 4.11061 4.7845C4.15358 4.64356 4.22468 4.5128 4.31961 4.40011C4.41332 4.29344 4.52867 4.20795 4.65799 4.14933C4.78731 4.09071 4.92763 4.06029 5.06961 4.06011H8.06961C8.30216 4.05494 8.52924 4.13099 8.71176 4.27518C8.89428 4.41937 9.02082 4.62268 9.06961 4.85011C9.10961 5.12345 9.15961 5.39345 9.21961 5.66011C9.33513 6.18726 9.48887 6.70529 9.67961 7.21011L8.27961 7.86011C8.15991 7.91503 8.05223 7.99306 7.96277 8.08971C7.87331 8.18636 7.80381 8.29973 7.75828 8.42331C7.71275 8.54689 7.69208 8.67824 7.69746 8.80983C7.70284 8.94142 7.73415 9.07066 7.78961 9.19011C9.22881 12.2729 11.7069 14.7509 14.7896 16.1901C15.0331 16.2901 15.3062 16.2901 15.5496 16.1901C15.6743 16.1455 15.7889 16.0766 15.8868 15.9873C15.9846 15.898 16.0638 15.7902 16.1196 15.6701L16.7396 14.2701C17.2566 14.455 17.7842 14.6086 18.3196 14.7301C18.5863 14.7901 18.8563 14.8401 19.1296 14.8801C19.357 14.9289 19.5604 15.0554 19.7045 15.238C19.8487 15.4205 19.9248 15.6476 19.9196 15.8801L19.9396 19.0001Z" fill="#262B35"/>
</svg>
