<svg width="98" height="61" viewBox="0 0 98 61" fill="none" xmlns="http://www.w3.org/2000/svg">
<path d="M91.5981 0H5.88424C2.63447 0 0 2.63447 0 5.88424V55.1158C0 58.3655 2.63447 61 5.88424 61H91.5981C94.8479 61 97.4823 58.3655 97.4823 55.1158V5.88424C97.4823 2.63447 94.8479 0 91.5981 0Z" fill="#4D90FF"/>
<path d="M91.5981 1.01283e-08H82.7717C83.5444 -4.53281e-05 84.3096 0.152124 85.0236 0.447819C85.7375 0.743514 86.3862 1.17694 86.9326 1.72335C87.479 2.26977 87.9124 2.91846 88.2081 3.63239C88.5038 4.34632 88.656 5.1115 88.6559 5.88424V55.1158C88.656 55.8885 88.5038 56.6537 88.2081 57.3676C87.9124 58.0815 87.479 58.7302 86.9326 59.2766C86.3862 59.8231 85.7375 60.2565 85.0236 60.5522C84.3096 60.8479 83.5444 61 82.7717 61H91.5981C92.3708 61 93.136 60.8479 93.8499 60.5522C94.5639 60.2565 95.2125 59.8231 95.759 59.2766C96.3054 58.7302 96.7388 58.0815 97.0345 57.3676C97.3302 56.6537 97.4824 55.8885 97.4823 55.1158V5.88424C97.4824 5.1115 97.3302 4.34632 97.0345 3.63239C96.7388 2.91846 96.3054 2.26977 95.759 1.72335C95.2125 1.17694 94.5639 0.743514 93.8499 0.447819C93.136 0.152124 92.3708 -4.53281e-05 91.5981 1.01283e-08Z" fill="#0061FF"/>
<path d="M97.4823 22.2621H0V25.2042H97.4823V22.2621Z" fill="#E4222E"/>
<path d="M32.9537 0.0980707V61H30.0116V0.0980707C30.0116 0.0652913 30.0136 0.0325425 30.0175 0H32.9479C32.9518 0.0325442 32.9537 0.065293 32.9537 0.0980707Z" fill="#E4222E"/>
<path d="M19.4137 17.7378L29.0258 22.6598C29.765 23.0383 30.3854 23.6135 30.8185 24.322C31.2517 25.0305 31.4809 25.8448 31.4809 26.6752C31.4809 27.5057 31.2517 28.32 30.8185 29.0285C30.3854 29.737 29.765 30.3122 29.0258 30.6907L19.4137 35.6127C18.726 35.9649 17.9593 36.1345 17.1872 36.1053C16.4151 36.0762 15.6635 35.8492 15.0043 35.4461C14.3451 35.0431 13.8005 34.4775 13.4226 33.8036C13.0447 33.1296 12.8463 32.3699 12.8463 31.5973V21.7532C12.8463 20.9805 13.0447 20.2209 13.4226 19.5469C13.8005 18.873 14.3451 18.3074 15.0043 17.9043C15.6635 17.5013 16.4151 17.2743 17.1872 17.2452C17.9593 17.216 18.726 17.3856 19.4137 17.7378Z" fill="#0061FF"/>
<path d="M43.548 17.7378L33.9358 22.6598C33.1966 23.0383 32.5763 23.6135 32.1431 24.322C31.7099 25.0305 31.4807 25.8448 31.4807 26.6752C31.4807 27.5057 31.7099 28.32 32.1431 29.0285C32.5763 29.737 33.1966 30.3122 33.9358 30.6907L43.548 35.6127C44.2357 35.9649 45.0023 36.1345 45.7744 36.1053C46.5465 36.0762 47.2982 35.8492 47.9574 35.4461C48.6166 35.0431 49.1612 34.4775 49.539 33.8036C49.9169 33.1296 50.1154 32.3699 50.1154 31.5973V21.7532C50.1154 20.9805 49.9169 20.2209 49.539 19.5469C49.1612 18.873 48.6166 18.3074 47.9574 17.9043C47.2982 17.5013 46.5465 17.2743 45.7744 17.2452C45.0023 17.216 44.2357 17.3856 43.548 17.7378Z" fill="#0061FF"/>
<path d="M19.4137 14.7956L29.0258 19.7177C29.765 20.0962 30.3854 20.6714 30.8185 21.3799C31.2517 22.0884 31.4809 22.9027 31.4809 23.7331C31.4809 24.5635 31.2517 25.3779 30.8185 26.0864C30.3854 26.7949 29.765 27.37 29.0258 27.7485L19.4137 32.6706C18.726 33.0227 17.9593 33.1924 17.1872 33.1632C16.4151 33.134 15.6635 32.907 15.0043 32.504C14.3451 32.101 13.8005 31.5354 13.4226 30.8614C13.0447 30.1875 12.8463 29.4278 12.8463 28.6552V18.8111C12.8463 18.0384 13.0447 17.2787 13.4226 16.6048C13.8005 15.9309 14.3451 15.3653 15.0043 14.9622C15.6635 14.5592 16.4151 14.3322 17.1872 14.303C17.9593 14.2739 18.726 14.4435 19.4137 14.7956Z" fill="#EB304A"/>
<path d="M43.548 14.7956L33.9358 19.7177C33.1966 20.0962 32.5763 20.6714 32.1431 21.3799C31.7099 22.0884 31.4807 22.9027 31.4807 23.7331C31.4807 24.5635 31.7099 25.3779 32.1431 26.0864C32.5763 26.7949 33.1966 27.37 33.9358 27.7485L43.548 32.6706C44.2357 33.0227 45.0023 33.1924 45.7744 33.1632C46.5465 33.134 47.2982 32.907 47.9574 32.504C48.6166 32.101 49.1612 31.5354 49.539 30.8614C49.9169 30.1875 50.1154 29.4278 50.1154 28.6552V18.8111C50.1154 18.0384 49.9169 17.2787 49.539 16.6048C49.1612 15.9309 48.6166 15.3653 47.9574 14.9622C47.2982 14.5592 46.5465 14.3322 45.7744 14.303C45.0023 14.2739 44.2357 14.4435 43.548 14.7956Z" fill="#EB304A"/>
<path d="M43.5479 14.7956L42.3592 15.4043C43.1128 15.7751 43.747 16.3502 44.1895 17.0641C44.6319 17.7779 44.8648 18.6018 44.8616 19.4417V29.2857C44.8652 29.909 44.7379 30.5261 44.4879 31.097C44.238 31.668 43.8711 32.1802 43.4108 32.6004L43.5479 32.6706C44.2356 33.0227 45.0023 33.1924 45.7744 33.1632C46.5465 33.134 47.2981 32.907 47.9573 32.504C48.6165 32.1009 49.1611 31.5354 49.539 30.8614C49.9169 30.1875 50.1153 29.4278 50.1153 28.6552V18.8111C50.1153 18.0384 49.9169 17.2787 49.539 16.6048C49.1611 15.9309 48.6165 15.3653 47.9573 14.9622C47.2981 14.5592 46.5465 14.3322 45.7744 14.303C45.0023 14.2739 44.2356 14.4435 43.5479 14.7956Z" fill="#E4222E"/>
<path d="M31.4807 29.2251C34.7846 29.2251 37.463 26.5467 37.463 23.2428C37.463 19.9388 34.7846 17.2605 31.4807 17.2605C28.1768 17.2605 25.4984 19.9388 25.4984 23.2428C25.4984 26.5467 28.1768 29.2251 31.4807 29.2251Z" fill="white"/>
<path d="M31.4807 17.2605C30.7077 17.2599 29.9419 17.4097 29.2261 17.7014C30.3279 18.1498 31.2711 18.9165 31.9351 19.9035C32.5991 20.8906 32.9537 22.0532 32.9537 23.2428C32.9537 24.4324 32.5991 25.5949 31.9351 26.582C31.2711 27.569 30.3279 28.3357 29.2261 28.7841C30.0439 29.1169 30.9254 29.2645 31.807 29.2163C32.6887 29.1681 33.5488 28.9254 34.3255 28.5055C35.1023 28.0856 35.7765 27.499 36.2997 26.7877C36.8229 26.0764 37.1822 25.2581 37.3517 24.3915C37.5213 23.525 37.4969 22.6316 37.2803 21.7756C37.0638 20.9196 36.6604 20.1221 36.0992 19.4404C35.5379 18.7587 34.8328 18.2098 34.0343 17.8328C33.2358 17.4559 32.3637 17.2605 31.4807 17.2605Z" fill="#E1E1E3"/>
<path d="M85.7138 42.1704H59.2347C58.8446 42.1704 58.4704 42.0154 58.1945 41.7396C57.9186 41.4637 57.7637 41.0895 57.7637 40.6994C57.7637 40.3092 57.9186 39.935 58.1945 39.6592C58.4704 39.3833 58.8446 39.2283 59.2347 39.2283H85.7138C86.104 39.2283 86.4781 39.3833 86.754 39.6592C87.0299 39.935 87.1849 40.3092 87.1849 40.6994C87.1849 41.0895 87.0299 41.4637 86.754 41.7396C86.4781 42.0154 86.104 42.1704 85.7138 42.1704ZM73.9453 48.0547H59.2347C58.8446 48.0547 58.4704 47.8997 58.1945 47.6238C57.9186 47.3479 57.7637 46.9738 57.7637 46.5836C57.7637 46.1935 57.9186 45.8193 58.1945 45.5434C58.4704 45.2675 58.8446 45.1125 59.2347 45.1125H73.9453C74.3355 45.1125 74.7097 45.2675 74.9855 45.5434C75.2614 45.8193 75.4164 46.1935 75.4164 46.5836C75.4164 46.9738 75.2614 47.3479 74.9855 47.6238C74.7097 47.8997 74.3355 48.0547 73.9453 48.0547Z" fill="white"/>
</svg>
