<svg width="11" height="11" viewBox="0 0 11 11" fill="none" xmlns="http://www.w3.org/2000/svg">
<path d="M7.56251 5.95841H4.81251V8.70841H3.89584V5.95841H1.14584V5.04174H3.89584V2.29174H4.81251V5.04174H7.56251V5.95841ZM9.85418 8.02091C9.85418 8.15689 9.81386 8.28981 9.73831 8.40287C9.66277 8.51592 9.5554 8.60404 9.42977 8.65608C9.30415 8.70811 9.16592 8.72173 9.03255 8.6952C8.89919 8.66867 8.77669 8.6032 8.68054 8.50705C8.58439 8.4109 8.51892 8.2884 8.49239 8.15504C8.46586 8.02167 8.47948 7.88344 8.53151 7.75782C8.58355 7.63219 8.67167 7.52482 8.78472 7.44928C8.89778 7.37373 9.0307 7.33341 9.16668 7.33341C9.34902 7.33341 9.52388 7.40584 9.65281 7.53477C9.78175 7.66371 9.85418 7.83857 9.85418 8.02091ZM9.85418 6.18758C9.85418 6.32355 9.81386 6.45647 9.73831 6.56953C9.66277 6.68259 9.5554 6.77071 9.42977 6.82274C9.30415 6.87478 9.16592 6.88839 9.03255 6.86187C8.89919 6.83534 8.77669 6.76986 8.68054 6.67371C8.58439 6.57756 8.51892 6.45506 8.49239 6.3217C8.46586 6.18834 8.47948 6.0501 8.53151 5.92448C8.58355 5.79886 8.67167 5.69148 8.78472 5.61594C8.89778 5.5404 9.0307 5.50008 9.16668 5.50008C9.34902 5.50008 9.52388 5.57251 9.65281 5.70144C9.78175 5.83037 9.85418 6.00524 9.85418 6.18758ZM9.85418 4.35424C9.85418 4.49022 9.81386 4.62314 9.73831 4.7362C9.66277 4.84925 9.5554 4.93737 9.42977 4.98941C9.30415 5.04144 9.16592 5.05506 9.03255 5.02853C8.89919 5.002 8.77669 4.93653 8.68054 4.84038C8.58439 4.74423 8.51892 4.62173 8.49239 4.48837C8.46586 4.355 8.47948 4.21677 8.53151 4.09115C8.58355 3.96552 8.67167 3.85815 8.78472 3.7826C8.89778 3.70706 9.0307 3.66674 9.16668 3.66674C9.34902 3.66674 9.52388 3.73917 9.65281 3.8681C9.78175 3.99704 9.85418 4.1719 9.85418 4.35424Z" fill="black"/>
</svg>
