<svg width="18" height="18" viewBox="0 0 18 18" fill="none" xmlns="http://www.w3.org/2000/svg">
<path d="M10.0575 8.99999L14.7825 4.28249C14.9237 4.14126 15.003 3.94971 15.003 3.74999C15.003 3.55026 14.9237 3.35871 14.7825 3.21749C14.6412 3.07626 14.4497 2.99692 14.25 2.99692C14.0502 2.99692 13.8587 3.07626 13.7175 3.21749L8.99995 7.94249L4.28245 3.21749C4.14123 3.07626 3.94968 2.99692 3.74995 2.99692C3.55023 2.99692 3.35868 3.07626 3.21745 3.21749C3.07623 3.35871 2.99689 3.55026 2.99689 3.74999C2.99689 3.94971 3.07623 4.14126 3.21745 4.28249L7.94245 8.99999L3.21745 13.7175C3.14716 13.7872 3.09136 13.8702 3.05329 13.9616C3.01521 14.0529 2.99561 14.151 2.99561 14.25C2.99561 14.349 3.01521 14.447 3.05329 14.5384C3.09136 14.6298 3.14716 14.7128 3.21745 14.7825C3.28718 14.8528 3.37013 14.9086 3.46152 14.9467C3.55292 14.9847 3.65095 15.0043 3.74995 15.0043C3.84896 15.0043 3.94699 14.9847 4.03839 14.9467C4.12978 14.9086 4.21273 14.8528 4.28245 14.7825L8.99995 10.0575L13.7175 14.7825C13.7872 14.8528 13.8701 14.9086 13.9615 14.9467C14.0529 14.9847 14.1509 15.0043 14.25 15.0043C14.349 15.0043 14.447 14.9847 14.5384 14.9467C14.6298 14.9086 14.7127 14.8528 14.7825 14.7825C14.8527 14.7128 14.9085 14.6298 14.9466 14.5384C14.9847 14.447 15.0043 14.349 15.0043 14.25C15.0043 14.151 14.9847 14.0529 14.9466 13.9616C14.9085 13.8702 14.8527 13.7872 14.7825 13.7175L10.0575 8.99999Z" fill="#0061FF"/>
</svg>
