<svg width="33" height="32" viewBox="0 0 33 32" fill="none" xmlns="http://www.w3.org/2000/svg">
<path d="M16.5 32C25.6127 32 33 24.8366 33 16C33 7.16344 25.6127 0 16.5 0C7.3873 0 0 7.16344 0 16C0 24.8366 7.3873 32 16.5 32Z" fill="#3259A5"/>
<path d="M22.1911 17.0435C21.687 19.6337 19.3433 21.5922 16.5261 21.5922C13.3407 21.5922 10.7591 19.0888 10.7591 16C10.7591 12.9112 13.3407 10.4078 16.5261 10.4078C19.3433 10.4078 21.687 12.3674 22.1911 14.9565H28.0101C27.4675 9.26871 22.5332 4.8156 16.5261 4.8156C10.1553 4.8156 4.99214 9.82342 4.99214 16C4.99214 22.1777 10.1565 27.1844 16.5261 27.1844C22.5332 27.1844 27.4675 22.7313 28.0101 17.0435H22.1911Z" fill="white"/>
</svg>
