<svg width="20" height="20" viewBox="0 0 20 20" fill="none" xmlns="http://www.w3.org/2000/svg">
<path d="M10 12.5C10.8841 12.5 11.7319 12.1489 12.357 11.5237C12.9822 10.8986 13.3333 10.0508 13.3333 9.16671V4.16671C13.3333 3.28265 12.9822 2.43481 12.357 1.80968C11.7319 1.18456 10.8841 0.833374 10 0.833374C9.11595 0.833374 8.26811 1.18456 7.64299 1.80968C7.01787 2.43481 6.66668 3.28265 6.66668 4.16671V9.16671C6.66668 10.0508 7.01787 10.8986 7.64299 11.5237C8.26811 12.1489 9.11595 12.5 10 12.5ZM8.33334 4.16671C8.33334 3.72468 8.50894 3.30076 8.8215 2.9882C9.13406 2.67564 9.55798 2.50004 10 2.50004C10.442 2.50004 10.866 2.67564 11.1785 2.9882C11.4911 3.30076 11.6667 3.72468 11.6667 4.16671V9.16671C11.6667 9.60873 11.4911 10.0327 11.1785 10.3452C10.866 10.6578 10.442 10.8334 10 10.8334C9.55798 10.8334 9.13406 10.6578 8.8215 10.3452C8.50894 10.0327 8.33334 9.60873 8.33334 9.16671V4.16671ZM16.6667 9.16671C16.6667 8.94569 16.5789 8.73373 16.4226 8.57745C16.2663 8.42117 16.0544 8.33337 15.8333 8.33337C15.6123 8.33337 15.4004 8.42117 15.2441 8.57745C15.0878 8.73373 15 8.94569 15 9.16671C15 10.4928 14.4732 11.7646 13.5355 12.7022C12.5979 13.6399 11.3261 14.1667 10 14.1667C8.67393 14.1667 7.40216 13.6399 6.46448 12.7022C5.52679 11.7646 5.00001 10.4928 5.00001 9.16671C5.00001 8.94569 4.91221 8.73373 4.75593 8.57745C4.59965 8.42117 4.38769 8.33337 4.16668 8.33337C3.94566 8.33337 3.7337 8.42117 3.57742 8.57745C3.42114 8.73373 3.33334 8.94569 3.33334 9.16671C3.33481 10.7894 3.92811 12.3559 5.00201 13.5725C6.0759 14.7891 7.55666 15.5722 9.16668 15.775V17.5H7.50001C7.279 17.5 7.06703 17.5878 6.91075 17.7441C6.75447 17.9004 6.66668 18.1124 6.66668 18.3334C6.66668 18.5544 6.75447 18.7663 6.91075 18.9226C7.06703 19.0789 7.279 19.1667 7.50001 19.1667H12.5C12.721 19.1667 12.933 19.0789 13.0893 18.9226C13.2455 18.7663 13.3333 18.5544 13.3333 18.3334C13.3333 18.1124 13.2455 17.9004 13.0893 17.7441C12.933 17.5878 12.721 17.5 12.5 17.5H10.8333V15.775C12.4434 15.5722 13.9241 14.7891 14.998 13.5725C16.0719 12.3559 16.6652 10.7894 16.6667 9.16671Z" fill="#75839D"/>
</svg>
