<svg width="24" height="24" viewBox="0 0 24 24" fill="none" xmlns="http://www.w3.org/2000/svg">
<path fill-rule="evenodd" clip-rule="evenodd" d="M2.55646 6.52528C2.30411 6.60204 2.09096 6.79918 2.02836 7.01365C2.00262 7.10189 1.99523 8.29196 2.00285 11.1144L2.01364 15.0909L2.10399 15.4044C2.63186 17.2356 4.39316 18.4718 6.19753 18.2776C6.76843 18.2161 7.3555 18.0155 7.86855 17.7068C8.30365 17.4449 8.77872 16.9846 9.12063 16.4934C9.2154 16.3573 9.29774 16.2459 9.30361 16.2459C9.30949 16.2459 9.39209 16.3622 9.48716 16.5044C9.58226 16.6466 9.78558 16.8948 9.93899 17.056C10.7217 17.8785 11.6514 18.285 12.7536 18.2864C13.8409 18.2879 14.7364 17.9176 15.4934 17.1535C15.956 16.6865 16.2252 16.2499 16.4292 15.6354C16.5651 15.2259 16.6146 14.9013 16.6145 14.4203C16.6137 12.5341 15.2623 10.8873 13.4559 10.5713C12.0616 10.3275 10.6326 10.8797 9.71209 12.018C9.56708 12.1974 9.42443 12.3944 9.39512 12.4559C9.36582 12.5174 9.32625 12.5625 9.30721 12.5561C9.28817 12.5498 9.22052 12.4551 9.15686 12.3457C8.81739 11.7622 8.28118 11.2704 7.61115 10.9281C6.71477 10.47 5.56539 10.3878 4.62628 10.7145C4.22807 10.8531 4.14943 10.8898 3.81629 11.0927L3.51365 11.2771L3.51332 9.20754L3.51299 7.13796L3.43554 6.9716C3.27467 6.62616 2.88134 6.42645 2.55646 6.52528ZM16.3351 10.5051C16.0482 10.6145 15.8752 10.8798 15.8733 11.2134C15.8715 11.5349 15.776 11.3909 17.432 13.565C17.8299 14.0874 18.0249 14.3692 18.0054 14.3937C17.7506 14.7146 15.98 17.1044 15.9355 17.1876C15.8407 17.3649 15.8503 17.6903 15.9564 17.8965C16.0829 18.1423 16.2886 18.2589 16.5955 18.2589C17.0142 18.2589 17.1948 18.1104 17.7455 17.3126C18.0191 16.9163 18.9104 15.7044 18.9293 15.703C18.9487 15.7016 19.2636 16.1222 20.1359 17.3147C20.7711 18.183 20.837 18.2403 21.2304 18.2662C21.422 18.2789 21.4716 18.2691 21.6306 18.1873C21.7763 18.1123 21.8299 18.0608 21.9023 17.9255C22.009 17.7264 22.0319 17.4075 21.953 17.219C21.9264 17.1553 21.7238 16.8583 21.5029 16.559C21.282 16.2598 20.9048 15.7482 20.6647 15.4221C20.4246 15.096 20.1604 14.7396 20.0776 14.6301C19.9949 14.5206 19.9165 14.4131 19.9034 14.3913C19.8892 14.3676 19.9964 14.196 20.1694 13.9654C20.5083 13.5137 21.1555 12.6455 21.5902 12.0594C21.7585 11.8325 21.9181 11.605 21.9447 11.5538C22.015 11.4191 22.0073 11.0324 21.9311 10.8646C21.7627 10.4937 21.2885 10.3665 20.8501 10.5745C20.7157 10.6383 20.7649 10.578 19.9125 11.7249C19.5483 12.215 19.181 12.709 19.0962 12.8226L18.9421 13.0294L18.8832 12.9546C18.8508 12.9136 18.7148 12.7314 18.581 12.5499C18.1808 12.0072 17.4154 10.9777 17.2807 10.8009C17.0633 10.5158 16.6478 10.3858 16.3351 10.5051ZM6.51865 12.2554C7.51014 12.6109 8.12684 13.4573 8.1399 14.4804C8.14466 14.8511 8.09496 15.1128 7.9655 15.3993C7.52261 16.3797 6.42916 16.928 5.35554 16.708C5.22192 16.6806 4.97416 16.5903 4.80065 16.5058C4.53305 16.3754 4.4457 16.3106 4.20398 16.0631C3.89199 15.7436 3.73455 15.4824 3.60787 15.0744C3.49431 14.7087 3.50124 14.1409 3.6238 13.7709C3.83844 13.1229 4.28195 12.6274 4.91057 12.3332C5.22869 12.1843 5.48945 12.1373 5.90816 12.1534C6.19545 12.1644 6.32541 12.1861 6.51865 12.2554ZM13.2418 12.1889C13.3868 12.2183 13.6291 12.3046 13.8056 12.3897C14.6543 12.7992 15.1997 13.793 15.0696 14.6931C14.987 15.264 14.7899 15.6524 14.3721 16.0681C14.1371 16.3018 14.0312 16.3794 13.7748 16.506C13.1982 16.7907 12.629 16.8341 12.0349 16.6389C11.3154 16.4026 10.7055 15.7275 10.5269 14.9699C10.4637 14.7019 10.4637 14.1929 10.5269 13.925C10.7369 13.0342 11.5127 12.3123 12.4236 12.1602C12.6187 12.1276 13.0061 12.1412 13.2418 12.1889Z" fill="#75839D"/>
</svg>
