<svg width="135" height="116" viewBox="0 0 135 116" fill="none" xmlns="http://www.w3.org/2000/svg">
<path opacity="0.5" d="M126.392 87.343C128.519 92.6514 125.969 98.94 121.693 102.743C117.414 106.545 111.758 108.362 106.22 109.818C96.0238 112.501 85.5972 114.303 75.0908 115.216C57.1221 116.772 38.9998 114.652 21.9413 108.806C18.65 107.677 15.7857 106.535 13.9896 105.486C6.80574 101.297 1.3405 93.9639 0.20607 85.7331C-0.925034 77.5056 2.65337 68.6042 9.63359 64.089C15.0862 60.5611 22.5777 59.3472 25.7259 53.6773C28.2484 49.1279 26.8897 43.5407 26.3915 38.3637C24.1086 14.6622 42.2498 -2.72621 61.1165 0.353899C70.9039 1.95177 79.5833 9.8944 81.1527 19.6712C81.4638 21.6146 81.5151 23.6165 82.1293 25.4877C84.2247 31.8824 92.0647 34.5406 98.7842 34.0786C105.507 33.6132 111.957 30.9909 118.688 30.7153C125.419 30.4431 133.183 33.6182 134.725 40.1669C136.271 46.7389 130.997 52.7642 126.218 57.5398C108.939 74.8043 123.214 79.4151 126.392 87.343Z" fill="#EDF3FF"/>
<path d="M111.632 45.3039C112.317 45.7225 112.883 46.31 113.276 47.0101C113.669 47.7103 113.875 48.4996 113.875 49.3024V52.7149L95.125 64.1735V55.7782H97.4688C98.0904 55.7782 98.6865 55.5312 99.126 55.0917C99.5656 54.6521 99.8125 54.056 99.8125 53.4344V45.2313C99.8125 44.6097 99.5656 44.0135 99.126 43.574C98.6865 43.1345 98.0904 42.8875 97.4688 42.8875H95.125V35.2985L96.3156 35.8516L111.632 45.3039Z" fill="#FFAE1F"/>
<path d="M97.4688 42.8877C98.0904 42.8877 98.6865 43.1346 99.126 43.5742C99.5656 44.0137 99.8125 44.6098 99.8125 45.2314V53.4346C99.8125 54.0562 99.5656 54.6523 99.126 55.0919C98.6865 55.5314 98.0904 55.7783 97.4688 55.7783H36.5312C35.9096 55.7783 35.3135 55.5314 34.874 55.0919C34.4344 54.6523 34.1875 54.0562 34.1875 53.4346V45.2314C34.1875 44.6098 34.4344 44.0137 34.874 43.5742C35.3135 43.1346 35.9096 42.8877 36.5312 42.8877H97.4688Z" fill="#FBFCFE"/>
<path d="M38.875 64.1734L67 81.3602L95.125 64.1734L113.875 52.7148V94.9023C113.875 97.665 112.778 100.315 110.825 102.268C108.871 104.222 106.222 105.32 103.459 105.32H30.5406C27.778 105.32 25.1286 104.222 23.1753 102.268C21.222 100.315 20.1248 97.665 20.125 94.9023V52.7148L38.875 64.1734Z" fill="#FFBD39"/>
<path d="M95.125 55.7783V64.1736L67 81.3604L38.875 64.1736V55.7783H95.125Z" fill="#7695EA"/>
<path d="M75.0367 23.3359C75.0364 24.3121 75.2284 25.2788 75.6018 26.1808C75.9751 27.0827 76.5225 27.9023 77.2127 28.5927C77.9028 29.2831 78.7222 29.8307 79.6241 30.2044C80.5259 30.578 81.4926 30.7703 82.4688 30.7703H93.0602L95.125 33.0719V42.8875H38.875V18.1141C38.8748 16.1427 39.6576 14.2519 41.0514 12.8577C42.4451 11.4635 44.3356 10.6801 46.307 10.6797H74.6594L75.0367 10.7172V23.3359Z" fill="#7695EA"/>
<path d="M75.0765 10.7219L93.0601 30.7703H82.4687C81.4925 30.7703 80.5258 30.578 79.624 30.2043C78.7221 29.8307 77.9027 29.283 77.2126 28.5927C76.5224 27.9023 75.975 27.0827 75.6017 26.1807C75.2283 25.2788 75.0363 24.3121 75.0366 23.3359V10.7172L75.0765 10.7219Z" fill="#FFBD39"/>
<path d="M34.1875 53.4344C34.1875 54.056 34.4344 54.6521 34.874 55.0917C35.3135 55.5312 35.9096 55.7782 36.5312 55.7782H38.875V64.1735L20.125 52.7149V49.3024C20.1251 48.4996 20.3314 47.7103 20.7241 47.0101C21.1169 46.31 21.6829 45.7225 22.368 45.3039L38.875 35.2985V42.8875H36.5312C35.9096 42.8875 35.3135 43.1345 34.874 43.574C34.4344 44.0135 34.1875 44.6097 34.1875 45.2313V53.4344Z" fill="#FFAE1F"/>
<path d="M69.6204 36.5359H69.1095C68.7365 36.5359 68.3788 36.3878 68.1151 36.124C67.8514 35.8603 67.7032 35.5026 67.7032 35.1297C67.7032 34.7567 67.8514 34.399 68.1151 34.1353C68.3788 33.8716 68.7365 33.7234 69.1095 33.7234H69.6204C69.9934 33.7234 70.3511 33.8716 70.6148 34.1353C70.8785 34.399 71.0267 34.7567 71.0267 35.1297C71.0267 35.5026 70.8785 35.8603 70.6148 36.124C70.3511 36.3878 69.9934 36.5359 69.6204 36.5359ZM64.0892 36.5359H54.4446C54.0717 36.5359 53.714 36.3878 53.4503 36.124C53.1865 35.8603 53.0384 35.5026 53.0384 35.1297C53.0384 34.7567 53.1865 34.399 53.4503 34.1353C53.714 33.8716 54.0717 33.7234 54.4446 33.7234H64.0892C64.4621 33.7234 64.8198 33.8716 65.0835 34.1353C65.3473 34.399 65.4954 34.7567 65.4954 35.1297C65.4954 35.5026 65.3473 35.8603 65.0835 36.124C64.8198 36.3878 64.4621 36.5359 64.0892 36.5359ZM49.3118 36.5359H46.6235C46.2506 36.5359 45.8929 36.3878 45.6292 36.124C45.3654 35.8603 45.2173 35.5026 45.2173 35.1297C45.2173 34.7567 45.3654 34.399 45.6292 34.1353C45.8929 33.8716 46.2506 33.7234 46.6235 33.7234H49.3118C49.6848 33.7234 50.0425 33.8716 50.3062 34.1353C50.5699 34.399 50.7181 34.7567 50.7181 35.1297C50.7181 35.5026 50.5699 35.8603 50.3062 36.124C50.0425 36.3878 49.6848 36.5359 49.3118 36.5359ZM60.4376 28.1898H46.6235C46.2506 28.1898 45.8929 28.0417 45.6292 27.7779C45.3654 27.5142 45.2173 27.1565 45.2173 26.7836C45.2173 26.4106 45.3654 26.0529 45.6292 25.7892C45.8929 25.5255 46.2506 25.3773 46.6235 25.3773H60.4376C60.8106 25.3773 61.1682 25.5255 61.432 25.7892C61.6957 26.0529 61.8438 26.4106 61.8438 26.7836C61.8438 27.1565 61.6957 27.5142 61.432 27.7779C61.1682 28.0417 60.8106 28.1898 60.4376 28.1898Z" fill="#FBFCFE"/>
<path d="M40.9587 52.0257C40.4264 52.0255 39.9061 51.8674 39.4637 51.5715C39.0212 51.2757 38.6763 50.8553 38.4727 50.3635C38.2692 49.8716 38.2159 49.3305 38.3198 48.8085C38.4237 48.2864 38.6801 47.8069 39.0565 47.4305C39.4329 47.0541 39.9124 46.7978 40.4344 46.6939C40.9565 46.59 41.4976 46.6432 41.9894 46.8468C42.4812 47.0504 42.9017 47.3952 43.1975 47.8377C43.4934 48.2802 43.6514 48.8004 43.6517 49.3327C43.651 50.0467 43.3671 50.7314 42.8622 51.2362C42.3573 51.7411 41.6727 52.0251 40.9587 52.0257ZM40.9587 49.2132C40.9429 49.2129 40.9272 49.2157 40.9126 49.2216C40.8979 49.2275 40.8846 49.2363 40.8735 49.2475C40.8623 49.2586 40.8535 49.272 40.8476 49.2866C40.8417 49.3012 40.8388 49.3169 40.8392 49.3327C40.839 49.3486 40.842 49.3643 40.8479 49.379C40.8538 49.3937 40.8626 49.4071 40.8737 49.4184C40.8848 49.4297 40.898 49.4387 40.9126 49.445C40.9272 49.4512 40.9428 49.4544 40.9587 49.4546C40.991 49.4546 41.022 49.4418 41.0449 49.4189C41.0677 49.396 41.0806 49.365 41.0806 49.3327C41.0806 49.3168 41.0775 49.3011 41.0713 49.2864C41.0652 49.2717 41.0562 49.2584 41.0448 49.2473C41.0334 49.2361 41.02 49.2274 41.0052 49.2215C40.9904 49.2157 40.9746 49.2128 40.9587 49.2132ZM53.9806 52.0257C53.4482 52.0259 52.9277 51.8683 52.4849 51.5727C52.0421 51.2771 51.6969 50.8569 51.4929 50.3651C51.289 49.8733 51.2355 49.3321 51.3391 48.8099C51.4427 48.2877 51.6989 47.8079 52.0752 47.4313C52.4515 47.0547 52.931 46.7981 53.4531 46.694C53.9752 46.59 54.5165 46.643 55.0084 46.8465C55.5004 47.0501 55.9209 47.3949 56.2169 47.8374C56.5129 48.28 56.671 48.8003 56.6712 49.3327C56.6706 50.0463 56.387 50.7306 55.8826 51.2354C55.3782 51.7402 54.6942 52.0244 53.9806 52.0257ZM53.9806 49.2132C53.9647 49.2128 53.9489 49.2157 53.9341 49.2215C53.9193 49.2274 53.9058 49.2361 53.8945 49.2473C53.8831 49.2584 53.8741 49.2717 53.8679 49.2864C53.8618 49.3011 53.8587 49.3168 53.8587 49.3327C53.8587 49.3647 53.8714 49.3954 53.894 49.4181C53.9167 49.4407 53.9474 49.4534 53.9794 49.4534C54.0114 49.4534 54.0421 49.4407 54.0647 49.4181C54.0874 49.3954 54.1001 49.3647 54.1001 49.3327C54.1004 49.3169 54.0975 49.3012 54.0916 49.2866C54.0858 49.272 54.077 49.2586 54.0658 49.2475C54.0546 49.2363 54.0413 49.2275 54.0267 49.2216C54.012 49.2157 53.9963 49.2129 53.9806 49.2132ZM67.0001 52.0257C66.4677 52.0259 65.9472 51.8683 65.5044 51.5727C65.0616 51.2771 64.7164 50.8569 64.5125 50.3651C64.3085 49.8733 64.255 49.3321 64.3586 48.8099C64.4623 48.2877 64.7184 47.8079 65.0947 47.4313C65.471 47.0547 65.9505 46.7981 66.4726 46.694C66.9947 46.59 67.536 46.643 68.0279 46.8465C68.5199 47.0501 68.9405 47.3949 69.2364 47.8374C69.5324 48.28 69.6905 48.8003 69.6907 49.3327C69.6901 50.0463 69.4065 50.7306 68.9021 51.2354C68.3977 51.7402 67.7137 52.0244 67.0001 52.0257ZM67.0001 49.2132C66.9681 49.2129 66.9373 49.2254 66.9145 49.2478C66.8916 49.2702 66.8786 49.3007 66.8782 49.3327C66.8782 49.365 66.8911 49.396 66.9139 49.4189C66.9368 49.4418 66.9678 49.4546 67.0001 49.4546C67.0324 49.4546 67.0634 49.4418 67.0863 49.4189C67.1091 49.396 67.122 49.365 67.122 49.3327C67.1216 49.3007 67.1086 49.2702 67.0857 49.2478C67.0629 49.2254 67.0321 49.2129 67.0001 49.2132ZM80.0196 52.0257C79.4873 52.0255 78.9671 51.8674 78.5246 51.5715C78.0821 51.2757 77.7373 50.8553 77.5337 50.3635C77.3301 49.8716 77.2769 49.3305 77.3808 48.8085C77.4847 48.2864 77.741 47.8069 78.1174 47.4305C78.4938 47.0541 78.9733 46.7978 79.4954 46.6939C80.0174 46.59 80.5586 46.6432 81.0504 46.8468C81.5422 47.0504 81.9626 47.3952 82.2585 47.8377C82.5543 48.2802 82.7124 48.8004 82.7126 49.3327C82.712 50.0467 82.4281 50.7314 81.9232 51.2362C81.4183 51.7411 80.7337 52.0251 80.0196 52.0257ZM80.0196 49.2132C80.0038 49.2129 79.9882 49.2157 79.9735 49.2216C79.9589 49.2275 79.9456 49.2363 79.9344 49.2475C79.9232 49.2586 79.9144 49.272 79.9085 49.2866C79.9026 49.3012 79.8998 49.3169 79.9001 49.3327C79.9001 49.3486 79.9032 49.3643 79.9093 49.3789C79.9153 49.3936 79.9242 49.4069 79.9354 49.4181C79.9467 49.4293 79.96 49.4382 79.9746 49.4442C79.9893 49.4503 80.0049 49.4534 80.0208 49.4534C80.0366 49.4534 80.0523 49.4503 80.067 49.4442C80.0816 49.4382 80.0949 49.4293 80.1061 49.4181C80.1174 49.4069 80.1262 49.3936 80.1323 49.3789C80.1384 49.3643 80.1415 49.3486 80.1415 49.3327C80.1415 49.3168 80.1384 49.3011 80.1322 49.2864C80.1261 49.2717 80.1171 49.2584 80.1057 49.2473C80.0944 49.2361 80.0809 49.2274 80.0661 49.2215C80.0513 49.2157 80.0355 49.2128 80.0196 49.2132ZM93.0415 52.0257C92.5091 52.0259 91.9886 51.8683 91.5458 51.5727C91.103 51.2771 90.7578 50.8569 90.5539 50.3651C90.3499 49.8733 90.2964 49.3321 90.4 48.8099C90.5037 48.2877 90.7598 47.8079 91.1361 47.4313C91.5124 47.0547 91.9919 46.7981 92.514 46.694C93.0362 46.59 93.5774 46.643 94.0694 46.8465C94.5613 47.0501 94.9818 47.3949 95.2778 47.8374C95.5738 48.28 95.7319 48.8003 95.7321 49.3327C95.7315 50.0463 95.4479 50.7306 94.9435 51.2354C94.4391 51.7402 93.7551 52.0244 93.0415 52.0257ZM93.0415 49.2132C93.0256 49.2128 93.0098 49.2157 92.995 49.2215C92.9802 49.2274 92.9667 49.2361 92.9554 49.2473C92.944 49.2584 92.935 49.2717 92.9289 49.2864C92.9227 49.3011 92.9196 49.3168 92.9196 49.3327C92.9196 49.365 92.9325 49.396 92.9553 49.4189C92.9782 49.4418 93.0092 49.4546 93.0415 49.4546C93.0573 49.4544 93.073 49.4512 93.0876 49.445C93.1022 49.4387 93.1154 49.4297 93.1265 49.4184C93.1376 49.4071 93.1464 49.3937 93.1523 49.379C93.1582 49.3643 93.1612 49.3486 93.161 49.3327C93.1614 49.3169 93.1585 49.3012 93.1526 49.2866C93.1467 49.272 93.1379 49.2586 93.1267 49.2475C93.1156 49.2363 93.1023 49.2275 93.0876 49.2216C93.073 49.2157 93.0573 49.2129 93.0415 49.2132Z" fill="#2A53C8"/>
</svg>
