<svg width="24" height="24" viewBox="0 0 24 24" fill="none" xmlns="http://www.w3.org/2000/svg">
<path fill-rule="evenodd" clip-rule="evenodd" d="M12.5 3H10.5V7.5H12.5V3ZM7.75777 12H2V21H21V12H15.2422C14.435 13.206 13.0602 14 11.5 14C9.93979 14 8.56504 13.206 7.75777 12ZM6.80957 14H4V19H19V14H16.1904C15.0075 15.2327 13.3434 16 11.5 16C9.65664 16 7.9925 15.2327 6.80957 14ZM18.618 5.28743L20.1274 6.59954L17.1752 9.99574L15.6657 8.68362L18.618 5.28743ZM4.382 5.28743L2.87258 6.59954L5.82485 9.99574L7.33427 8.68362L4.382 5.28743Z" fill="black"/>
</svg>
