<svg width="24" height="24" viewBox="0 0 24 24" fill="none" xmlns="http://www.w3.org/2000/svg">
<path d="M23.9927 3.39804C23.9928 3.20934 23.9419 3.02397 23.8451 2.86082C23.7483 2.69767 23.6091 2.56256 23.4417 2.46926C23.2742 2.37595 23.0845 2.32778 22.8919 2.32966C22.6993 2.33153 22.5106 2.38338 22.3451 2.47993C21.7068 2.85212 21.0196 3.13716 20.3025 3.32712C19.2784 2.46629 17.9723 1.99522 16.6229 2.00004C15.1426 2.00171 13.7208 2.56689 12.6579 3.57625C11.5949 4.58561 10.974 5.96014 10.9262 7.40958C8.00782 6.95368 5.36282 5.46148 3.49557 3.21754C3.38307 3.08382 3.23938 2.97857 3.07664 2.91066C2.9139 2.84275 2.73688 2.81417 2.5605 2.82733C2.38422 2.84155 2.21413 2.89762 2.06494 2.99069C1.91574 3.08376 1.79194 3.21104 1.70423 3.3615C1.2544 4.13051 0.99605 4.99261 0.950158 5.87778C0.904265 6.76296 1.07213 7.64626 1.44011 8.45596L1.43798 8.45804C1.27259 8.55783 1.1361 8.69752 1.04156 8.86375C0.947027 9.02997 0.897602 9.21718 0.898018 9.40746C0.896016 9.56443 0.905627 9.72134 0.926776 9.87695C1.03816 11.2212 1.64631 12.4795 2.63718 13.4158C2.56996 13.5413 2.52893 13.6786 2.5165 13.8198C2.50406 13.9609 2.52047 14.1031 2.56475 14.238C2.99674 15.5565 3.91542 16.6696 5.14101 17.3595C3.89584 17.8312 2.55137 17.9957 1.22604 17.8384C0.98074 17.8083 0.732263 17.8607 0.521367 17.987C0.310472 18.1134 0.149679 18.3063 0.0653656 18.5339C-0.0189478 18.7616 -0.0217758 19.0106 0.0573454 19.24C0.136467 19.4695 0.292839 19.6657 0.500812 19.7967C2.7802 21.2349 5.43418 21.9995 8.14543 21.9991C11.22 22.033 14.2198 21.0705 16.6783 19.2614C19.1367 17.4523 20.9159 14.898 21.7391 11.9959C22.1242 10.7316 22.3208 9.41952 22.3228 8.10021C22.3228 8.03031 22.3228 7.95833 22.3217 7.88634C22.8911 7.28479 23.3322 6.57794 23.6191 5.80723C23.9061 5.03652 24.0331 4.21745 23.9927 3.39804ZM20.3866 6.82947C20.2064 7.03816 20.1153 7.3068 20.132 7.57961C20.1427 7.75588 20.1416 7.93323 20.1416 8.10021C20.1394 9.21507 19.9726 10.3238 19.6464 11.3918C18.9741 13.8612 17.4753 16.0381 15.39 17.5739C13.3048 19.1097 10.7537 19.9156 8.14543 19.8624C7.2085 19.8627 6.2748 19.7549 5.36364 19.5411C6.52554 19.1743 7.61194 18.6088 8.5725 17.8708C8.74942 17.7343 8.87889 17.5476 8.94317 17.3362C9.00744 17.1247 9.00336 16.899 8.93148 16.69C8.85961 16.4809 8.72346 16.2988 8.54172 16.1686C8.35998 16.0383 8.14155 15.9664 7.91641 15.9626C7.00997 15.9488 6.14438 15.5908 5.50204 14.9641C5.66499 14.9339 5.82688 14.8963 5.98769 14.8514C6.22327 14.7858 6.42942 14.6443 6.57296 14.4499C6.71649 14.2555 6.78906 14.0194 6.77898 13.7797C6.76889 13.5399 6.67674 13.3105 6.51736 13.1283C6.35798 12.9461 6.14065 12.8217 5.90036 12.7753C5.3742 12.6735 4.87909 12.4542 4.45352 12.1345C4.02795 11.8147 3.68337 11.4032 3.44658 10.9317C3.64368 10.9581 3.84204 10.9745 4.04086 10.9808C4.27705 10.9843 4.50827 10.9141 4.70106 10.7804C4.89385 10.6466 5.03823 10.4563 5.11332 10.2369C5.18527 10.0155 5.18157 9.77715 5.10277 9.558C5.02397 9.33885 4.87438 9.15084 4.67667 9.02249C4.19698 8.70944 3.80404 8.28472 3.53305 7.78637C3.26206 7.28803 3.12147 6.73162 3.12389 6.16698C3.12389 6.09604 3.12601 6.02509 3.13028 5.95519C5.57452 8.1883 8.74486 9.50471 12.0827 9.67248C12.2512 9.67899 12.419 9.6479 12.5734 9.58157C12.7279 9.51524 12.8649 9.4154 12.9742 9.28959C13.0823 9.16257 13.1589 9.01268 13.1979 8.85174C13.2369 8.69079 13.2372 8.52318 13.1988 8.3621C13.1364 8.10715 13.1046 7.84595 13.104 7.58378C13.105 6.66985 13.4761 5.79363 14.1358 5.14739C14.7955 4.50114 15.6899 4.13766 16.6228 4.13669C17.1028 4.13544 17.5779 4.23167 18.018 4.41932C18.4581 4.60697 18.8537 4.88197 19.1799 5.22695C19.3057 5.35951 19.464 5.45835 19.6398 5.51405C19.8156 5.56976 20.003 5.58048 20.1842 5.5452C20.6322 5.45979 21.0737 5.34477 21.5059 5.20092C21.2111 5.79168 20.8345 6.33971 20.3866 6.82947Z" fill="#80B0FF"/>
</svg>
