<svg width="138" height="22" viewBox="0 0 138 22" fill="none" xmlns="http://www.w3.org/2000/svg">
<path d="M98.6962 21.1552C98.6962 21.6218 99.0744 22 99.541 22C100.008 22 100.386 21.6218 100.386 21.1552V0.844789C100.386 0.378225 100.008 0 99.541 0C99.0744 0 98.6962 0.378225 98.6962 0.844789V21.1552Z" fill="#75839D"/>
<path d="M78.4209 6.97072C78.4209 7.79413 79.0884 8.46164 79.9118 8.46164H93.8257C94.6492 8.46164 95.3167 7.79413 95.3167 6.97072V6.56795C95.3167 5.74454 94.6492 5.07703 93.8257 5.07703L79.9118 5.07703C79.0884 5.07703 78.4209 5.74454 78.4209 6.56795V6.97072Z" fill="#75839D"/>
<path d="M85.1794 15.4323C85.1794 16.2557 85.847 16.9232 86.6704 16.9232H93.826C94.6494 16.9232 95.3169 16.2557 95.3169 15.4323V15.0295C95.3169 14.2061 94.6494 13.5386 93.826 13.5386H86.6704C85.847 13.5386 85.1794 14.2061 85.1794 15.0295V15.4323Z" fill="#75839D"/>
<path d="M1.68958 21.1552C1.68958 21.6218 1.31135 22 0.844786 22C0.378222 22 -2.6226e-06 21.6218 -2.6226e-06 21.1552L-2.6226e-06 0.844789C-2.6226e-06 0.378225 0.378222 0 0.844786 0C1.31135 0 1.68958 0.378225 1.68958 0.844789L1.68958 21.1552Z" fill="#75839D"/>
<path d="M21.9644 6.97072C21.9644 7.79413 21.2968 8.46164 20.4734 8.46164H6.55951C5.73609 8.46164 5.06858 7.79413 5.06858 6.97072V6.56795C5.06858 5.74454 5.73609 5.07703 6.55951 5.07703L20.4734 5.07703C21.2968 5.07703 21.9644 5.74454 21.9644 6.56795V6.97072Z" fill="#75839D"/>
<path d="M15.2058 15.4323C15.2058 16.2557 14.5383 16.9232 13.7149 16.9232H6.55927C5.73586 16.9232 5.06835 16.2557 5.06835 15.4323V15.0295C5.06835 14.2061 5.73586 13.5386 6.55927 13.5386H13.7149C14.5383 13.5386 15.2058 14.2061 15.2058 15.0295V15.4323Z" fill="#75839D"/>
<path d="M40.9929 6.56795C40.9929 5.74454 41.6604 5.07703 42.4838 5.07703L58.0873 5.07703C58.9108 5.07703 59.5783 5.74454 59.5783 6.56795V6.97072C59.5783 7.79413 58.9108 8.46164 58.0874 8.46164H42.4838C41.6604 8.46164 40.9929 7.79413 40.9929 6.97072V6.56795Z" fill="#75839D"/>
<rect x="44.3722" y="13.5386" width="11.827" height="3.38462" rx="1.49092" fill="#75839D"/>
<path d="M49.4412 0.844789C49.4412 0.378225 49.8194 0 50.286 0C50.7525 0 51.1307 0.378225 51.1307 0.844789V21.1552C51.1307 21.6218 50.7525 22 50.286 22C49.8194 22 49.4412 21.6218 49.4412 21.1552V0.844789Z" fill="#75839D"/>
<path d="M119.414 6.56783C119.414 5.74441 120.082 5.0769 120.905 5.0769L136.509 5.0769C137.332 5.0769 138 5.74441 138 6.56783V6.97059C138 7.79401 137.332 8.46152 136.509 8.46152H120.905C120.082 8.46152 119.414 7.79401 119.414 6.97059V6.56783Z" fill="#75839D"/>
<rect x="119.415" y="13.3132" width="18.3556" height="3.80385" rx="1.49092" fill="#75839D"/>
</svg>
