<svg width="16" height="16" viewBox="0 0 16 16" fill="none" xmlns="http://www.w3.org/2000/svg">
<path d="M14.4914 2.50075L12.8781 0.887449C12.8162 0.82553 12.7427 0.776412 12.6618 0.742899C12.581 0.709387 12.4943 0.692139 12.4067 0.692139C12.3192 0.692139 12.2325 0.709387 12.1516 0.742899C12.0708 0.776412 11.9973 0.82553 11.9354 0.887449L8.882 3.94084C8.75697 4.06584 8.68671 4.23537 8.68666 4.41217V6.02548C8.68667 6.20228 8.75691 6.37185 8.88193 6.49687C9.00696 6.62189 9.17652 6.69213 9.35333 6.69214H10.967C11.1438 6.69209 11.3133 6.62183 11.4383 6.49681L14.4914 3.44342C14.5533 3.38153 14.6024 3.30805 14.6359 3.22718C14.6694 3.1463 14.6867 3.05962 14.6867 2.97208C14.6867 2.88454 14.6694 2.79786 14.6359 2.71699C14.6024 2.63611 14.5533 2.56264 14.4914 2.50075ZM10.6909 5.35881H10.02V4.68824L12.4067 2.30152L13.0773 2.97208L10.6909 5.35881ZM12.6668 7.33342C12.49 7.33342 12.3204 7.40365 12.1954 7.52868C12.0704 7.6537 12.0002 7.82327 12.0002 8.00008V9.59448L11.0132 8.6075C10.6657 8.26067 10.1948 8.06588 9.70378 8.06588C9.2128 8.06588 8.74188 8.26067 8.39437 8.6075L7.92904 9.07283L6.27165 7.41542C5.92454 7.06882 5.45406 6.87416 4.96354 6.87416C4.47302 6.87416 4.00255 7.06882 3.65544 7.41542L2.66683 8.40408V4.66675C2.66706 4.49001 2.73737 4.32057 2.86234 4.1956C2.98732 4.07062 3.15676 4.00031 3.3335 4.00008H7.3335C7.51031 4.00008 7.67988 3.92984 7.8049 3.80482C7.92992 3.6798 8.00016 3.51023 8.00016 3.33342C8.00016 3.1566 7.92992 2.98704 7.8049 2.86201C7.67988 2.73699 7.51031 2.66675 7.3335 2.66675H3.3335C2.80324 2.66733 2.29487 2.87823 1.91992 3.25317C1.54497 3.62812 1.33407 4.13649 1.3335 4.66675V12.6667C1.33407 13.197 1.54497 13.7054 1.91992 14.0803C2.29487 14.4553 2.80324 14.6662 3.3335 14.6667H11.3335C11.8638 14.6662 12.3721 14.4553 12.7471 14.0803C13.122 13.7054 13.3329 13.197 13.3335 12.6667V8.00008C13.3335 7.82327 13.2633 7.6537 13.1382 7.52868C13.0132 7.40365 12.8436 7.33342 12.6668 7.33342ZM3.3335 13.3334C3.15676 13.3332 2.98732 13.2629 2.86234 13.1379C2.73737 13.0129 2.66706 12.8435 2.66683 12.6667V10.2895L4.59816 8.35814C4.69703 8.26499 4.82773 8.21311 4.96356 8.21311C5.09939 8.21311 5.23009 8.26499 5.32896 8.35814L7.44096 10.4695C7.44662 10.4756 7.44869 10.4841 7.45459 10.49L10.2983 13.3334H3.3335ZM12.0002 12.6667C11.9969 12.7953 11.9554 12.9199 11.881 13.0248L8.87174 10.0155L9.33708 9.55021C9.43449 9.45326 9.56634 9.39884 9.70378 9.39884C9.84121 9.39884 9.97306 9.45326 10.0705 9.55021L12.0002 11.4799V12.6667Z" fill="white"/>
</svg>
