<svg width="15" height="14" viewBox="0 0 15 14" fill="none" xmlns="http://www.w3.org/2000/svg">
<path d="M7.31447 0C7.00275 0 6.69103 0.161328 6.5297 0.486719L4.74415 4.10703L0.749232 4.68672C0.0328255 4.79063 -0.254284 5.67383 0.265247 6.17969L3.15548 8.99609L2.47189 12.9746C2.34884 13.6883 3.10079 14.2324 3.74064 13.8961L7.31447 12.0203V0Z" fill="#FFC403"/>
<path d="M7.26887 0C7.58059 0 7.89231 0.161328 8.05364 0.486719L9.83918 4.10703L13.8341 4.68672C14.5505 4.79063 14.8376 5.67383 14.3181 6.17969L11.4279 8.99609L12.1114 12.9746C12.2345 13.6883 11.4825 14.2324 10.8427 13.8961L7.26887 12.0203V0Z" fill="#FFC403"/>
</svg>
