<svg width="32" height="32" viewBox="0 0 32 32" fill="none" xmlns="http://www.w3.org/2000/svg">
<path d="M9.89324 20.7199C9.6449 20.9697 9.50551 21.3076 9.50551 21.6599C9.50551 22.0121 9.6449 22.35 9.89324 22.5999C10.0172 22.7248 10.1647 22.824 10.3271 22.8917C10.4896 22.9594 10.6639 22.9943 10.8399 22.9943C11.0159 22.9943 11.1902 22.9594 11.3527 22.8917C11.5152 22.824 11.6626 22.7248 11.7866 22.5999C12.0349 22.35 12.1743 22.0121 12.1743 21.6599C12.1743 21.3076 12.0349 20.9697 11.7866 20.7199C11.6626 20.5949 11.5152 20.4957 11.3527 20.428C11.1902 20.3603 11.0159 20.3255 10.8399 20.3255C10.6639 20.3255 10.4896 20.3603 10.3271 20.428C10.1647 20.4957 10.0172 20.5949 9.89324 20.7199ZM9.89324 9.39986C9.6449 9.64968 9.50551 9.98761 9.50551 10.3399C9.50551 10.6921 9.6449 11.03 9.89324 11.2799C10.0172 11.4048 10.1647 11.504 10.3271 11.5717C10.4896 11.6394 10.6639 11.6743 10.8399 11.6743C11.0159 11.6743 11.1902 11.6394 11.3527 11.5717C11.5152 11.504 11.6626 11.4048 11.7866 11.2799C12.0349 11.03 12.1743 10.6921 12.1743 10.3399C12.1743 9.98761 12.0349 9.64968 11.7866 9.39986C11.6626 9.27489 11.5152 9.1757 11.3527 9.108C11.1902 9.04031 11.0159 9.00546 10.8399 9.00546C10.6639 9.00546 10.4896 9.04031 10.3271 9.108C10.1647 9.1757 10.0172 9.27489 9.89324 9.39986ZM16.4932 22.7332C16.2295 22.7332 15.9717 22.8114 15.7525 22.9579C15.5332 23.1044 15.3623 23.3126 15.2614 23.5563C15.1605 23.7999 15.1341 24.068 15.1855 24.3266C15.237 24.5853 15.364 24.8229 15.5504 25.0093C15.7369 25.1958 15.9745 25.3228 16.2331 25.3742C16.4918 25.4257 16.7598 25.3993 17.0035 25.2984C17.2471 25.1974 17.4554 25.0266 17.6019 24.8073C17.7484 24.588 17.8266 24.3302 17.8266 24.0665C17.8356 23.8859 17.8078 23.7053 17.7449 23.5358C17.6819 23.3662 17.5851 23.2113 17.4604 23.0803C17.3357 22.9494 17.1856 22.8451 17.0194 22.774C16.8531 22.7029 16.6741 22.6663 16.4932 22.6665V22.7332ZM8.49324 14.7332C8.22953 14.7332 7.97174 14.8114 7.75248 14.9579C7.53321 15.1044 7.36232 15.3126 7.2614 15.5563C7.16048 15.7999 7.13408 16.068 7.18552 16.3266C7.23697 16.5853 7.36396 16.8229 7.55043 17.0093C7.7369 17.1958 7.97448 17.3228 8.23312 17.3742C8.49176 17.4257 8.75985 17.3993 9.00348 17.2984C9.24712 17.1974 9.45536 17.0266 9.60186 16.8073C9.74837 16.588 9.82657 16.3302 9.82657 16.0665C9.83561 15.8859 9.80782 15.7053 9.74487 15.5358C9.68193 15.3662 9.58515 15.2113 9.46042 15.0803C9.3357 14.9494 9.18564 14.8451 9.01936 14.774C8.85309 14.7029 8.67409 14.6663 8.49324 14.6665V14.7332ZM16.4932 6.73319C16.2295 6.73319 15.9717 6.81139 15.7525 6.9579C15.5332 7.10441 15.3623 7.31265 15.2614 7.55628C15.1605 7.79992 15.1341 8.06801 15.1855 8.32665C15.237 8.58529 15.364 8.82286 15.5504 9.00933C15.7369 9.1958 15.9745 9.32279 16.2331 9.37424C16.4918 9.42569 16.7598 9.39928 17.0035 9.29836C17.2471 9.19745 17.4554 9.02655 17.6019 8.80729C17.7484 8.58802 17.8266 8.33023 17.8266 8.06653C17.8356 7.8859 17.8078 7.70533 17.7449 7.53578C17.6819 7.36624 17.5851 7.21128 17.4604 7.08032C17.3357 6.94936 17.1856 6.84514 17.0194 6.774C16.8531 6.70287 16.6741 6.6663 16.4932 6.66653V6.73319ZM21.2132 9.46653C21.026 9.65268 20.8982 9.89024 20.8461 10.1491C20.794 10.408 20.82 10.6765 20.9206 10.9205C21.0213 11.1646 21.1922 11.3734 21.4117 11.5202C21.6311 11.6671 21.8892 11.7455 22.1532 11.7455C22.4173 11.7455 22.6754 11.6671 22.8948 11.5202C23.1143 11.3734 23.2852 11.1646 23.3858 10.9205C23.4865 10.6765 23.5125 10.408 23.4604 10.1491C23.4083 9.89024 23.2805 9.65268 23.0932 9.46653C22.8523 9.20913 22.5193 9.05762 22.167 9.04513C21.8147 9.03263 21.4718 9.16018 21.2132 9.39986V9.46653ZM29.6132 9.46653C28.3942 7.02959 26.5205 4.98042 24.202 3.54879C21.8836 2.11717 19.2122 1.3597 16.4874 1.36133C13.7626 1.36296 11.0921 2.12362 8.77535 3.55801C6.45864 4.99241 4.58731 7.04382 3.37121 9.48221C2.15511 11.9206 1.64233 14.6496 1.89037 17.3631C2.1384 20.0766 3.13744 22.6673 4.77546 24.8448C6.41348 27.0223 8.62572 28.7005 11.1641 29.6911C13.7025 30.6817 16.4666 30.9456 19.1466 30.4532C19.8205 30.3264 20.4624 30.0665 21.0347 29.6888C21.6071 29.311 22.0984 28.823 22.4799 28.2532C22.891 27.6337 23.1747 26.9386 23.3143 26.2083C23.454 25.4781 23.4468 24.7273 23.2932 23.9999C23.2093 23.5603 23.1647 23.114 23.1599 22.6665C23.1657 21.3745 23.5469 20.112 24.2571 19.0325C24.9672 17.9531 25.9757 17.1033 27.1599 16.5865C27.7984 16.3006 28.3715 15.887 28.8439 15.371C29.3163 14.855 29.678 14.2477 29.9066 13.5865C30.1378 12.9109 30.2309 12.1957 30.1805 11.4834C30.1302 10.7711 29.9372 10.0762 29.6132 9.43986V9.46653ZM27.3466 12.7199C27.2328 13.0389 27.0562 13.332 26.8271 13.5816C26.5981 13.8312 26.3214 14.0324 26.0132 14.1732C24.3732 14.9073 22.98 16.0993 22.0008 17.6059C21.0216 19.1125 20.4981 20.8697 20.4932 22.6665C20.4952 23.2933 20.5577 23.9184 20.6799 24.5332C20.7613 24.9089 20.7667 25.2972 20.6957 25.675C20.6247 26.0528 20.4788 26.4126 20.2666 26.7332C20.087 27.0137 19.8507 27.2536 19.5728 27.4373C19.2949 27.621 18.9817 27.7445 18.6532 27.7999C17.941 27.9337 17.2179 28.0007 16.4932 27.9999C14.8855 28.0006 13.2939 27.6783 11.8131 27.0521C10.3323 26.4258 8.99251 25.5083 7.87319 24.3542C6.75386 23.2 5.87788 21.8327 5.29726 20.3335C4.71664 18.8342 4.44322 17.2335 4.49324 15.6265C4.59672 12.6302 5.81191 9.7798 7.90208 7.63047C9.99224 5.48115 12.8077 4.1869 15.7999 3.99986H16.4799C18.7142 4.00042 20.9041 4.62477 22.8027 5.80261C24.7014 6.98045 26.2335 8.66499 27.2266 10.6665C27.5322 11.2998 27.5754 12.0282 27.3466 12.6932V12.7199ZM16.4932 14.6665C16.2295 14.6665 15.9717 14.7447 15.7525 14.8912C15.5332 15.0377 15.3623 15.246 15.2614 15.4896C15.1605 15.7332 15.1341 16.0013 15.1855 16.26C15.237 16.5186 15.364 16.7562 15.5504 16.9427C15.7369 17.1291 15.9745 17.2561 16.2331 17.3076C16.4918 17.359 16.7598 17.3326 17.0035 17.2317C17.2471 17.1308 17.4554 16.9599 17.6019 16.7406C17.7484 16.5214 17.8266 16.2636 17.8266 15.9999C17.8266 15.6462 17.6861 15.3071 17.436 15.057C17.186 14.807 16.8469 14.6665 16.4932 14.6665Z" fill="#75839D"/>
</svg>
