<svg width="11" height="11" viewBox="0 0 11 11" fill="none" xmlns="http://www.w3.org/2000/svg">
<path d="M3.52096 2.29173C3.09025 2.28476 2.67015 2.42563 2.33071 2.69084C1.99126 2.95606 1.75297 3.32961 1.65555 3.74922C1.55741 4.22542 1.65245 4.7211 1.91977 5.12723C2.18708 5.53336 2.60477 5.81667 3.08096 5.91484L3.09334 5.91714C3.21673 5.94461 3.34276 5.95844 3.46917 5.95839V8.70838H4.38584V3.20839H5.3025V8.70838H6.21917V3.20839H7.13583V2.29173H3.52096ZM2.53555 4.12506C2.53555 3.88194 2.63213 3.64878 2.80403 3.47688C2.97594 3.30497 3.2091 3.20839 3.45221 3.20839V5.04172C3.2091 5.04172 2.97594 4.94514 2.80403 4.77324C2.63213 4.60133 2.53555 4.36817 2.53555 4.12506ZM9.38304 8.01676C9.38304 8.15273 9.34272 8.28565 9.26717 8.39871C9.19163 8.51177 9.08426 8.59989 8.95863 8.65192C8.83301 8.70396 8.69477 8.71757 8.56141 8.69105C8.42805 8.66452 8.30555 8.59904 8.2094 8.50289C8.11325 8.40674 8.04778 8.28424 8.02125 8.15088C7.99472 8.01752 8.00834 7.87929 8.06037 7.75366C8.11241 7.62804 8.20053 7.52067 8.31358 7.44512C8.42664 7.36958 8.55956 7.32926 8.69554 7.32926C8.87787 7.32926 9.05274 7.40169 9.18167 7.53062C9.3106 7.65955 9.38304 7.83442 9.38304 8.01676ZM9.38304 6.18343C9.38304 6.3194 9.34272 6.45232 9.26717 6.56538C9.19163 6.67844 9.08426 6.76656 8.95863 6.81859C8.83301 6.87063 8.69477 6.88424 8.56141 6.85772C8.42805 6.83119 8.30555 6.76571 8.2094 6.66956C8.11325 6.57341 8.04778 6.45091 8.02125 6.31755C7.99472 6.18419 8.00834 6.04596 8.06037 5.92033C8.11241 5.79471 8.20053 5.68734 8.31358 5.61179C8.42664 5.53625 8.55956 5.49593 8.69554 5.49593C8.87787 5.49593 9.05274 5.56836 9.18167 5.69729C9.3106 5.82622 9.38304 6.00109 9.38304 6.18343ZM9.38304 4.3501C9.38304 4.48607 9.34272 4.61899 9.26717 4.73205C9.19163 4.84511 9.08426 4.93323 8.95863 4.98526C8.83301 5.0373 8.69477 5.05091 8.56141 5.02439C8.42805 4.99786 8.30555 4.93238 8.2094 4.83623C8.11325 4.74008 8.04778 4.61758 8.02125 4.48422C7.99472 4.35086 8.00834 4.21263 8.06037 4.087C8.11241 3.96138 8.20053 3.85401 8.31358 3.77846C8.42664 3.70292 8.55956 3.6626 8.69554 3.6626C8.87787 3.6626 9.05274 3.73503 9.18167 3.86396C9.3106 3.99289 9.38304 4.16776 9.38304 4.3501Z" fill="black"/>
</svg>
