<svg width="24" height="24" viewBox="0 0 24 24" fill="none" xmlns="http://www.w3.org/2000/svg">
<path d="M11.5 13L11.5 12.5L11 12.5L8 12.5C7.86739 12.5 7.74021 12.4473 7.64644 12.3536C7.55267 12.2598 7.5 12.1326 7.5 12C7.5 11.8674 7.55267 11.7402 7.64644 11.6464C7.74021 11.5527 7.86739 11.5 8 11.5L11 11.5L11.5 11.5L11.5 11L11.5 8C11.5 7.86739 11.5527 7.74021 11.6464 7.64645C11.7402 7.55268 11.8674 7.5 12 7.5C12.1326 7.5 12.2598 7.55268 12.3535 7.64645C12.4473 7.74021 12.5 7.86739 12.5 8L12.5 11L12.5 11.5L13 11.5L16 11.5C16.1326 11.5 16.2598 11.5527 16.3535 11.6464C16.4473 11.7402 16.5 11.8674 16.5 12C16.5 12.1326 16.4473 12.2598 16.3535 12.3536C16.2598 12.4473 16.1326 12.5 16 12.5L13 12.5L12.5 12.5L12.5 13L12.5 16C12.5 16.1326 12.4473 16.2598 12.3535 16.3536C12.2598 16.4473 12.1326 16.5 12 16.5C11.8674 16.5 11.7402 16.4473 11.6464 16.3536C11.5527 16.2598 11.5 16.1326 11.5 16L11.5 13ZM17.2779 19.899C15.7156 20.9428 13.8789 21.5 12 21.5C10.7524 21.5 9.5171 21.2543 8.3645 20.7769C7.21191 20.2994 6.16464 19.5997 5.28248 18.7175C4.40033 17.8354 3.70056 16.7881 3.22314 15.6355C2.74572 14.4829 2.5 13.2476 2.5 12C2.5 10.1211 3.05716 8.28435 4.10104 6.72208C5.14491 5.15982 6.62861 3.94217 8.3645 3.22314C10.1004 2.50411 12.0105 2.31598 13.8534 2.68254C15.6962 3.0491 17.3889 3.95389 18.7175 5.28249C20.0461 6.61108 20.9509 8.30382 21.3175 10.1466C21.684 11.9895 21.4959 13.8996 20.7769 15.6355C20.0578 17.3714 18.8402 18.8551 17.2779 19.899ZM16.7223 4.93251C15.3245 3.99852 13.6811 3.5 12 3.5C9.74566 3.5 7.58365 4.39553 5.98959 5.98959C4.39553 7.58365 3.5 9.74566 3.5 12C3.5 13.6811 3.99851 15.3245 4.93251 16.7223C5.8665 18.1202 7.19401 19.2096 8.74719 19.853C10.3004 20.4963 12.0094 20.6646 13.6583 20.3367C15.3071 20.0087 16.8217 19.1992 18.0104 18.0104C19.1992 16.8217 20.0087 15.3071 20.3367 13.6583C20.6646 12.0094 20.4963 10.3004 19.853 8.74719C19.2096 7.19402 18.1202 5.8665 16.7223 4.93251Z" fill="#75839D" stroke="#75839D"/>
</svg>
