<svg width="32" height="32" viewBox="0 0 32 32" fill="none" xmlns="http://www.w3.org/2000/svg">
<path d="M23.1198 7.28002C22.8034 7.28002 22.494 7.37386 22.2309 7.54967C21.9678 7.72548 21.7627 7.97537 21.6416 8.26773C21.5205 8.56009 21.4888 8.8818 21.5506 9.19216C21.6123 9.50253 21.7647 9.78763 21.9885 10.0114C22.2122 10.2352 22.4973 10.3875 22.8077 10.4493C23.1181 10.511 23.4398 10.4793 23.7321 10.3582C24.0245 10.2371 24.2744 10.0321 24.4502 9.76893C24.626 9.50581 24.7198 9.19647 24.7198 8.88002C24.7198 8.45567 24.5513 8.04871 24.2512 7.74865C23.9512 7.44859 23.5442 7.28002 23.1198 7.28002ZM29.2532 10.5067C29.2272 9.40042 29.02 8.30589 28.6398 7.26669C28.3008 6.37753 27.7732 5.57239 27.0932 4.90669C26.4329 4.22326 25.6259 3.69892 24.7332 3.37335C23.6967 2.98157 22.601 2.76963 21.4932 2.74669C20.0798 2.66669 19.6265 2.66669 15.9998 2.66669C12.3732 2.66669 11.9198 2.66669 10.5065 2.74669C9.39871 2.76963 8.30296 2.98157 7.2665 3.37335C6.37541 3.70222 5.56908 4.2261 4.9065 4.90669C4.22307 5.56692 3.69874 6.37394 3.37317 7.26669C2.98138 8.30314 2.76945 9.39889 2.7465 10.5067C2.6665 11.92 2.6665 12.3734 2.6665 16C2.6665 19.6267 2.6665 20.08 2.7465 21.4934C2.76945 22.6012 2.98138 23.6969 3.37317 24.7334C3.69874 25.6261 4.22307 26.4331 4.9065 27.0934C5.56908 27.7739 6.37541 28.2978 7.2665 28.6267C8.30296 29.0185 9.39871 29.2304 10.5065 29.2534C11.9198 29.3334 12.3732 29.3334 15.9998 29.3334C19.6265 29.3334 20.0798 29.3334 21.4932 29.2534C22.601 29.2304 23.6967 29.0185 24.7332 28.6267C25.6259 28.3011 26.4329 27.7768 27.0932 27.0934C27.7762 26.4301 28.3043 25.6243 28.6398 24.7334C29.02 23.6941 29.2272 22.5996 29.2532 21.4934C29.2532 20.08 29.3332 19.6267 29.3332 16C29.3332 12.3734 29.3332 11.92 29.2532 10.5067ZM26.8532 21.3334C26.8435 22.1797 26.6902 23.0183 26.3998 23.8134C26.1869 24.3936 25.845 24.9179 25.3998 25.3467C24.9674 25.7874 24.4441 26.1286 23.8665 26.3467C23.0714 26.637 22.2329 26.7903 21.3865 26.8C20.0532 26.8667 19.5598 26.88 16.0532 26.88C12.5465 26.88 12.0532 26.88 10.7198 26.8C9.84102 26.8165 8.96596 26.6812 8.13317 26.4C7.58088 26.1708 7.08165 25.8304 6.6665 25.4C6.22396 24.9717 5.8863 24.4469 5.67984 23.8667C5.35431 23.0602 5.17376 22.2026 5.1465 21.3334C5.1465 20 5.0665 19.5067 5.0665 16C5.0665 12.4934 5.0665 12 5.1465 10.6667C5.15248 9.80143 5.31044 8.94395 5.61317 8.13335C5.8479 7.57057 6.20819 7.0689 6.6665 6.66669C7.07159 6.20824 7.57222 5.84415 8.13317 5.60002C8.94591 5.30675 9.8025 5.15346 10.6665 5.14669C11.9998 5.14669 12.4932 5.06669 15.9998 5.06669C19.5065 5.06669 19.9998 5.06669 21.3332 5.14669C22.1795 5.15639 23.0181 5.30968 23.8132 5.60002C24.4191 5.82489 24.9629 6.19048 25.3998 6.66669C25.8368 7.07626 26.1782 7.577 26.3998 8.13335C26.6962 8.94527 26.8496 9.80239 26.8532 10.6667C26.9198 12 26.9332 12.4934 26.9332 16C26.9332 19.5067 26.9198 20 26.8532 21.3334ZM15.9998 9.16002C14.6476 9.16266 13.3265 9.56606 12.2034 10.3192C11.0803 11.0724 10.2057 12.1416 9.69002 13.3917C9.17436 14.6418 9.0408 16.0166 9.30623 17.3426C9.57166 18.6685 10.2242 19.8861 11.1813 20.8413C12.1384 21.7966 13.3572 22.4467 14.6837 22.7096C16.0101 22.9724 17.3847 22.8362 18.6338 22.3181C19.8829 21.8 20.9503 20.9233 21.7013 19.7987C22.4523 18.6742 22.8532 17.3523 22.8532 16C22.8549 15.1002 22.6788 14.2088 22.3348 13.3773C21.9909 12.5458 21.4859 11.7904 20.849 11.1548C20.2121 10.5191 19.4558 10.0156 18.6236 9.67326C17.7914 9.33093 16.8997 9.1565 15.9998 9.16002ZM15.9998 20.44C15.1217 20.44 14.2633 20.1796 13.5331 19.6917C12.803 19.2039 12.2339 18.5104 11.8978 17.6991C11.5618 16.8878 11.4738 15.9951 11.6452 15.1338C11.8165 14.2725 12.2393 13.4814 12.8603 12.8605C13.4812 12.2395 14.2724 11.8167 15.1336 11.6453C15.9949 11.474 16.8876 11.5619 17.699 11.898C18.5103 12.234 19.2037 12.8031 19.6916 13.5333C20.1794 14.2634 20.4398 15.1219 20.4398 16C20.4398 16.5831 20.325 17.1604 20.1019 17.6991C19.8787 18.2378 19.5517 18.7273 19.1394 19.1396C18.7271 19.5519 18.2376 19.8789 17.699 20.102C17.1603 20.3252 16.5829 20.44 15.9998 20.44Z" fill="#262B35"/>
</svg>
