<svg width="24" height="24" viewBox="0 0 24 24" fill="none" xmlns="http://www.w3.org/2000/svg">
<path d="M21 12.15C21 10.95 20.0625 10.3125 18.75 10.3125H14.9625C15.225 9.3 15.375 8.325 15.375 7.5C15.375 4.2375 14.475 3.5625 13.6875 3.5625C13.1625 3.5625 12.7875 3.6 12.2625 3.9375C12.1125 4.0125 12.0375 4.1625 12 4.3125L11.4375 7.35C10.8375 8.9625 9.3 10.35 8.0625 11.2875V19.3125C8.475 19.3125 9 19.5375 9.4875 19.8C10.0875 20.1 10.725 20.4 11.4375 20.4H16.8C17.925 20.4 18.75 19.5 18.75 18.7125C18.75 18.5625 18.75 18.4125 18.7125 18.3C19.425 18.0375 19.875 17.4375 19.875 16.7625C19.875 16.425 19.8 16.125 19.6875 15.9C20.1 15.6 20.55 15.1125 20.55 14.5125C20.55 14.2125 20.4 13.8375 20.175 13.575C20.6625 13.2 21 12.675 21 12.15ZM19.8375 12.15C19.8375 12.8625 19.0875 12.9375 18.975 13.275C18.8625 13.65 19.425 13.8 19.425 14.475C19.425 15.1875 18.5625 15.1875 18.45 15.525C18.3 15.9375 18.7125 16.0875 18.7125 16.7625C18.7125 16.8 18.7125 16.8375 18.7125 16.875C18.6 17.4375 17.7375 17.475 17.5875 17.7C17.4375 17.9625 17.625 18.1125 17.625 18.7125C17.625 19.05 17.25 19.275 16.8 19.275H11.4375C11.025 19.275 10.5 19.05 10.0125 18.7875C9.5625 18.5625 9.1125 18.3375 8.625 18.225V12.2625C10.0125 11.2125 11.8125 9.6 12.525 7.65C12.525 7.6125 12.525 7.575 12.5625 7.575L13.0875 4.7625C13.275 4.6875 13.425 4.6875 13.725 4.6875C13.8375 4.6875 14.2875 5.3625 14.2875 7.5C14.2875 8.325 14.1375 9.2625 13.8375 10.3125H13.6875C13.3875 10.3125 13.125 10.575 13.125 10.875C13.125 11.175 13.3875 11.4375 13.6875 11.4375H18.75C19.3125 11.4375 19.8375 11.7 19.8375 12.15Z" fill="#0061FF" stroke="#0061FF" stroke-width="0.5"/>
<path d="M7.5 20.4375H4.125C3.4875 20.4375 3 19.95 3 19.3125V11.4375C3 10.8 3.4875 10.3125 4.125 10.3125H7.5C8.1375 10.3125 8.625 10.8 8.625 11.4375V19.3125C8.625 19.95 8.1375 20.4375 7.5 20.4375ZM4.125 11.4375V19.3125H7.5V11.4375H4.125Z" fill="#0061FF" stroke="#0061FF" stroke-width="0.5"/>
</svg>
