<svg width="13" height="16" viewBox="0 0 13 16" fill="none" xmlns="http://www.w3.org/2000/svg">
<path d="M0.616519 14.7692H11.6934C11.8472 14.7689 11.9955 14.8262 12.1092 14.9299C12.2228 15.0335 12.2935 15.1759 12.3074 15.329C12.3213 15.4822 12.2774 15.635 12.1842 15.7573C12.0911 15.8797 11.9555 15.9628 11.8042 15.9902L11.6934 16H0.616519C0.462739 16.0003 0.314426 15.943 0.200786 15.8394C0.0871453 15.7358 0.0164132 15.5934 0.00251843 15.4402C-0.0113763 15.2871 0.0325732 15.1343 0.125712 15.0119C0.218851 14.8895 0.35443 14.8065 0.50575 14.7791L0.616519 14.7692ZM6.04421 0.00984621L6.15498 3.4228e-08C6.29901 -4.79829e-05 6.4385 0.0504264 6.54914 0.142633C6.65979 0.23484 6.73459 0.362936 6.76052 0.504615L6.77036 0.615385V11.4363L10.0713 8.13661C10.1731 8.03467 10.3075 7.97169 10.451 7.95865C10.5945 7.9456 10.738 7.98332 10.8565 8.06523L10.9427 8.13661C11.0444 8.23859 11.1072 8.37303 11.12 8.51652C11.1328 8.66001 11.0949 8.80344 11.0128 8.92184L10.9414 9.00677L6.59067 13.3588C6.4887 13.4605 6.35425 13.5233 6.21077 13.5361C6.06728 13.5489 5.92384 13.511 5.80544 13.4289L5.71929 13.3588L1.36852 9.00677C1.25949 8.89823 1.19507 8.75279 1.18796 8.59911C1.18085 8.44543 1.23155 8.29466 1.33009 8.17651C1.42862 8.05836 1.56784 7.98141 1.72029 7.96081C1.87275 7.94021 2.0274 7.97747 2.15375 8.06523L2.23867 8.13661L5.5396 11.4363V0.615385C5.53955 0.471353 5.59002 0.331868 5.68223 0.22122C5.77444 0.110572 5.90253 0.0357719 6.04421 0.00984621Z" fill="#75839D"/>
</svg>
