<svg width="24" height="24" viewBox="0 0 24 24" fill="none" xmlns="http://www.w3.org/2000/svg">
<g clip-path="url(#clip0_614_5761)">
<path d="M12 21.75C12.1847 21.7495 12.3656 21.6978 12.5227 21.6007C12.6798 21.5036 12.8069 21.3649 12.89 21.2L15.95 15.08L19.95 15.08C20.7669 15.08 21.5503 14.7555 22.1279 14.1779C22.7055 13.6003 23.03 12.8169 23.03 12C23.03 11.1832 22.7055 10.3998 22.1279 9.82215C21.5503 9.24453 20.7669 8.92003 19.95 8.92003L15.95 8.92003L12.89 2.80003C12.8069 2.63512 12.6798 2.49644 12.5227 2.39936C12.3656 2.30228 12.1847 2.25059 12 2.25003L8.67 2.25003C8.50709 2.24868 8.34632 2.28714 8.20166 2.36208C8.05701 2.43702 7.93285 2.54617 7.84 2.68003C7.74881 2.81313 7.69117 2.96632 7.67202 3.12653C7.65286 3.28673 7.67276 3.44919 7.73 3.60003L9.73 8.92003L6 8.92003L5.4 7.10003C5.33291 6.90141 5.2051 6.7289 5.03463 6.60688C4.86415 6.48485 4.65964 6.41949 4.45 6.42003L2 6.42003C1.86769 6.42058 1.73681 6.44738 1.61493 6.49888C1.49306 6.55038 1.38261 6.62555 1.29 6.72003C1.10525 6.90629 1.0011 7.15769 0.999998 7.42003L0.999997 16.59C0.999997 16.8553 1.10535 17.1096 1.29289 17.2971C1.48043 17.4847 1.73478 17.59 2 17.59L4.5 17.59C4.70964 17.5906 4.91415 17.5252 5.08463 17.4032C5.2551 17.2812 5.38291 17.1087 5.45 16.91L6 15.08L9.72 15.08L7.72 20.4C7.66275 20.5509 7.64286 20.7133 7.66202 20.8735C7.68117 21.0337 7.7388 21.1869 7.83 21.32C7.92285 21.4539 8.04701 21.563 8.19166 21.638C8.33632 21.7129 8.49709 21.7514 8.66 21.75L12 21.75ZM12.1 14.44C12.159 14.2878 12.1798 14.1235 12.1606 13.9614C12.1414 13.7993 12.0828 13.6443 11.99 13.51C11.8981 13.3776 11.7755 13.2693 11.6328 13.1944C11.49 13.1195 11.3312 13.0803 11.17 13.08L5.33 13.08C5.11912 13.0802 4.91369 13.147 4.74307 13.2709C4.57245 13.3949 4.44537 13.5695 4.38 13.77L3.78 15.58L3 15.58L3 8.41003L3.78 8.41003L4.38 10.22C4.44537 10.4205 4.57245 10.5952 4.74307 10.7191C4.91369 10.8431 5.11912 10.9099 5.33 10.91L11.17 10.91C11.3312 10.9098 11.49 10.8705 11.6328 10.7957C11.7755 10.7208 11.8981 10.6125 11.99 10.48C12.0828 10.3458 12.1414 10.1908 12.1606 10.0287C12.1798 9.8666 12.159 9.70225 12.1 9.55003L10.1 4.24003L11.38 4.24003L14.44 10.35C14.5217 10.5168 14.6483 10.6575 14.8055 10.7565C14.9626 10.8554 15.1443 10.9085 15.33 10.91L19.92 10.91C20.2064 10.91 20.4811 11.0238 20.6837 11.2264C20.8862 11.4289 21 11.7036 21 11.99C21 12.2765 20.8862 12.5512 20.6837 12.7537C20.4811 12.9562 20.2064 13.07 19.92 13.07L15.33 13.07C15.1443 13.0715 14.9626 13.1247 14.8055 13.2236C14.6483 13.3225 14.5217 13.4633 14.44 13.63L11.38 19.74L10.11 19.74L12.1 14.44Z" fill="black"/>
</g>
<defs>
<clipPath id="clip0_614_5761">
<rect width="24" height="24" fill="white" transform="translate(24) rotate(90)"/>
</clipPath>
</defs>
</svg>
