<svg width="16" height="16" viewBox="0 0 16 16" fill="none" xmlns="http://www.w3.org/2000/svg">
<path d="M14.2533 14.6134C14.4162 14.5457 14.5456 14.4163 14.6133 14.2534C14.6475 14.1732 14.6656 14.0872 14.6666 14L14.6666 10C14.6666 9.82323 14.5964 9.65366 14.4714 9.52864C14.3463 9.40361 14.1768 9.33337 14 9.33337C13.8231 9.33337 13.6536 9.40361 13.5286 9.52864C13.4035 9.65366 13.3333 9.82323 13.3333 10L13.3333 12.3934L3.60663 2.66671L5.99996 2.66671C6.17677 2.66671 6.34634 2.59647 6.47136 2.47144C6.59639 2.34642 6.66663 2.17685 6.66663 2.00004C6.66663 1.82323 6.59639 1.65366 6.47136 1.52864C6.34634 1.40361 6.17677 1.33337 5.99996 1.33337L1.99996 1.33337C1.91284 1.33443 1.82677 1.35255 1.74663 1.38671C1.58373 1.45436 1.45428 1.58381 1.38663 1.74671C1.35246 1.82685 1.33435 1.91292 1.33329 2.00004L1.33329 6.00004C1.33329 6.17685 1.40353 6.34642 1.52855 6.47144C1.65358 6.59647 1.82315 6.66671 1.99996 6.66671C2.17677 6.66671 2.34634 6.59647 2.47136 6.47144C2.59639 6.34642 2.66663 6.17685 2.66663 6.00004L2.66663 3.60671L12.3933 13.3334L9.99996 13.3334C9.82315 13.3334 9.65358 13.4036 9.52855 13.5286C9.40353 13.6537 9.33329 13.8232 9.33329 14C9.33329 14.1769 9.40353 14.3464 9.52855 14.4714C9.65358 14.5965 9.82315 14.6667 9.99996 14.6667L14 14.6667C14.0871 14.6657 14.1731 14.6475 14.2533 14.6134Z" fill="#F8F9FA"/>
</svg>
