<svg width="11" height="11" viewBox="0 0 11 11" fill="none" xmlns="http://www.w3.org/2000/svg">
<path d="M6.1875 7.79169C6.1875 8.15836 5.86666 8.47919 5.49999 8.47919C5.13333 8.47919 4.81249 8.15836 4.81249 7.79169C4.81249 7.42502 5.13333 7.10419 5.49999 7.10419C5.86666 7.10419 6.1875 7.42502 6.1875 7.79169ZM6.1875 5.50002C6.1875 5.86669 5.86666 6.18752 5.49999 6.18752C5.13333 6.18752 4.81249 5.86669 4.81249 5.50002C4.81249 5.13335 5.13333 4.81252 5.49999 4.81252C5.86666 4.81252 6.1875 5.13335 6.1875 5.50002ZM6.1875 3.20835C6.1875 3.57502 5.86666 3.89585 5.49999 3.89585C5.13333 3.89585 4.81249 3.57502 4.81249 3.20835C4.81249 2.84168 5.13333 2.52085 5.49999 2.52085C5.86666 2.52085 6.1875 2.84168 6.1875 3.20835Z" fill="black"/>
</svg>
