<svg width="11" height="11" viewBox="0 0 11 11" fill="none" xmlns="http://www.w3.org/2000/svg">
<path d="M4.76665 5.49996L6.41665 7.14996L5.77498 7.79162L4.12499 6.14163L2.47499 7.79162L1.83332 7.14996L3.48332 5.49996L1.83332 3.84996L2.47499 3.2083L4.12499 4.8583L5.77498 3.2083L6.41665 3.84996L4.76665 5.49996ZM8.39313 9.0172L8.88269 8.49173C8.97252 8.39941 9.0527 8.30501 9.12872 8.21269C9.20194 8.12369 9.26814 8.02915 9.32672 7.9299C9.38158 7.83816 9.42653 7.74085 9.4608 7.6396C9.49336 7.54109 9.50986 7.43799 9.50967 7.33425C9.51103 7.20529 9.4872 7.0773 9.4395 6.95747C9.39433 6.84484 9.32371 6.74419 9.23315 6.66341C9.13697 6.57928 9.0245 6.51586 8.90274 6.47711C8.61029 6.39001 8.29784 6.39717 8.00968 6.49758C7.87812 6.54728 7.75876 6.62463 7.65964 6.72439C7.56394 6.81999 7.48974 6.93491 7.44201 7.06149C7.39617 7.18362 7.372 7.31283 7.37058 7.44328L7.36891 7.5519H8.07444L8.07736 7.4479C8.07808 7.38984 8.08637 7.33213 8.10201 7.27622C8.1173 7.22714 8.14167 7.18137 8.17387 7.1413C8.20643 7.10446 8.24701 7.07559 8.29249 7.05692C8.39543 7.01613 8.50961 7.01376 8.61415 7.05023C8.65182 7.06677 8.68546 7.09129 8.71273 7.1221C8.74058 7.15498 8.76198 7.19281 8.7758 7.23362C8.79215 7.28323 8.80061 7.3351 8.80087 7.38734C8.80036 7.4284 8.79546 7.46929 8.78625 7.50931C8.7729 7.5571 8.75382 7.60311 8.72942 7.64632C8.69397 7.70875 8.65361 7.76825 8.6087 7.82426C8.54711 7.9043 8.48144 7.98113 8.41194 8.05442L7.42362 9.13294V9.62495H9.62497V9.0172H8.39313Z" fill="black"/>
</svg>
