<svg width="32" height="32" viewBox="0 0 32 32" fill="none" xmlns="http://www.w3.org/2000/svg">
<path d="M25.8664 17.3333C25.5997 17.3333 25.333 17.2 24.933 17.2C24.3997 17.0666 23.733 16.9333 23.1997 16.6666C21.8664 16.2666 20.533 16.8 19.8664 18L19.5997 18.6666C16.933 17.2 14.7997 15.0666 13.333 12.4L13.9997 12C15.1997 11.4666 15.8664 9.99996 15.333 8.66663C15.0664 8.13329 14.933 7.46663 14.7997 6.93329C14.7997 6.66663 14.6664 6.39996 14.6664 5.99996C14.3997 4.13329 12.6664 2.66663 10.6664 2.66663H6.66637C5.46637 2.66663 4.39971 3.19996 3.73304 3.99996C2.93304 4.93329 2.66637 6.13329 2.79971 7.33329C3.46637 12.9333 5.99971 18 9.99971 22C13.9997 26 19.1997 28.5333 24.6664 29.2C25.8664 29.3333 26.933 28.9333 27.8664 28.2666C28.6664 27.4666 29.1997 26.4 29.1997 25.3333V21.3333C29.1997 19.2 27.8664 17.6 25.8664 17.3333Z" fill="white"/>
</svg>
