<svg width="30" height="30" viewBox="0 0 30 30" fill="none" xmlns="http://www.w3.org/2000/svg">
<path d="M21.4668 13.8751H8.5293C8.37461 13.8751 8.24805 14.0016 8.24805 14.1563V15.8431C8.24805 15.9977 8.37461 16.1242 8.5293 16.1242H21.4668C21.6215 16.1242 21.7481 15.9977 21.7481 15.8431V14.1563C21.7481 14.0016 21.6215 13.8751 21.4668 13.8751Z" fill="#0061FF"/>
<path d="M15 0C6.71652 0 0 6.71652 0 15C0 23.2835 6.71652 30 15 30C23.2835 30 30 23.2835 30 15C30 6.71652 23.2835 0 15 0ZM15 27.4554C8.12277 27.4554 2.54464 21.8772 2.54464 15C2.54464 8.12277 8.12277 2.54464 15 2.54464C21.8772 2.54464 27.4554 8.12277 27.4554 15C27.4554 21.8772 21.8772 27.4554 15 27.4554Z" fill="#0061FF"/>
</svg>
