<svg width="11" height="11" viewBox="0 0 11 11" fill="none" xmlns="http://www.w3.org/2000/svg">
<g clip-path="url(#clip0_0_658)">
<path d="M4.53746 6.10185C4.5414 6.05285 4.55188 6.0046 4.56863 5.95839H2.87693L3.72942 3.57506L4.57321 5.93456C4.6074 5.81048 4.68112 5.70093 4.78318 5.62252C4.88525 5.54411 5.01009 5.50112 5.1388 5.50006H5.33405L4.18821 2.29173H3.27155L0.979887 8.70839H1.89655L2.55197 6.87506H4.53746V6.10185ZM5.7525 9.18505C5.53855 8.92609 5.43121 8.59539 5.4523 8.26014V7.01806C5.45211 6.93904 5.46754 6.86076 5.4977 6.78772C5.52786 6.71468 5.57214 6.64832 5.62802 6.59245C5.68389 6.53657 5.75025 6.49228 5.82329 6.46213C5.89633 6.43197 5.97461 6.41654 6.05363 6.41672H7.48042C7.83932 6.45835 8.16801 6.63781 8.39708 6.91722C8.39708 6.91722 9.18908 7.75047 9.75558 8.25922C9.8233 8.30773 9.8808 8.36912 9.92478 8.43986C9.96876 8.51061 9.99837 8.58933 10.0119 8.67153C10.0254 8.75373 10.0226 8.83779 10.0037 8.9189C9.9847 9.00002 9.94992 9.0766 9.90133 9.14426C9.87565 9.17993 9.84648 9.21294 9.81425 9.2428L8.28021 10.7599C8.18448 10.8868 8.04228 10.9706 7.88484 10.9928C7.72741 11.0149 7.5676 10.9737 7.44054 10.8781C7.39572 10.8447 7.3559 10.805 7.32229 10.7603L6.53854 9.96834L5.7525 9.18505ZM6.88917 7.37006C6.79536 7.37054 6.70558 7.40821 6.63951 7.47479C6.57344 7.54138 6.53647 7.63145 6.53671 7.72526C6.53695 7.81906 6.57439 7.90894 6.6408 7.97519C6.70722 8.04143 6.7972 8.07863 6.891 8.07863C6.98481 8.07863 7.07478 8.04143 7.1412 7.97519C7.20761 7.90894 7.24505 7.81906 7.24529 7.72526C7.24553 7.63145 7.20857 7.54138 7.14249 7.47479C7.07642 7.40821 6.98664 7.37054 6.89283 7.37006H6.88917Z" fill="black"/>
</g>
<defs>
<clipPath id="clip0_0_658">
<rect width="10.6667" height="10.6667" fill="white" transform="scale(1.03125)"/>
</clipPath>
</defs>
</svg>
