<svg width="16" height="16" viewBox="0 0 16 16" fill="none" xmlns="http://www.w3.org/2000/svg">
<path d="M13.9999 9.33334C13.5999 9.33334 13.3333 9.60001 13.3333 10V12.6667C13.3333 13.0667 13.0666 13.3333 12.6666 13.3333H3.33325C2.93325 13.3333 2.66659 13.0667 2.66659 12.6667V10C2.66659 9.60001 2.39992 9.33334 1.99992 9.33334C1.59992 9.33334 1.33325 9.60001 1.33325 10V12.6667C1.33325 13.8 2.19992 14.6667 3.33325 14.6667H12.6666C13.7999 14.6667 14.6666 13.8 14.6666 12.6667V10C14.6666 9.60001 14.3999 9.33334 13.9999 9.33334ZM7.53325 10.4667C7.79992 10.7333 8.19992 10.7333 8.46659 10.4667L11.1333 7.80001C11.3999 7.53334 11.3999 7.13334 11.1333 6.86668C10.8666 6.60001 10.4666 6.60001 10.1999 6.86668L8.66659 8.40001V2.00001C8.66659 1.60001 8.39992 1.33334 7.99992 1.33334C7.59992 1.33334 7.33325 1.60001 7.33325 2.00001V8.40001L5.79992 6.86668C5.53325 6.60001 5.13325 6.60001 4.86659 6.86668C4.59992 7.13334 4.59992 7.53334 4.86659 7.80001L7.53325 10.4667Z" fill="#0061FF"/>
</svg>
