<svg width="32" height="32" viewBox="0 0 32 32" fill="none" xmlns="http://www.w3.org/2000/svg">
<path d="M25.3334 21.3333H24V9.33325C24 8.53325 23.4667 7.99992 22.6667 7.99992H10.6667V6.66659C10.6667 5.86659 10.1334 5.33325 9.33337 5.33325C8.53337 5.33325 8.00004 5.86659 8.00004 6.66659V7.99992H6.66671C5.86671 7.99992 5.33337 8.53325 5.33337 9.33325C5.33337 10.1333 5.86671 10.6666 6.66671 10.6666H8.00004V22.6666C8.00004 23.4666 8.53337 23.9999 9.33337 23.9999H21.3334V25.3333C21.3334 26.1333 21.8667 26.6666 22.6667 26.6666C23.4667 26.6666 24 26.1333 24 25.3333V23.9999H25.3334C26.1334 23.9999 26.6667 23.4666 26.6667 22.6666C26.6667 21.8666 26.1334 21.3333 25.3334 21.3333ZM21.3334 21.3333H10.6667V10.6666H21.3334V21.3333Z" fill="#75839D"/>
</svg>
