<svg width="24" height="24" viewBox="0 0 24 24" fill="none" xmlns="http://www.w3.org/2000/svg">
<path d="M19.2223 16.9639C18.3067 16.9639 17.4874 17.3253 16.8609 17.8916L8.27051 12.8916C8.33075 12.6145 8.37894 12.3373 8.37894 12.0482C8.37894 11.759 8.33075 11.4819 8.27051 11.2048L16.7645 6.25301C17.4151 6.85542 18.2705 7.22892 19.2223 7.22892C21.2223 7.22892 22.8368 5.61446 22.8368 3.61446C22.8368 1.61446 21.2223 0 19.2223 0C17.2223 0 15.6079 1.61446 15.6079 3.61446C15.6079 3.90361 15.656 4.18072 15.7163 4.45783L7.22231 9.40964C6.57171 8.80723 5.71629 8.43373 4.76448 8.43373C2.76448 8.43373 1.15002 10.0482 1.15002 12.0482C1.15002 14.0482 2.76448 15.6627 4.76448 15.6627C5.71629 15.6627 6.57171 15.2892 7.22231 14.6867L15.8006 19.6988C15.7404 19.9518 15.7042 20.2169 15.7042 20.4819C15.7042 22.4217 17.2826 24 19.2223 24C21.1621 24 22.7404 22.4217 22.7404 20.4819C22.7404 18.5422 21.1621 16.9639 19.2223 16.9639Z" fill="#80B0FF"/>
</svg>
