<svg width="16" height="16" viewBox="0 0 16 16" fill="none" xmlns="http://www.w3.org/2000/svg">
<path d="M8.00004 1.33325C6.6815 1.33325 5.39257 1.72425 4.29624 2.45679C3.19991 3.18933 2.34543 4.23052 1.84085 5.4487C1.33626 6.66687 1.20424 8.00731 1.46148 9.30052C1.71871 10.5937 2.35365 11.7816 3.286 12.714C4.21835 13.6463 5.40624 14.2813 6.69944 14.5385C7.99265 14.7957 9.33309 14.6637 10.5513 14.1591C11.7694 13.6545 12.8106 12.8 13.5432 11.7037C14.2757 10.6074 14.6667 9.31846 14.6667 7.99992C14.6667 7.12444 14.4943 6.25753 14.1592 5.4487C13.8242 4.63986 13.3331 3.90493 12.7141 3.28587C12.095 2.66682 11.3601 2.17575 10.5513 1.84072C9.74243 1.50569 8.87552 1.33325 8.00004 1.33325ZM8.00004 13.3333C6.94521 13.3333 5.91406 13.0205 5.037 12.4344C4.15994 11.8484 3.47635 11.0154 3.07269 10.0409C2.66902 9.06636 2.5634 7.994 2.76919 6.95944C2.97498 5.92487 3.48293 4.97456 4.22881 4.22868C4.97469 3.4828 5.925 2.97485 6.95956 2.76906C7.99413 2.56328 9.06648 2.66889 10.041 3.07256C11.0156 3.47623 11.8485 4.15982 12.4345 5.03688C13.0206 5.91394 13.3334 6.94509 13.3334 7.99992C13.3334 9.41441 12.7715 10.771 11.7713 11.7712C10.7711 12.7713 9.41453 13.3333 8.00004 13.3333ZM10.6667 7.33325H8.66671V5.33325C8.66671 5.15644 8.59647 4.98687 8.47145 4.86185C8.34642 4.73682 8.17686 4.66659 8.00004 4.66659C7.82323 4.66659 7.65366 4.73682 7.52864 4.86185C7.40362 4.98687 7.33338 5.15644 7.33338 5.33325V7.33325H5.33338C5.15657 7.33325 4.987 7.40349 4.86197 7.52851C4.73695 7.65354 4.66671 7.82311 4.66671 7.99992C4.66671 8.17673 4.73695 8.3463 4.86197 8.47132C4.987 8.59635 5.15657 8.66659 5.33338 8.66659H7.33338V10.6666C7.33338 10.8434 7.40362 11.013 7.52864 11.138C7.65366 11.263 7.82323 11.3333 8.00004 11.3333C8.17686 11.3333 8.34642 11.263 8.47145 11.138C8.59647 11.013 8.66671 10.8434 8.66671 10.6666V8.66659H10.6667C10.8435 8.66659 11.0131 8.59635 11.1381 8.47132C11.2631 8.3463 11.3334 8.17673 11.3334 7.99992C11.3334 7.82311 11.2631 7.65354 11.1381 7.52851C11.0131 7.40349 10.8435 7.33325 10.6667 7.33325Z" fill="white"/>
</svg>
