<svg width="11" height="11" viewBox="0 0 11 11" fill="none" xmlns="http://www.w3.org/2000/svg">
<path d="M5.04169 7.79162H3.20836C2.60057 7.79162 2.01768 7.55018 1.58791 7.12041C1.15814 6.69064 0.916693 6.10775 0.916693 5.49996C0.916693 4.89217 1.15814 4.30928 1.58791 3.87951C2.01768 3.44974 2.60057 3.2083 3.20836 3.2083H5.04169V4.12496H3.20836C2.84368 4.12496 2.49395 4.26983 2.23609 4.52769C1.97822 4.78555 1.83336 5.13529 1.83336 5.49996C1.83336 5.86463 1.97822 6.21437 2.23609 6.47223C2.49395 6.73009 2.84368 6.87496 3.20836 6.87496H5.04169V7.79162ZM7.79168 3.2083H5.95835V4.12496H7.79168C8.15635 4.12496 8.50609 4.26983 8.76395 4.52769C9.02181 4.78555 9.16668 5.13529 9.16668 5.49996C9.16668 5.86463 9.02181 6.21437 8.76395 6.47223C8.50609 6.73009 8.15635 6.87496 7.79168 6.87496H5.95835V7.79162H7.79168C8.39947 7.79162 8.98236 7.55018 9.41213 7.12041C9.8419 6.69064 10.0833 6.10775 10.0833 5.49996C10.0833 4.89217 9.8419 4.30928 9.41213 3.87951C8.98236 3.44974 8.39947 3.2083 7.79168 3.2083ZM7.33335 5.04163H3.66669V5.95829H7.33335V5.04163Z" fill="black"/>
</svg>
