<svg width="16" height="16" viewBox="0 0 16 16" fill="none" xmlns="http://www.w3.org/2000/svg">
<path d="M14 9.33331C13.8231 9.33331 13.6536 9.40355 13.5286 9.52857C13.4035 9.6536 13.3333 9.82317 13.3333 9.99998V12.3933L10.2933 9.33331C10.2311 9.26879 10.1565 9.21747 10.0741 9.18242C9.9916 9.14736 9.90291 9.12929 9.81329 9.12929C9.72368 9.12929 9.63499 9.14736 9.55251 9.18242C9.47004 9.21747 9.39548 9.26879 9.33329 9.33331C9.20913 9.45822 9.13943 9.62719 9.13943 9.80331C9.13943 9.97944 9.20913 10.1484 9.33329 10.2733L12.3933 13.3333H9.99996C9.82315 13.3333 9.65358 13.4035 9.52855 13.5286C9.40353 13.6536 9.33329 13.8232 9.33329 14C9.33329 14.1768 9.40353 14.3464 9.52855 14.4714C9.65358 14.5964 9.82315 14.6666 9.99996 14.6666H14C14.0871 14.6656 14.1731 14.6475 14.2533 14.6133C14.4162 14.5457 14.5456 14.4162 14.6133 14.2533C14.6475 14.1732 14.6656 14.0871 14.6666 14V9.99998C14.6666 9.82317 14.5964 9.6536 14.4714 9.52857C14.3463 9.40355 14.1768 9.33331 14 9.33331ZM5.79996 6.66665C5.92749 6.77586 6.09154 6.83293 6.25933 6.82645C6.42711 6.81997 6.58627 6.75042 6.705 6.63169C6.82373 6.51296 6.89329 6.3538 6.89977 6.18602C6.90625 6.01823 6.84918 5.85418 6.73996 5.72665L2.55996 1.53998C2.49767 1.47819 2.42379 1.42931 2.34256 1.39613C2.26134 1.36296 2.17436 1.34614 2.08663 1.34665C1.99889 1.34614 1.91191 1.36296 1.83069 1.39613C1.74946 1.42931 1.67559 1.47819 1.61329 1.53998C1.55081 1.60195 1.50121 1.67569 1.46737 1.75693C1.43352 1.83817 1.41609 1.9253 1.41609 2.01331C1.41609 2.10132 1.43352 2.18846 1.46737 2.2697C1.50121 2.35094 1.55081 2.42467 1.61329 2.48665L5.79996 6.66665ZM9.99996 2.66665H12.3933L1.52663 13.5266C1.40109 13.6522 1.33056 13.8224 1.33056 14C1.33056 14.1775 1.40109 14.3478 1.52663 14.4733C1.65216 14.5988 1.82242 14.6694 1.99996 14.6694C2.17749 14.6694 2.34776 14.5988 2.47329 14.4733L13.3333 3.60665V5.99998C13.3333 6.17679 13.4035 6.34636 13.5286 6.47138C13.6536 6.59641 13.8231 6.66665 14 6.66665C14.1768 6.66665 14.3463 6.59641 14.4714 6.47138C14.5964 6.34636 14.6666 6.17679 14.6666 5.99998V1.99998C14.6656 1.91286 14.6475 1.82679 14.6133 1.74665C14.5456 1.58375 14.4162 1.4543 14.2533 1.38665C14.1731 1.35248 14.0871 1.33437 14 1.33331H9.99996C9.82315 1.33331 9.65358 1.40355 9.52855 1.52857C9.40353 1.6536 9.33329 1.82317 9.33329 1.99998C9.33329 2.17679 9.40353 2.34636 9.52855 2.47138C9.65358 2.59641 9.82315 2.66665 9.99996 2.66665Z" fill="white"/>
</svg>
