<svg width="24" height="24" viewBox="0 0 24 24" fill="none" xmlns="http://www.w3.org/2000/svg">
<path d="M16.9996 17.5001V17.5H5.99965C5.3366 17.5 4.70072 17.2366 4.23188 16.7678C3.76304 16.299 3.49965 15.6631 3.49965 15C3.49965 14.337 3.76304 13.7011 4.23188 13.2323C4.70072 12.7634 5.3366 12.5 5.99965 12.5C6.13225 12.5 6.25943 12.4474 6.3532 12.3536C6.44697 12.2598 6.49965 12.1326 6.49965 12V11.999C6.50246 10.698 6.96636 9.44008 7.80894 8.44879C8.65153 7.45751 9.81823 6.797 11.1018 6.58461C12.3853 6.37223 13.7026 6.62172 14.8196 7.28876C15.9364 7.95571 16.7807 8.99692 17.2025 10.2274M16.9996 17.5001L17.2026 10.228C17.2026 10.2278 17.2025 10.2276 17.2025 10.2274M16.9996 17.5001L17.0054 17.5M16.9996 17.5001L17.0054 17.5M17.2025 10.2274C17.2318 10.3122 17.2835 10.3875 17.352 10.4455C17.4206 10.5036 17.5036 10.5421 17.5923 10.5569M17.2025 10.2274L17.5923 10.5569M17.0054 17.5C17.8749 17.49 18.7096 17.1567 19.3468 16.565C19.9841 15.9733 20.3782 15.1656 20.4525 14.2991C20.5268 13.4327 20.2758 12.5697 19.7486 11.8781C19.2213 11.1866 18.4555 10.7161 17.6004 10.5583L17.6004 10.5583M17.0054 17.5L17.6004 10.5583M17.6004 10.5583L17.5923 10.5569M17.6004 10.5583L17.5923 10.5569M17.9613 9.40972L18.0539 9.62249L18.2763 9.68904C19.3104 9.99857 20.1987 10.6695 20.7794 11.5794C21.36 12.4894 21.5942 13.5778 21.4393 14.646C21.2843 15.7142 20.7506 16.6912 19.9353 17.3987C19.1202 18.106 18.0781 18.4969 16.9989 18.5L5.99965 18.5L5.99859 18.5C5.14077 18.5018 4.31215 18.1886 3.6701 17.6197C3.02805 17.0508 2.61728 16.2659 2.5158 15.4141C2.41432 14.5623 2.62919 13.7029 3.11961 12.9991C3.61004 12.2953 4.34186 11.7961 5.17609 11.5963L5.51142 11.516L5.55554 11.174C5.7375 9.76346 6.37708 8.45152 7.3762 7.43934C8.37533 6.42717 9.67886 5.77063 11.0869 5.57038C12.495 5.37013 13.9299 5.63723 15.1716 6.33072C16.4133 7.02422 17.3933 8.10583 17.9613 9.40972Z" fill="#75839D" stroke="#75839D"/>
</svg>
