<svg width="74" height="55" viewBox="0 0 74 55" fill="none" xmlns="http://www.w3.org/2000/svg">
<path fill-rule="evenodd" clip-rule="evenodd" d="M36.3351 6.01214C32.5072 1.11295 27.1442 -0.756255 22.5742 0.273695C17.9276 1.3209 14.4326 5.30303 14.4326 11.2731C14.4326 20.4675 19.9104 26.8181 26.3484 31.4154C23.2351 34.2454 20.8709 37.5393 19.4599 40.7353C19.311 41.0726 19.1719 41.4108 19.0431 41.749H1.56028C0.698563 41.749 0 42.4487 0 43.3119C0 44.175 0.698563 44.8747 1.56028 44.8747H18.1619C17.9461 46.091 17.8948 47.2761 18.0372 48.3918C18.3464 50.8161 19.5839 52.9136 21.9263 54.0867C24.4213 55.3363 26.8226 55.2242 28.9559 54.2314C31.012 53.2744 32.7466 51.5388 34.1615 49.6449C35.2707 48.1601 36.2397 46.5012 37.0565 44.8747H71.7731C72.6348 44.8747 73.3333 44.175 73.3333 43.3119C73.3333 42.4487 72.6348 41.749 71.7731 41.749H38.4745C39.0193 40.4162 39.4367 39.2181 39.7182 38.3015C40.4218 36.011 41.2414 31.6289 41.4174 26.6367C41.7548 26.5304 42.0815 26.4341 42.3975 26.3476C44.5353 25.7618 46.0809 25.6495 47.094 25.8119C48.0691 25.9682 48.3458 26.3265 48.4491 26.5805C48.5966 26.9429 48.6446 27.7087 48.0968 29.0411C47.3929 30.7531 47.0361 32.3216 47.3752 33.5739C47.5643 34.2727 47.9765 34.8857 48.6282 35.2764C49.2445 35.646 49.9233 35.7261 50.5145 35.689C51.6627 35.617 52.9185 35.0785 54.0746 34.381C55.2685 33.6607 56.513 32.6751 57.6641 31.5221C58.6993 30.4852 59.7619 29.5393 60.7618 28.7981C61.7824 28.0414 62.6474 27.5663 63.2946 27.3736C63.6098 27.2797 63.802 27.2748 63.8976 27.2868C63.9625 27.2949 63.9748 27.3074 63.9823 27.3152C64.048 27.3779 64.3608 27.7996 64.3608 29.2449C64.3608 31.9234 65.0754 34.0284 66.9998 34.7996C67.8719 35.1491 68.7712 35.1105 69.5312 34.952C70.2969 34.7922 71.04 34.4864 71.6907 34.1605C72.4614 33.7745 72.7738 32.8358 72.3885 32.0637C72.0031 31.2917 71.0659 30.9788 70.2951 31.3648C69.7756 31.625 69.2996 31.8076 68.8949 31.892C68.4846 31.9776 68.2622 31.9389 68.159 31.8975C68.1237 31.8836 67.4814 31.6294 67.4814 29.2449C67.4814 27.5652 67.1587 26.0317 66.1397 25.0568C65.0161 23.9819 63.5597 24.0338 62.4054 24.3775C61.2489 24.7218 60.042 25.443 58.9053 26.2856C57.7479 27.1437 56.5677 28.1999 55.4575 29.3119C54.4633 30.3078 53.416 31.1294 52.4645 31.7035C52.2479 31.8342 52.0431 31.9479 51.851 32.0461C51.0909 32.4346 50.4129 31.8327 50.6847 31.0235C50.7641 30.7872 50.862 30.5239 50.9823 30.2314C51.6637 28.5742 51.9362 26.8685 51.3388 25.4007C50.6974 23.8244 49.26 22.9937 47.5872 22.7255C45.9524 22.4634 43.9164 22.6909 41.5742 23.3326C41.5279 23.3453 41.4814 23.3582 41.4348 23.3712C41.2818 17.4174 40.0609 10.7807 36.3351 6.01214ZM35.0817 41.749C35.8303 40.0637 36.3909 38.5047 36.7357 37.3823C37.2957 35.5591 37.9906 31.9995 38.2382 27.8106C37.1195 28.2772 35.9179 28.829 34.6339 29.472C33.6102 29.9847 32.6326 30.5577 31.7053 31.1784C32.0546 31.3871 32.4064 31.5927 32.7601 31.7952C33.5082 32.2235 33.7681 33.1782 33.3404 33.9276C32.9128 34.6769 31.9597 34.9372 31.2115 34.5088C30.4861 34.0935 29.759 33.6605 29.0358 33.2083C26.0335 35.7883 23.7617 38.8385 22.4266 41.749H35.0817ZM21.3446 44.8747C21.0838 46.0325 21.0167 47.0877 21.1326 47.9956C21.3308 49.5494 22.0478 50.653 23.3219 51.291C24.9227 52.0928 26.3245 52.0094 27.6409 51.3967C29.0346 50.7481 30.3962 49.4679 31.663 47.7722C32.3382 46.8684 32.9606 45.8819 33.5245 44.8747H21.3446ZM33.2384 26.6763C35.0683 25.7598 36.7672 25.0063 38.3304 24.4081C38.3293 24.239 38.3275 24.0694 38.3247 23.8994C38.229 18.0563 37.0733 12.0285 33.8777 7.93852C30.6842 3.85137 26.4905 2.59489 23.2592 3.32314C20.1044 4.03414 17.5532 6.69408 17.5532 11.2731C17.5532 19.3241 22.5021 25.0021 28.8589 29.3606C30.2166 28.3624 31.6805 27.4565 33.2384 26.6763Z" fill="black"/>
<path d="M11.6352 24.6248C12.2445 25.2351 12.2445 26.2247 11.6352 26.835L8.44771 30.0277L11.6352 33.2204C12.2445 33.8307 12.2445 34.8203 11.6352 35.4306C11.0259 36.0409 10.038 36.0409 9.42863 35.4306L6.24114 32.2379L3.05364 35.4306C2.44431 36.0409 1.4564 36.0409 0.847068 35.4306C0.237739 34.8203 0.237739 33.8307 0.847068 33.2204L4.03456 30.0277L0.847068 26.835C0.23774 26.2246 0.23774 25.2351 0.847069 24.6248C1.4564 24.0145 2.44431 24.0145 3.05364 24.6248L6.24114 27.8175L9.42863 24.6248C10.038 24.0145 11.0259 24.0145 11.6352 24.6248Z" fill="black"/>
</svg>
