<svg width="32" height="32" viewBox="0 0 32 32" fill="none" xmlns="http://www.w3.org/2000/svg">
<path d="M25.334 4C24.2732 4 23.2557 4.42143 22.5056 5.17157C21.7554 5.92172 21.334 6.93913 21.334 8V11.7867L9.33402 4.62667C8.67086 4.2309 7.91297 4.02195 7.14069 4.02195C6.36841 4.02195 5.61052 4.2309 4.94736 4.62667C4.2528 5.02137 3.67565 5.59361 3.27502 6.28476C2.87438 6.97591 2.66467 7.76113 2.66735 8.56V23.44C2.65404 24.2515 2.86009 25.0514 3.26374 25.7555C3.6674 26.4595 4.25369 27.0415 4.96069 27.44C5.6153 27.8104 6.35525 28.0034 7.10736 28C7.89237 27.9947 8.6615 27.7783 9.33402 27.3733L21.334 20.2133V24C21.334 25.0609 21.7554 26.0783 22.5056 26.8284C23.2557 27.5786 24.2732 28 25.334 28C26.3949 28 27.4123 27.5786 28.1625 26.8284C28.9126 26.0783 29.334 25.0609 29.334 24V8C29.334 6.93913 28.9126 5.92172 28.1625 5.17157C27.4123 4.42143 26.3949 4 25.334 4ZM20.4274 17.64L8.00069 25.08C7.74362 25.2366 7.44839 25.3195 7.14736 25.3195C6.84632 25.3195 6.55109 25.2366 6.29402 25.08C6.00182 24.9176 5.75858 24.6798 5.58971 24.3913C5.42084 24.1028 5.33253 23.7743 5.33402 23.44V8.56C5.32639 8.22256 5.4104 7.88937 5.5771 7.59588C5.7438 7.30239 5.98696 7.0596 6.28069 6.89333C6.5327 6.74923 6.81709 6.67125 7.10736 6.66667C7.42332 6.66329 7.73353 6.75126 8.00069 6.92L20.4407 14.36C20.719 14.5337 20.9485 14.7754 21.1076 15.0623C21.2667 15.3492 21.3502 15.6719 21.3502 16C21.3502 16.3281 21.2667 16.6508 21.1076 16.9377C20.9485 17.2246 20.719 17.4663 20.4407 17.64H20.4274ZM26.6674 24C26.6674 24.3536 26.5269 24.6928 26.2768 24.9428C26.0268 25.1929 25.6876 25.3333 25.334 25.3333C24.9804 25.3333 24.6413 25.1929 24.3912 24.9428C24.1412 24.6928 24.0007 24.3536 24.0007 24V8C24.0007 7.64638 24.1412 7.30724 24.3912 7.05719C24.6413 6.80714 24.9804 6.66667 25.334 6.66667C25.6876 6.66667 26.0268 6.80714 26.2768 7.05719C26.5269 7.30724 26.6674 7.64638 26.6674 8V24Z" fill="#0061FF"/>
</svg>
