<svg width="24" height="24" viewBox="0 0 24 24" fill="none" xmlns="http://www.w3.org/2000/svg">
<path d="M20.5 12.8326C20.5011 12.6353 20.4633 12.4397 20.3887 12.257C20.314 12.0743 20.204 11.9081 20.065 11.7679L20.0636 11.7665L11.9436 3.64646L11.7971 3.50002H11.59L4.00002 3.50002H3.50002V4.00002L3.50002 11.59V11.7973L3.64668 11.9438L11.7667 20.0538L11.7675 20.0546C12.0486 20.334 12.4287 20.4908 12.825 20.4908C13.2213 20.4908 13.6015 20.334 13.8825 20.0546L13.8833 20.0539L20.0633 13.8839L20.065 13.8821C20.342 13.6029 20.4982 13.226 20.5 12.8326ZM20.5 12.8326C20.5 12.8325 20.5 12.8323 20.5 12.8321L20 12.83L20.5 12.8329C20.5 12.8328 20.5 12.8327 20.5 12.8326ZM12 2.50003L12.0029 2.50001C12.0687 2.49963 12.1339 2.51224 12.1949 2.53712C12.2555 2.56188 12.3106 2.59829 12.3572 2.64429C12.3574 2.64453 12.3577 2.64477 12.3579 2.64501L20.62 10.917V10.9669L20.7662 11.1134C21.2344 11.5821 21.4974 12.2175 21.4974 12.88C21.4974 13.5421 21.2347 14.1772 20.767 14.6459C20.7668 14.6462 20.7665 14.6464 20.7662 14.6467L14.5979 20.765L14.5967 20.7662C14.1279 21.2344 13.4925 21.4974 12.83 21.4974C12.1675 21.4974 11.5321 21.2344 11.0634 20.7663L2.64501 12.3579C2.64477 12.3577 2.64453 12.3574 2.64429 12.3572C2.59829 12.3106 2.56188 12.2555 2.53712 12.1949C2.51224 12.1339 2.49963 12.0687 2.50001 12.0029H2.50002V12L2.50002 3.00002C2.50002 2.86741 2.5527 2.74023 2.64646 2.64646C2.74023 2.5527 2.86741 2.50002 3.00002 2.50002L12 2.50003ZM6.94445 6.66855C7.1089 6.55867 7.30224 6.50002 7.50002 6.50002C7.76523 6.50002 8.01959 6.60537 8.20712 6.79291C8.39466 6.98045 8.50002 7.2348 8.50002 7.50002C8.50002 7.6978 8.44137 7.89114 8.33149 8.05559C8.22161 8.22004 8.06543 8.34821 7.8827 8.4239C7.69997 8.49958 7.49891 8.51939 7.30493 8.4808C7.11094 8.44222 6.93276 8.34698 6.79291 8.20712C6.65306 8.06727 6.55782 7.88909 6.51923 7.69511C6.48065 7.50113 6.50045 7.30006 6.57614 7.11733C6.65182 6.93461 6.78 6.77843 6.94445 6.66855Z" fill="#75839D" stroke="#75839D"/>
</svg>
