<svg width="15" height="14" viewBox="0 0 15 14" fill="none" xmlns="http://www.w3.org/2000/svg">
<g clip-path="url(#clip0_0_489)">
<path d="M7.26888 10.5355L10.6677 12.3238L10.0197 8.53945L12.7704 5.85977L8.96966 5.30742L7.26888 1.86211V0C7.5806 0 7.89231 0.161328 8.05364 0.486719L9.83919 4.10703L13.8341 4.68672C14.5505 4.79063 14.8376 5.67383 14.3181 6.17969L11.4279 8.99609L12.1115 12.9746C12.2345 13.6883 11.4825 14.2324 10.8427 13.8961L7.26888 12.0203V10.5355Z" fill="#FFC403"/>
</g>
<g clip-path="url(#clip1_0_489)">
<path d="M7.31442 10.5355L3.91559 12.3238L4.56364 8.53945L1.81286 5.85977L5.61364 5.30742L7.31442 1.86211V0C7.0027 0 6.69098 0.161328 6.52965 0.486719L4.74411 4.10703L0.749186 4.68672C0.0327797 4.79063 -0.25433 5.67383 0.265202 6.17969L3.15544 8.99609L2.47184 12.9746C2.3488 13.6883 3.10075 14.2324 3.74059 13.8961L7.31442 12.0203V10.5355Z" fill="#FFC403"/>
</g>
<defs>
<clipPath id="clip0_0_489">
<rect width="7.315" height="14" fill="white" transform="translate(7.29166)"/>
</clipPath>
<clipPath id="clip1_0_489">
<rect width="7.315" height="14" fill="white"/>
</clipPath>
</defs>
</svg>
