<svg width="20" height="20" viewBox="0 0 20 20" fill="none" xmlns="http://www.w3.org/2000/svg">
<path d="M9.99999 1.66663C8.35182 1.66663 6.74065 2.15537 5.37024 3.07105C3.99983 3.98672 2.93173 5.28821 2.301 6.81093C1.67027 8.33365 1.50524 10.0092 1.82678 11.6257C2.14833 13.2422 2.942 14.7271 4.10744 15.8925C5.27287 17.058 6.75773 17.8516 8.37424 18.1732C9.99075 18.4947 11.6663 18.3297 13.189 17.699C14.7117 17.0682 16.0132 16.0001 16.9289 14.6297C17.8446 13.2593 18.3333 11.6481 18.3333 9.99996C18.3333 8.90561 18.1178 7.82198 17.699 6.81093C17.2802 5.79988 16.6664 4.88122 15.8925 4.1074C15.1187 3.33358 14.2001 2.71975 13.189 2.30096C12.178 1.88217 11.0943 1.66663 9.99999 1.66663ZM9.99999 16.6666C8.68145 16.6666 7.39252 16.2756 6.29619 15.5431C5.19986 14.8105 4.34538 13.7694 3.8408 12.5512C3.33621 11.333 3.20419 9.99256 3.46143 8.69936C3.71866 7.40615 4.3536 6.21826 5.28595 5.28591C6.2183 4.35356 7.40619 3.71863 8.69939 3.46139C9.9926 3.20416 11.333 3.33618 12.5512 3.84076C13.7694 4.34535 14.8106 5.19983 15.5431 6.29616C16.2757 7.39249 16.6667 8.68142 16.6667 9.99996C16.6667 11.7681 15.9643 13.4638 14.714 14.714C13.4638 15.9642 11.7681 16.6666 9.99999 16.6666ZM13.3333 9.16663H10.8333V6.66663C10.8333 6.44561 10.7455 6.23365 10.5892 6.07737C10.433 5.92109 10.221 5.83329 9.99999 5.83329C9.77898 5.83329 9.56702 5.92109 9.41074 6.07737C9.25446 6.23365 9.16666 6.44561 9.16666 6.66663V9.16663H6.66666C6.44565 9.16663 6.23369 9.25442 6.0774 9.4107C5.92112 9.56698 5.83333 9.77895 5.83333 9.99996C5.83333 10.221 5.92112 10.4329 6.0774 10.5892C6.23369 10.7455 6.44565 10.8333 6.66666 10.8333H9.16666V13.3333C9.16666 13.5543 9.25446 13.7663 9.41074 13.9225C9.56702 14.0788 9.77898 14.1666 9.99999 14.1666C10.221 14.1666 10.433 14.0788 10.5892 13.9225C10.7455 13.7663 10.8333 13.5543 10.8333 13.3333V10.8333H13.3333C13.5543 10.8333 13.7663 10.7455 13.9226 10.5892C14.0789 10.4329 14.1667 10.221 14.1667 9.99996C14.1667 9.77895 14.0789 9.56698 13.9226 9.4107C13.7663 9.25442 13.5543 9.16663 13.3333 9.16663Z" fill="#75839D"/>
</svg>
