<svg width="32" height="32" viewBox="0 0 32 32" fill="none" xmlns="http://www.w3.org/2000/svg">
<path d="M10.9066 5.33337H3.99996C3.64634 5.33337 3.3072 5.47384 3.05715 5.72389C2.8071 5.97394 2.66663 6.31308 2.66663 6.6667C2.66663 7.02032 2.8071 7.35946 3.05715 7.60951C3.3072 7.85956 3.64634 8.00003 3.99996 8.00003H10.9066C11.1869 8.77224 11.6981 9.43942 12.3708 9.91091C13.0436 10.3824 13.8451 10.6353 14.6666 10.6353C15.4881 10.6353 16.2897 10.3824 16.9624 9.91091C17.6351 9.43942 18.1464 8.77224 18.4266 8.00003H28C28.3536 8.00003 28.6927 7.85956 28.9428 7.60951C29.1928 7.35946 29.3333 7.02032 29.3333 6.6667C29.3333 6.31308 29.1928 5.97394 28.9428 5.72389C28.6927 5.47384 28.3536 5.33337 28 5.33337H18.4266C18.1464 4.56116 17.6351 3.89398 16.9624 3.42249C16.2897 2.951 15.4881 2.69806 14.6666 2.69806C13.8451 2.69806 13.0436 2.951 12.3708 3.42249C11.6981 3.89398 11.1869 4.56116 10.9066 5.33337ZM16 6.6667C16 6.93041 15.9218 7.1882 15.7753 7.40746C15.6287 7.62673 15.4205 7.79762 15.1769 7.89854C14.9332 7.99946 14.6651 8.02586 14.4065 7.97441C14.1479 7.92297 13.9103 7.79598 13.7238 7.60951C13.5373 7.42304 13.4104 7.18546 13.3589 6.92682C13.3075 6.66818 13.3339 6.40009 13.4348 6.15646C13.5357 5.91282 13.7066 5.70458 13.9259 5.55807C14.1451 5.41157 14.4029 5.33337 14.6666 5.33337C15.0202 5.33337 15.3594 5.47384 15.6094 5.72389C15.8595 5.97394 16 6.31308 16 6.6667ZM18.9066 14.6667L3.99996 14.6667C3.64634 14.6667 3.3072 14.8072 3.05715 15.0572C2.8071 15.3073 2.66663 15.6464 2.66663 16C2.66663 16.3537 2.8071 16.6928 3.05715 16.9428C3.3072 17.1929 3.64634 17.3334 3.99996 17.3334H18.9066C19.1869 18.1056 19.6981 18.7728 20.3708 19.2442C21.0436 19.7157 21.8451 19.9687 22.6666 19.9687C23.4881 19.9687 24.2897 19.7157 24.9624 19.2442C25.6351 18.7728 26.1464 18.1056 26.4266 17.3334H28C28.3536 17.3334 28.6927 17.1929 28.9428 16.9428C29.1928 16.6928 29.3333 16.3537 29.3333 16C29.3333 15.6464 29.1928 15.3073 28.9428 15.0572C28.6927 14.8072 28.3536 14.6667 28 14.6667H26.4266C26.1464 13.8945 25.6351 13.2273 24.9624 12.7558C24.2897 12.2843 23.4881 12.0314 22.6666 12.0314C21.8451 12.0314 21.0436 12.2843 20.3708 12.7558C19.6981 13.2273 19.1869 13.8945 18.9066 14.6667ZM24 16C24 16.2637 23.9218 16.5215 23.7753 16.7408C23.6287 16.9601 23.4205 17.131 23.1769 17.2319C22.9332 17.3328 22.6651 17.3592 22.4065 17.3077C22.1479 17.2563 21.9103 17.1293 21.7238 16.9428C21.5373 16.7564 21.4104 16.5188 21.3589 16.2602C21.3075 16.0015 21.3339 15.7334 21.4348 15.4898C21.5357 15.2462 21.7066 15.0379 21.9259 14.8914C22.1451 14.7449 22.4029 14.6667 22.6666 14.6667C23.0202 14.6667 23.3594 14.8072 23.6094 15.0572C23.8595 15.3073 24 15.6464 24 16ZM8.23996 24H3.99996C3.64634 24 3.3072 24.1405 3.05715 24.3906C2.8071 24.6406 2.66663 24.9797 2.66663 25.3334C2.66663 25.687 2.8071 26.0261 3.05715 26.2762C3.3072 26.5262 3.64634 26.6667 3.99996 26.6667H8.23996C8.52023 27.4389 9.03146 28.1061 9.70418 28.5776C10.3769 29.0491 11.1785 29.302 12 29.302C12.8215 29.302 13.623 29.0491 14.2957 28.5776C14.9685 28.1061 15.4797 27.4389 15.76 26.6667H28C28.3536 26.6667 28.6927 26.5262 28.9428 26.2762C29.1928 26.0261 29.3333 25.687 29.3333 25.3334C29.3333 24.9797 29.1928 24.6406 28.9428 24.3906C28.6927 24.1405 28.3536 24 28 24H15.76C15.4797 23.2278 14.9685 22.5606 14.2957 22.0892C13.623 21.6177 12.8215 21.3647 12 21.3647C11.1785 21.3647 10.3769 21.6177 9.70418 22.0892C9.03146 22.5606 8.52023 23.2278 8.23996 24ZM13.3333 25.3334C13.3333 25.5971 13.2551 25.8549 13.1086 26.0741C12.9621 26.2934 12.7538 26.4643 12.5102 26.5652C12.2666 26.6661 11.9985 26.6925 11.7398 26.6411C11.4812 26.5896 11.2436 26.4626 11.0571 26.2762C10.8707 26.0897 10.7437 25.8521 10.6922 25.5935C10.6408 25.3348 10.6672 25.0668 10.7681 24.8231C10.869 24.5795 11.0399 24.3712 11.2592 24.2247C11.4785 24.0782 11.7362 24 12 24C12.3536 24 12.6927 24.1405 12.9428 24.3906C13.1928 24.6406 13.3333 24.9797 13.3333 25.3334Z" fill="#75839D"/>
</svg>
