<svg width="42" height="47" viewBox="0 0 42 47" fill="none" xmlns="http://www.w3.org/2000/svg">
<path d="M35 11.6787H34.1833C34.7158 10.5885 34.995 9.39202 35 8.17872C35.0071 6.55314 34.5275 4.96266 33.6229 3.61199C32.7183 2.26132 31.4302 1.21228 29.9244 0.599907C28.4186 -0.0124654 26.7639 -0.160144 25.1734 0.175879C23.583 0.511903 22.1295 1.31625 21 2.48538C19.8706 1.31625 18.417 0.511903 16.8266 0.175879C15.2361 -0.160144 13.5814 -0.0124654 12.0756 0.599907C10.5698 1.21228 9.28167 2.26132 8.37711 3.61199C7.47255 4.96266 6.99294 6.55314 7 8.17872C7.00498 9.39202 7.28416 10.5885 7.81667 11.6787H7C5.14349 11.6787 3.36301 12.4162 2.05025 13.729C0.737498 15.0417 0 16.8222 0 18.6787V23.3454C0 23.9642 0.245833 24.5577 0.683417 24.9953C1.121 25.4329 1.71449 25.6787 2.33333 25.6787H4.66667V39.6787C4.66667 41.5352 5.40417 43.3157 6.71692 44.6285C8.02967 45.9412 9.81015 46.6787 11.6667 46.6787H30.3333C32.1898 46.6787 33.9703 45.9412 35.2831 44.6285C36.5958 43.3157 37.3333 41.5352 37.3333 39.6787V25.6787H39.6667C40.2855 25.6787 40.879 25.4329 41.3166 24.9953C41.7542 24.5577 42 23.9642 42 23.3454V18.6787C42 16.8222 41.2625 15.0417 39.9498 13.729C38.637 12.4162 36.8565 11.6787 35 11.6787ZM18.6667 42.0121H11.6667C11.0478 42.0121 10.4543 41.7662 10.0168 41.3286C9.57917 40.8911 9.33333 40.2976 9.33333 39.6787V25.6787H18.6667V42.0121ZM18.6667 21.0121H4.66667V18.6787C4.66667 18.0599 4.9125 17.4664 5.35008 17.0288C5.78767 16.5912 6.38116 16.3454 7 16.3454H18.6667V21.0121ZM18.6667 11.6787H15.1667C14.4744 11.6787 13.7977 11.4734 13.2222 11.0889C12.6466 10.7043 12.198 10.1577 11.9331 9.51811C11.6682 8.87857 11.5989 8.17484 11.7339 7.4959C11.869 6.81697 12.2023 6.19333 12.6918 5.70384C13.1813 5.21436 13.8049 4.88102 14.4839 4.74597C15.1628 4.61092 15.8665 4.68023 16.5061 4.94514C17.1456 5.21005 17.6922 5.65865 18.0768 6.23422C18.4614 6.80979 18.6667 7.48648 18.6667 8.17872V11.6787ZM23.3333 8.17872C23.3333 7.48648 23.5386 6.80979 23.9232 6.23422C24.3078 5.65865 24.8544 5.21005 25.4939 4.94514C26.1335 4.68023 26.8372 4.61092 27.5162 4.74597C28.1951 4.88102 28.8187 5.21436 29.3082 5.70384C29.7977 6.19333 30.131 6.81697 30.2661 7.4959C30.4011 8.17484 30.3318 8.87857 30.0669 9.51811C29.802 10.1577 29.3534 10.7043 28.7778 11.0889C28.2023 11.4734 27.5256 11.6787 26.8333 11.6787H23.3333V8.17872ZM32.6667 39.6787C32.6667 40.2976 32.4208 40.8911 31.9833 41.3286C31.5457 41.7662 30.9522 42.0121 30.3333 42.0121H23.3333V25.6787H32.6667V39.6787ZM37.3333 21.0121H23.3333V16.3454H35C35.6188 16.3454 36.2123 16.5912 36.6499 17.0288C37.0875 17.4664 37.3333 18.0599 37.3333 18.6787V21.0121Z" fill="#0061FF"/>
</svg>
