<svg width="11" height="11" viewBox="0 0 11 11" fill="none" xmlns="http://www.w3.org/2000/svg">
<path d="M6.21045 8.70839H7.12711L4.83545 2.29173H3.91879L1.62712 8.70839H2.54379L3.18545 6.87506H5.52295L6.21045 8.70839ZM3.50629 5.95839L4.37712 3.57506L5.24795 5.95839H3.50629ZM9.37294 8.02089C9.37294 8.15686 9.33262 8.28978 9.25708 8.40284C9.18154 8.5159 9.07416 8.60402 8.94854 8.65605C8.82291 8.70809 8.68468 8.7217 8.55132 8.69518C8.41796 8.66865 8.29546 8.60317 8.19931 8.50702C8.10316 8.41087 8.03768 8.28837 8.01116 8.15501C7.98463 8.02165 7.99824 7.88342 8.05028 7.75779C8.10231 7.63217 8.19043 7.5248 8.30349 7.44925C8.41655 7.37371 8.54947 7.33339 8.68544 7.33339C8.86778 7.33339 9.04265 7.40582 9.17158 7.53475C9.30051 7.66368 9.37294 7.83855 9.37294 8.02089ZM9.37294 6.18756C9.37294 6.32353 9.33262 6.45645 9.25708 6.56951C9.18154 6.68257 9.07416 6.77069 8.94854 6.82272C8.82291 6.87476 8.68468 6.88837 8.55132 6.86185C8.41796 6.83532 8.29546 6.76984 8.19931 6.67369C8.10316 6.57754 8.03768 6.45504 8.01116 6.32168C7.98463 6.18832 7.99824 6.05009 8.05028 5.92446C8.10231 5.79884 8.19043 5.69147 8.30349 5.61592C8.41655 5.54038 8.54947 5.50006 8.68544 5.50006C8.86778 5.50006 9.04265 5.57249 9.17158 5.70142C9.30051 5.83035 9.37294 6.00522 9.37294 6.18756ZM9.37294 4.35423C9.37294 4.4902 9.33262 4.62312 9.25708 4.73618C9.18154 4.84924 9.07416 4.93736 8.94854 4.98939C8.82291 5.04143 8.68468 5.05504 8.55132 5.02852C8.41796 5.00199 8.29546 4.93651 8.19931 4.84036C8.10316 4.74421 8.03768 4.62171 8.01116 4.48835C7.98463 4.35499 7.99824 4.21676 8.05028 4.09113C8.10231 3.96551 8.19043 3.85814 8.30349 3.78259C8.41655 3.70705 8.54947 3.66673 8.68544 3.66673C8.86778 3.66673 9.04265 3.73916 9.17158 3.86809C9.30051 3.99702 9.37294 4.17189 9.37294 4.35423Z" fill="black"/>
</svg>
