<svg width="11" height="11" viewBox="0 0 11 11" fill="none" xmlns="http://www.w3.org/2000/svg">
<path d="M8.70832 9.16672V10.0834H2.29167V9.16672H8.70832ZM7.33333 6.05693C7.31823 6.35943 7.22844 6.65347 7.07196 6.91278C6.91548 7.1721 6.69719 7.3886 6.43661 7.54296C6.17602 7.69731 5.88126 7.7847 5.57865 7.79732C5.27605 7.80994 4.97503 7.74739 4.7025 7.61526C4.38838 7.47937 4.12198 7.25278 3.93743 6.96454C3.75289 6.67629 3.65861 6.33951 3.66667 5.99735V2.29402H2.75V6.05693C2.76551 6.48841 2.88239 6.91018 3.09119 7.28809C3.29999 7.666 3.59484 7.98943 3.95187 8.23221C4.3089 8.47499 4.71808 8.6303 5.14629 8.68555C5.5745 8.74081 6.0097 8.69446 6.41666 8.55026C6.958 8.36983 7.42768 8.02142 7.75739 7.55569C8.0871 7.08997 8.25967 6.53122 8.24999 5.96068V2.29402H7.33333V6.05693ZM7.33333 2.29173H8.24999H7.33333ZM3.66667 2.29173H2.75H3.66667Z" fill="black"/>
</svg>
