<svg width="32" height="32" viewBox="0 0 32 32" fill="none" xmlns="http://www.w3.org/2000/svg">
<path d="M21.3333 7.86678C21.3333 7.06678 20.8 6.53345 20 6.53345H3.99996C3.19996 6.53345 2.66663 7.06678 2.66663 7.86678C2.66663 8.66678 3.19996 9.20011 3.99996 9.20011H10.6666V23.8668C10.6666 24.6668 11.2 25.2001 12 25.2001C12.8 25.2001 13.3333 24.6668 13.3333 23.8668V9.20011H20C20.8 9.20011 21.3333 8.66678 21.3333 7.86678ZM28 14.5334H20C19.2 14.5334 18.6666 15.0668 18.6666 15.8668C18.6666 16.6668 19.2 17.2001 20 17.2001H22.6666V23.8668C22.6666 24.6668 23.2 25.2001 24 25.2001C24.8 25.2001 25.3333 24.6668 25.3333 23.8668V17.2001H28C28.8 17.2001 29.3333 16.6668 29.3333 15.8668C29.3333 15.0668 28.8 14.5334 28 14.5334Z" fill="#0061FF"/>
</svg>
