<svg width="14" height="13" viewBox="0 0 14 13" fill="none" xmlns="http://www.w3.org/2000/svg">
<path d="M6.3149 0.357945C6.46998 -0.119328 7.14519 -0.119327 7.30027 0.357946L8.55218 4.21095C8.62154 4.42439 8.82044 4.5689 9.04487 4.5689H13.0962C13.598 4.5689 13.8066 5.21107 13.4006 5.50604L10.1231 7.88733C9.94152 8.01924 9.86555 8.25307 9.9349 8.46651L11.1868 12.3195C11.3419 12.7968 10.7956 13.1937 10.3896 12.8987L7.11208 10.5174C6.93051 10.3855 6.68466 10.3855 6.50309 10.5174L3.22553 12.8987C2.81954 13.1937 2.27328 12.7968 2.42835 12.3195L3.68027 8.46651C3.74962 8.25307 3.67365 8.01924 3.49208 7.88733L0.214521 5.50604C-0.191471 5.21107 0.0171828 4.5689 0.519017 4.5689H4.5703C4.79473 4.5689 4.99363 4.42439 5.06299 4.21095L6.3149 0.357945Z" fill="#0061FF"/>
</svg>
