<svg width="24" height="20" viewBox="0 0 24 20" fill="none" xmlns="http://www.w3.org/2000/svg">
<path d="M10.9402 5.06662C11.2909 5.02181 11.6453 4.99952 12.0002 4.99995C15.1802 4.99995 18.1702 6.90828 19.9102 9.99995C19.6441 10.4704 19.3435 10.9269 19.0102 11.3666C18.9044 11.5031 18.8487 11.6624 18.8502 11.825C18.8524 12.0068 18.926 12.1831 19.0596 12.3268C19.1933 12.4706 19.3798 12.574 19.5905 12.6212C19.8013 12.6684 20.0248 12.6569 20.227 12.5883C20.4291 12.5198 20.5988 12.398 20.7102 12.2416C21.1761 11.6316 21.5808 10.9905 21.9202 10.325C21.9738 10.221 22.0015 10.109 22.0015 9.99578C22.0015 9.8826 21.9738 9.7706 21.9202 9.66662C19.9002 5.75828 16.1002 3.33328 12.0002 3.33328C11.5309 3.33131 11.0623 3.36478 10.6002 3.43328C10.4689 3.45189 10.3432 3.49186 10.2304 3.55093C10.1177 3.61 10.0199 3.687 9.94287 3.77754C9.8658 3.86807 9.81088 3.97037 9.78125 4.0786C9.75162 4.18682 9.74786 4.29885 9.77018 4.40828C9.79251 4.51772 9.84048 4.62242 9.91136 4.7164C9.98224 4.81039 10.0746 4.89182 10.1833 4.95605C10.2919 5.02027 10.4147 5.06604 10.5446 5.09073C10.6744 5.11542 10.8089 5.11855 10.9402 5.09995V5.06662ZM3.71019 1.90828C3.61695 1.83059 3.50626 1.76895 3.38443 1.7269C3.26261 1.68485 3.13204 1.66321 3.00019 1.66321C2.86833 1.66321 2.73776 1.68485 2.61594 1.7269C2.49411 1.76895 2.38342 1.83059 2.29019 1.90828C2.10188 2.0652 1.99609 2.27803 1.99609 2.49995C1.99609 2.72187 2.10188 2.9347 2.29019 3.09162L5.39019 5.66662C3.97576 6.80122 2.85004 8.16161 2.08019 9.66662C2.02512 9.77176 1.9967 9.88523 1.9967 9.99995C1.9967 10.1147 2.02512 10.2281 2.08019 10.3333C4.10019 14.2416 7.90019 16.6666 12.0002 16.6666C13.7973 16.6563 15.552 16.2104 17.0502 15.3833L20.2902 18.0916C20.3831 18.1697 20.4937 18.2317 20.6156 18.274C20.7375 18.3163 20.8682 18.3381 21.0002 18.3381C21.1322 18.3381 21.2629 18.3163 21.3848 18.274C21.5066 18.2317 21.6172 18.1697 21.7102 18.0916C21.8039 18.0141 21.8783 17.922 21.9291 17.8204C21.9798 17.7189 22.006 17.61 22.006 17.5C22.006 17.3899 21.9798 17.281 21.9291 17.1795C21.8783 17.0779 21.8039 16.9858 21.7102 16.9083L3.71019 1.90828ZM10.0702 9.56662L12.5202 11.6083C12.3512 11.6487 12.176 11.6683 12.0002 11.6666C11.4698 11.6666 10.961 11.491 10.586 11.1785C10.2109 10.8659 10.0002 10.442 10.0002 9.99995C9.99814 9.85344 10.0217 9.70746 10.0702 9.56662ZM12.0002 15C8.82018 15 5.83019 13.0916 4.10019 9.99995C4.74627 8.81141 5.66326 7.73877 6.80019 6.84162L8.57019 8.33328C8.15443 8.96561 7.99592 9.69324 8.11844 10.407C8.24096 11.1208 8.6379 11.7822 9.24971 12.292C9.86152 12.8019 10.6552 13.1326 11.5117 13.2347C12.3682 13.3368 13.2414 13.2047 14.0002 12.8583L15.5902 14.1666C14.5013 14.7007 13.2636 14.988 12.0002 15Z" fill="#75839D"/>
</svg>
