<svg width="53" height="13" viewBox="0 0 53 13" fill="none" xmlns="http://www.w3.org/2000/svg">
<path d="M0 1.92305H2.07149V9.22727H5.90658V11.0778H0V1.92305ZM6.82242 4.87059H8.81251V11.0743H6.82242V4.87059ZM7.81743 1.78639C8.45068 1.78651 8.9717 2.29092 8.9717 2.90389C8.9717 3.51693 8.45056 4.0214 7.81725 4.0214C7.18395 4.0214 6.6628 3.51693 6.6628 2.90389C6.6628 2.29086 7.18413 1.78639 7.81743 1.78639ZM17.1372 1.92165H19.1273V7.39275L21.3827 4.8678H23.8227L21.2107 7.73992L23.7677 11.077H21.2664L19.1538 8.01038H19.1277V11.0766H17.1376L17.1372 1.92165ZM9.91596 4.87123H11.827V5.71903H11.8542C12.2426 5.07488 12.9686 4.68881 13.7386 4.71689C15.7566 4.71689 16.1281 6.00217 16.1281 7.67188V11.0739H14.138V8.05777C14.138 7.3378 14.1244 6.41231 13.1015 6.41231C12.0671 6.41231 11.9075 7.19631 11.9075 8.00538V11.0732H9.9174L9.91596 4.87123Z" fill="#0A66C2"/>
<path d="M28.0136 7.25092C28.0138 7.24185 28.0139 7.23272 28.0139 7.22365C28.0139 6.59002 27.4753 6.06863 26.8207 6.06863C26.8111 6.06863 26.8015 6.06875 26.7918 6.06898C26.073 6.02566 25.4421 6.55589 25.3855 7.25092H28.0136ZM29.6994 9.99999C29.0301 10.7856 28.0299 11.2393 26.978 11.2343C24.9879 11.2343 23.3946 9.94841 23.3946 7.95723C23.3946 5.96605 24.9877 4.68078 26.978 4.68078C28.838 4.68078 30.0045 5.96501 30.0045 7.95723V8.56125H25.3855C25.5038 9.26628 26.1475 9.78465 26.8853 9.76907C27.4602 9.76558 27.9957 9.47976 28.3055 9.01094L29.6994 9.99999ZM34.1526 6.37015C33.1576 6.37015 32.5606 7.01331 32.5606 7.95043C32.5606 8.88754 33.1573 9.53123 34.1526 9.53123C35.1478 9.53123 35.7461 8.88911 35.7461 7.95043C35.7461 7.01168 35.1489 6.37015 34.1526 6.37015ZM37.5782 11.0732H35.7461V10.2504H35.719C35.2534 10.8566 34.5207 11.2183 33.7405 11.2273C31.8284 11.2273 30.5688 9.89142 30.5688 8.00235C30.5688 6.26745 31.6835 4.67433 33.5157 4.67433C34.3394 4.67433 35.1087 4.89245 35.56 5.49706H35.5861V1.92101H37.578L37.5782 11.0732ZM51.0131 11.0768H49.023V8.05998C49.023 7.34059 49.0097 6.41452 47.988 6.41452C46.9515 6.41452 46.7929 7.19829 46.7929 8.00759V11.0766H44.8028V4.8728H46.7133V5.72059H46.7401C47.129 5.07679 47.855 4.69084 48.625 4.71852C50.642 4.71852 51.0139 6.00275 51.0139 7.67351L51.0131 11.0768ZM42.5574 4.02477C41.9238 4.02477 41.4023 3.52019 41.4023 2.90692C41.4023 2.29365 41.9236 1.78901 42.5571 1.78901C43.1906 1.78901 43.7119 2.29353 43.712 2.90669C43.712 3.51984 43.1908 4.02471 42.5574 4.02477ZM43.5524 11.0768H41.5603V4.8728H43.5524V11.0768ZM52.0052 8.25128e-05H40.5602C40.0229 -0.00579082 39.5757 0.417088 39.5691 0.93714V12.0618C39.5755 12.5822 40.0226 13.0055 40.5602 12.9999H52.0052C52.544 13.0065 52.9928 12.5832 53 12.0618V0.936384C52.9928 0.415227 52.5434 -0.0067794 52.0052 8.25128e-05Z" fill="#0A66C2"/>
</svg>
