<svg width="56" height="10" viewBox="0 0 56 10" fill="none" xmlns="http://www.w3.org/2000/svg">
<path fill-rule="evenodd" clip-rule="evenodd" d="M56 2.31166C55.998 2.28278 55.988 2.2548 55.9709 2.23033C55.9537 2.20586 55.93 2.18571 55.9019 2.17168C55.7751 2.11418 55.5899 2.07499 55.2132 2.07499C54.363 2.07499 53.611 2.45499 53.2829 3.09082V2.31415C53.2829 2.29814 53.2795 2.28227 53.2727 2.26746C53.2659 2.25265 53.256 2.23923 53.2434 2.22788C53.2309 2.21654 53.216 2.20753 53.1995 2.20139C53.1831 2.19525 53.1655 2.19208 53.1477 2.19208H51.8745C51.8567 2.19208 51.8391 2.19525 51.8227 2.20139C51.8063 2.20753 51.7913 2.21654 51.7788 2.22788C51.7662 2.23923 51.7563 2.25265 51.7495 2.26746C51.7428 2.28227 51.7393 2.29814 51.7394 2.31415V7.55C51.7394 7.61708 51.7995 7.67166 51.8745 7.67166H53.2083C53.2261 7.67166 53.2437 7.66852 53.2601 7.6624C53.2765 7.65629 53.2914 7.6473 53.3039 7.63601C53.3164 7.62471 53.3264 7.6113 53.3332 7.59654C53.34 7.58178 53.3435 7.56598 53.3435 7.55V5.19501C53.3435 4.14292 54.1562 3.62 55.2132 3.62C55.4599 3.62 55.7061 3.66918 55.8297 3.70585C55.9144 3.73085 56 3.66832 56 3.5879V2.31166ZM47.4774 6.38667C46.5656 6.38667 45.8608 5.80627 45.8608 4.92961C45.8608 4.05294 46.5661 3.47209 47.4774 3.47209C48.3886 3.47209 49.0935 4.05294 49.0935 4.92961C49.0935 5.80627 48.3886 6.38707 47.4774 6.38707V6.38667ZM47.4774 2.0579C45.6058 2.0579 44.2085 3.22002 44.2085 4.92961C44.2085 6.63919 45.6062 7.80085 47.4774 7.80085C49.348 7.80085 50.7457 6.63918 50.7457 4.93001C50.7457 3.22001 49.348 2.0579 47.4774 2.0579ZM40.0567 6.38707C39.1449 6.38707 38.4401 5.80627 38.4401 4.92961C38.4401 4.05294 39.1449 3.47209 40.0567 3.47209C40.9679 3.47209 41.6723 4.05294 41.6723 4.92961C41.6723 5.80627 40.9679 6.38707 40.0567 6.38707ZM40.0567 2.0579C38.1851 2.0579 36.7874 3.22002 36.7874 4.92961C36.7874 6.63919 38.1851 7.80085 40.0567 7.80085C41.9273 7.80085 43.325 6.63919 43.325 4.92961C43.325 3.22002 41.9273 2.0579 40.0567 2.0579ZM32.6461 6.4004C31.7349 6.4004 31.0541 5.8196 31.0541 4.9321C31.0541 4.04418 31.7349 3.46334 32.6461 3.46334C33.5459 3.46334 34.2382 4.02251 34.2382 4.9321C34.2382 5.83043 33.5459 6.4004 32.6461 6.4004ZM35.6586 0.000406901H34.3248C34.2889 0.000406901 34.2546 0.0132447 34.2292 0.0360616C34.2039 0.0588785 34.1896 0.0898023 34.1896 0.12207V2.98126C33.7763 2.45501 33.096 2.04915 32.1486 2.04915C30.6658 2.04915 29.4018 3.08001 29.4018 4.9321C29.4018 6.78418 30.6653 7.81418 32.1722 7.81418C33.0594 7.81418 33.7523 7.46335 34.1901 6.9046V7.55C34.1901 7.61708 34.2502 7.67166 34.3243 7.67166H35.6586C35.7326 7.67166 35.7933 7.6175 35.7933 7.55V0.12207C35.7933 0.0898744 35.7791 0.0590192 35.7538 0.0362142C35.7286 0.0134092 35.6943 0.000517161 35.6586 0.000406901ZM28.5183 6.01293C28.5183 7.26293 27.5099 7.79958 25.8942 7.79958C24.7775 7.79958 23.8171 7.52876 23.2678 6.96793C23.247 6.94593 23.2353 6.91815 23.2348 6.88929C23.2342 6.86043 23.2447 6.83226 23.2645 6.80959L24.0356 5.90708C24.0475 5.89345 24.0625 5.88231 24.0796 5.87443C24.0968 5.86655 24.1156 5.86213 24.1349 5.86146C24.1541 5.86079 24.1733 5.86386 24.1911 5.87051C24.2088 5.87717 24.2248 5.88725 24.2378 5.90001C24.6451 6.27626 25.2717 6.50625 26.052 6.50625C26.501 6.50625 26.8657 6.39707 26.8657 6.08999C26.8657 5.79415 26.538 5.72835 25.517 5.53085C24.6178 5.36669 23.4996 4.99417 23.4996 3.79959C23.4996 2.69251 24.4725 2.05709 26.0636 2.05709C27.1109 2.05709 27.8639 2.34209 28.3943 2.79043C28.4452 2.83334 28.4499 2.90584 28.4068 2.95542L27.6751 3.8121C27.6644 3.82525 27.6508 3.83624 27.6351 3.8444C27.6194 3.85257 27.602 3.85771 27.584 3.85951C27.566 3.86131 27.5477 3.85974 27.5304 3.85488C27.5131 3.85001 27.4972 3.84194 27.4835 3.83123C27.1248 3.54248 26.5283 3.36126 25.9424 3.36126C25.4444 3.36126 25.1648 3.50378 25.1648 3.74461C25.1648 4.01877 25.4934 4.08457 26.5745 4.29291C27.6311 4.50124 28.5183 4.8625 28.5183 6.01334V6.01293ZM22.3509 6.01624C22.3509 7.26582 21.342 7.80294 19.7263 7.80294C18.61 7.80294 17.6497 7.53207 17.1004 6.97083C17.0796 6.94891 17.068 6.92122 17.0673 6.89245C17.0666 6.86368 17.077 6.83558 17.0967 6.8129L17.8677 5.90998C17.8797 5.89644 17.8947 5.88539 17.9119 5.87758C17.9291 5.86978 17.9479 5.86545 17.9671 5.86482C17.9863 5.86418 18.0055 5.86727 18.0232 5.87392C18.041 5.88057 18.0569 5.8906 18.07 5.90332C18.4777 6.27915 19.1043 6.5096 19.8842 6.5096C20.3335 6.5096 20.6983 6.40044 20.6983 6.09294C20.6983 5.7971 20.3701 5.73166 19.3496 5.53416C18.4499 5.36958 17.3318 4.99706 17.3318 3.8029C17.3318 2.69581 18.3046 2.06039 19.8962 2.06039C20.9431 2.06039 21.6956 2.34498 22.2265 2.79373C22.2774 2.83665 22.282 2.90873 22.2394 2.95873L21.5072 3.81541C21.461 3.86958 21.373 3.88042 21.3161 3.83458C20.957 3.54583 20.3609 3.36416 19.775 3.36416C19.2765 3.36416 18.997 3.50708 18.997 3.74791C18.997 4.02208 19.3256 4.08793 20.4067 4.29626C21.4637 4.50418 22.3505 4.86582 22.3505 6.01624H22.3509ZM14.3568 5.45792C14.3568 6.06042 13.8107 6.58666 12.9596 6.58666C12.4005 6.58666 12.0969 6.35624 12.0969 6.0054C12.0969 5.69873 12.3524 5.46831 12.8504 5.40248L14.3568 5.23834V5.45751V5.45792ZM13.3002 2.07123C12.0275 2.07123 11.069 2.45539 10.6405 3.21498C10.6263 3.24133 10.623 3.27135 10.631 3.29971C10.6391 3.32807 10.658 3.35298 10.6844 3.37001L11.6568 3.99668C11.7179 4.03585 11.804 4.0229 11.8405 3.96332C12.1108 3.52498 12.7152 3.3754 13.3002 3.3754C14.0171 3.3754 14.3568 3.60542 14.3568 3.92334V4.01082C14.3568 4.14249 14.2721 4.20831 14.0412 4.2304L12.3765 4.36167C11.2588 4.46001 10.4327 5.08502 10.4327 6.0821C10.4327 7.09044 11.2829 7.79165 12.4857 7.79165C13.4335 7.79165 14.0412 7.37544 14.3568 6.9371V7.56042C14.3568 7.62792 14.417 7.6825 14.492 7.6825H15.8258C15.8616 7.6825 15.896 7.66966 15.9214 7.64684C15.9467 7.62402 15.9609 7.5931 15.9609 7.56083V4.29586C15.9609 2.77252 15.0737 2.07123 13.2998 2.07123H13.3002ZM9.3321 0.121663V7.54959C9.3321 7.61667 9.27194 7.67125 9.19696 7.67125H7.8511C7.81526 7.67125 7.78088 7.65842 7.75554 7.6356C7.7302 7.61278 7.71597 7.58186 7.71597 7.54959V0.119578C7.71597 0.053328 7.77521 0 7.84833 0H9.19696C9.27148 0 9.3321 0.0541634 9.3321 0.121663ZM3.2443 6.3946C2.33257 6.3946 1.65223 5.81375 1.65223 4.92625C1.65223 4.03875 2.33303 3.45749 3.2443 3.45749C4.15604 3.45749 4.82386 4.01667 4.82386 4.92625C4.82386 5.82458 4.15557 6.3946 3.2443 6.3946ZM6.25627 2.18623H4.9243C4.88797 2.18623 4.85313 2.19926 4.82744 2.22239C4.80175 2.24552 4.7873 2.27686 4.7873 2.30957V2.95375C4.44714 2.46041 3.74228 2.0546 2.80694 2.0546C1.30003 2.0546 0 3.07416 0 4.90458C0 6.72333 1.2394 7.72044 2.85553 7.72044C3.73024 7.72044 4.41057 7.39168 4.81182 6.87668V7.22748C4.81182 8.01623 4.38604 8.64126 3.02538 8.64126C2.34135 8.64126 1.792 8.43583 1.31021 8.05125C1.29583 8.0393 1.27867 8.03037 1.25999 8.02511C1.24131 8.01984 1.22158 8.01835 1.20219 8.02078C1.1828 8.02321 1.16424 8.02948 1.14787 8.03914C1.1315 8.04881 1.11772 8.06164 1.10751 8.07668L0.503543 8.99002C0.425328 9.10794 0.435955 9.17461 0.485013 9.21336C1.1061 9.69961 1.91326 10 3.08648 10C5.63795 10 6.3914 8.71835 6.3914 7.30418V2.30835C6.39146 2.29234 6.38803 2.27647 6.38126 2.26166C6.3745 2.24685 6.36455 2.23338 6.352 2.22204C6.33944 2.21069 6.32453 2.20168 6.3081 2.19554C6.29168 2.1894 6.27405 2.18623 6.25627 2.18623Z" fill="#0CAA41"/>
</svg>
