<svg width="24" height="24" viewBox="0 0 24 24" fill="none" xmlns="http://www.w3.org/2000/svg">
<path d="M14.367 2.25C13.7933 2.253 13.2338 2.475 12.8205 2.9295C12.8145 2.9355 12.8265 2.9475 12.8205 2.95275C11.898 3.882 11.5403 4.80525 11.2268 5.625C11.0918 5.97975 10.9568 6.3135 10.7813 6.65625C10.608 6.45195 10.3927 6.28753 10.1499 6.17426C9.9072 6.06099 9.64285 6.00154 9.375 6C8.87881 6.00353 8.40395 6.20221 8.05308 6.55308C7.70221 6.90395 7.50353 7.37881 7.5 7.875C7.5 8.90025 8.34975 9.75 9.375 9.75C9.9315 9.75 10.4123 9.486 10.758 9.09375L10.8045 9.141L3.96075 15.9608L3.75 16.1955V19.1715L3 19.9455L4.0545 21L4.8285 20.25H7.8045L8.03925 20.0392L20.46 7.59375L20.484 7.5705C20.8993 7.15333 21.1325 6.58865 21.1325 6C21.1325 5.41135 20.8993 4.84667 20.484 4.4295L19.569 3.516C19.3638 3.30843 19.1194 3.14356 18.8501 3.03092C18.5808 2.91829 18.2919 2.86011 18 2.85975C17.4638 2.85975 16.9425 3.0675 16.5233 3.44475L15.9848 2.9295C15.7729 2.71545 15.5208 2.54526 15.2431 2.42867C14.9654 2.31207 14.6674 2.25136 14.3663 2.25H14.367ZM14.391 3.75C14.5755 3.753 14.7743 3.82875 14.9295 3.98475L15.4455 4.5L10.8518 9.0705C11.868 7.992 12.3165 6.99 12.633 6.16425C12.9555 5.3205 13.1573 4.70175 13.875 3.98475L13.9223 3.9375C13.9823 3.87435 14.0552 3.8249 14.1361 3.79254C14.217 3.76018 14.304 3.74567 14.391 3.75ZM18 4.33575C18.1755 4.33575 18.3488 4.40325 18.516 4.5705L19.4295 5.484C19.764 5.8185 19.764 6.1815 19.4295 6.51525L18.75 7.17225L16.8278 5.25L17.4143 4.66425L17.484 4.5705C17.6513 4.40325 17.8245 4.33575 18 4.33575ZM15.75 6.3285L17.6723 8.25L12 13.9222L10.0778 12L15.75 6.3285ZM9.375 7.5C9.5925 7.5 9.75 7.6575 9.75 7.875C9.75 8.0925 9.5925 8.25 9.375 8.25C9.1575 8.25 9 8.0925 9 7.875C9 7.6575 9.1575 7.5 9.375 7.5ZM9 13.0785L10.9223 15L7.17225 18.75H5.25V16.8278L9 13.0785Z" fill="#0061FF"/>
</svg>
