<svg width="26" height="26" viewBox="0 0 26 26" fill="none" xmlns="http://www.w3.org/2000/svg">
<path d="M13.7692 12.2309C13.6661 12.1323 13.5446 12.055 13.4117 12.0034C13.1479 11.8951 12.8521 11.8951 12.5883 12.0034C12.4554 12.055 12.3339 12.1323 12.2308 12.2309L10.0642 14.3976C9.86017 14.6016 9.74557 14.8783 9.74557 15.1667C9.74557 15.4552 9.86017 15.7319 10.0642 15.9359C10.2682 16.1399 10.5448 16.2545 10.8333 16.2545C11.1218 16.2545 11.3985 16.1399 11.6025 15.9359L11.9167 15.6109V18.4167C11.9167 18.7041 12.0308 18.9796 12.234 19.1828C12.4371 19.3859 12.7127 19.5001 13 19.5001C13.2873 19.5001 13.5629 19.3859 13.766 19.1828C13.9692 18.9796 14.0833 18.7041 14.0833 18.4167V15.6109L14.3975 15.9359C14.4982 16.0375 14.618 16.118 14.75 16.173C14.8821 16.228 15.0237 16.2564 15.1667 16.2564C15.3097 16.2564 15.4513 16.228 15.5833 16.173C15.7153 16.118 15.8351 16.0375 15.9358 15.9359C16.0374 15.8352 16.118 15.7154 16.173 15.5834C16.228 15.4514 16.2563 15.3098 16.2563 15.1667C16.2563 15.0237 16.228 14.8821 16.173 14.7501C16.118 14.6181 16.0374 14.4983 15.9358 14.3976L13.7692 12.2309ZM21.6667 9.68508C21.6554 9.58556 21.6336 9.48751 21.6017 9.39258V9.29508C21.5496 9.18369 21.4801 9.0813 21.3958 8.99175L14.8958 2.49175C14.8063 2.40748 14.7039 2.338 14.5925 2.28591H14.4842C14.3788 2.22958 14.2656 2.18941 14.1483 2.16675H7.58333C6.72138 2.16675 5.89473 2.50916 5.28524 3.11865C4.67574 3.72814 4.33333 4.55479 4.33333 5.41675V20.5834C4.33333 21.4454 4.67574 22.272 5.28524 22.8815C5.89473 23.491 6.72138 23.8334 7.58333 23.8334H18.4167C19.2786 23.8334 20.1053 23.491 20.7148 22.8815C21.3243 22.272 21.6667 21.4454 21.6667 20.5834V9.75008C21.6667 9.75008 21.6667 9.75008 21.6667 9.68508ZM15.1667 5.86091L17.9725 8.66675H16.25C15.9627 8.66675 15.6871 8.55261 15.484 8.34945C15.2808 8.14628 15.1667 7.87073 15.1667 7.58342V5.86091ZM19.5 20.5834C19.5 20.8707 19.3859 21.1463 19.1827 21.3494C18.9795 21.5526 18.704 21.6667 18.4167 21.6667H7.58333C7.29602 21.6667 7.02047 21.5526 6.8173 21.3494C6.61414 21.1463 6.5 20.8707 6.5 20.5834V5.41675C6.5 5.12943 6.61414 4.85388 6.8173 4.65072C7.02047 4.44755 7.29602 4.33341 7.58333 4.33341H13V7.58342C13 8.44537 13.3424 9.27202 13.9519 9.88151C14.5614 10.491 15.388 10.8334 16.25 10.8334H19.5V20.5834Z" fill="#0061FF"/>
</svg>
