<svg width="16" height="16" viewBox="0 0 16 16" fill="none" xmlns="http://www.w3.org/2000/svg">
<path d="M10.4738 8.4735C11.1274 7.95927 11.6045 7.25411 11.8386 6.45613C12.0728 5.65814 12.0524 4.80701 11.7803 4.02114C11.5083 3.23528 10.998 2.55376 10.3205 2.0714C9.64308 1.58904 8.83212 1.32983 8.00049 1.32983C7.16885 1.32983 6.3579 1.58904 5.68044 2.0714C5.00298 2.55376 4.49272 3.23528 4.22063 4.02114C3.94854 4.80701 3.92816 5.65814 4.16233 6.45613C4.39649 7.25411 4.87356 7.95927 5.52715 8.4735C4.4072 8.92219 3.43001 9.6664 2.69975 10.6268C1.96948 11.5872 1.51353 12.7277 1.38049 13.9268C1.37086 14.0144 1.37856 14.103 1.40317 14.1875C1.42778 14.2721 1.4688 14.351 1.52389 14.4197C1.63517 14.5585 1.79701 14.6474 1.97382 14.6668C2.15063 14.6863 2.32793 14.6347 2.4667 14.5234C2.60548 14.4122 2.69437 14.2503 2.71382 14.0735C2.86021 12.7703 3.48161 11.5667 4.4593 10.6927C5.43699 9.81868 6.70242 9.33552 8.01382 9.33552C9.32522 9.33552 10.5907 9.81868 11.5683 10.6927C12.546 11.5667 13.1674 12.7703 13.3138 14.0735C13.3319 14.2373 13.4101 14.3886 13.5332 14.4982C13.6563 14.6077 13.8157 14.6678 13.9805 14.6668H14.0538C14.2286 14.6467 14.3883 14.5584 14.4982 14.421C14.6081 14.2836 14.6592 14.1084 14.6405 13.9335C14.5068 12.731 14.0484 11.5875 13.3144 10.6256C12.5804 9.66378 11.5984 8.91982 10.4738 8.4735ZM8.00049 8.00016C7.47307 8.00016 6.9575 7.84377 6.51897 7.55075C6.08043 7.25773 5.73864 6.84126 5.53681 6.35399C5.33497 5.86672 5.28216 5.33054 5.38506 4.81326C5.48795 4.29597 5.74193 3.82082 6.11487 3.44788C6.48781 3.07494 6.96296 2.82096 7.48025 2.71807C7.99753 2.61518 8.53371 2.66799 9.02098 2.86982C9.50825 3.07165 9.92472 3.41345 10.2177 3.85198C10.5108 4.29051 10.6672 4.80608 10.6672 5.3335C10.6672 6.04074 10.3862 6.71902 9.8861 7.21912C9.38601 7.71921 8.70773 8.00016 8.00049 8.00016Z" fill="#9EA8BA"/>
</svg>
