<svg width="32" height="32" viewBox="0 0 32 32" fill="none" xmlns="http://www.w3.org/2000/svg">
<path d="M28.7066 9.53333C28.5039 9.41631 28.274 9.3547 28.04 9.3547C27.8059 9.3547 27.576 9.41631 27.3733 9.53333L22.6666 11.8533C22.6286 10.8181 22.1905 9.83796 21.4444 9.11925C20.6984 8.40054 19.7026 7.9993 18.6666 8H6.66663C5.60576 8 4.58834 8.42143 3.8382 9.17157C3.08805 9.92172 2.66663 10.9391 2.66663 12V20C2.66663 21.0609 3.08805 22.0783 3.8382 22.8284C4.58834 23.5786 5.60576 24 6.66663 24H18.6666C19.7026 24.0007 20.6984 23.5995 21.4444 22.8807C22.1905 22.162 22.6286 21.1819 22.6666 20.1467L27.4133 22.52C27.595 22.6132 27.7958 22.6634 28 22.6667C28.2496 22.6675 28.4944 22.5982 28.7066 22.4667C28.8988 22.3466 29.0572 22.1795 29.1668 21.9812C29.2764 21.7829 29.3337 21.5599 29.3333 21.3333V10.6667C29.3337 10.4401 29.2764 10.2171 29.1668 10.0188C29.0572 9.82051 28.8988 9.65343 28.7066 9.53333ZM20 20C20 20.3536 19.8595 20.6928 19.6094 20.9428C19.3594 21.1929 19.0202 21.3333 18.6666 21.3333H6.66663C6.313 21.3333 5.97387 21.1929 5.72382 20.9428C5.47377 20.6928 5.33329 20.3536 5.33329 20V12C5.33329 11.6464 5.47377 11.3072 5.72382 11.0572C5.97387 10.8071 6.313 10.6667 6.66663 10.6667H18.6666C19.0202 10.6667 19.3594 10.8071 19.6094 11.0572C19.8595 11.3072 20 11.6464 20 12V20ZM26.6666 19.1733L22.6666 17.1733V14.8267L26.6666 12.8267V19.1733Z" fill="#4D90FF"/>
</svg>
